<svg viewBox="86 16 64 72" xmlns="http://www.w3.org/2000/svg">
  <g fill="#D3D3D3">
    <path d="M125.85 25.5a1.44 1.44 0 01-.72-.19l-7.63-4.42-7.66 4.42a1.44 1.44 0 11-1.44-2.5l8.39-4.81a1.43 1.43 0 011.44 0l8.35 4.83a1.44 1.44 0 01-.72 2.69M117.5 63.49a1.44 1.44 0 01-1.44-1.49v-9.62a1.44 1.44 0 112.88 0V62a1.44 1.44 0 01-1.44 1.44M88.8 46.89a1.44 1.44 0 01-1.44-1.44v-9.66a1.44 1.44 0 112.88 0v9.66a1.44 1.44 0 01-1.44 1.44M146.17 46.89a1.44 1.44 0 01-1.44-1.44v-9.66a1.44 1.44 0 112.88 0v9.66a1.44 1.44 0 01-1.44 1.44M146.18 70.41a1.44 1.44 0 01-1.44-1.41v-9.7a1.44 1.44 0 011.44-1.44 1.44 1.44 0 011.44 1.44V69a1.44 1.44 0 01-1.44 1.44zM88.8 70.41A1.44 1.44 0 0187.36 69v-9.7a1.44 1.44 0 112.88 0V69a1.44 1.44 0 01-1.44 1.44"/>
    <path d="M117.5 31.2a1.44 1.44 0 01-1.44-1.44V19.23a1.44 1.44 0 112.88 0v10.53a1.44 1.44 0 01-1.44 1.44M117.5 87a1.44 1.44 0 01-1.44-1.44v-9.65a1.44 1.44 0 112.88 0v9.66A1.44 1.44 0 01117.5 87"/>
    <path d="M117.5 87a1.45 1.45 0 01-.72-.19l-8.4-4.81a1.44 1.44 0 011.44-2.5l7.69 4.45 7.58-4.39a1.44 1.44 0 011.44 2.44l-8.3 4.81a1.43 1.43 0 01-.72.19M117.5 53.82a1.45 1.45 0 01-.72-.19l-8.38-4.84a1.44 1.44 0 011.44-2.5l7.66 4.42 7.63-4.42a1.44 1.44 0 011.44 2.49l-8.35 4.84a1.43 1.43 0 01-.72.19M137.81 42.07a1.44 1.44 0 01-.72-2.69l8.36-4.83a1.44 1.44 0 011.44 2.5l-8.36 4.83a1.44 1.44 0 01-.72.19"/>
    <path d="M146.17 37.23a1.43 1.43 0 01-.72-.19l-8.37-4.84a1.44 1.44 0 011.44-2.5l8.37 4.84a1.44 1.44 0 01-.72 2.69M97.16 42.07a1.44 1.44 0 01-.72-.19L88.08 37a1.44 1.44 0 011.44-2.5l8.37 4.83a1.44 1.44 0 01-.72 2.69"/>
    <path d="M88.8 37.23a1.44 1.44 0 01-.72-2.69l8.36-4.82a1.44 1.44 0 011.44 2.5L89.52 37a1.45 1.45 0 01-.72.19M137.8 75.24a1.44 1.44 0 01-.72-2.69l8.38-4.83a1.44 1.44 0 111.44 2.5l-8.38 4.83a1.44 1.44 0 01-.72.19"/>
    <path d="M146.17 70.41a1.43 1.43 0 01-.72-.19l-8.37-4.83a1.44 1.44 0 011.44-2.5l8.37 4.83a1.44 1.44 0 01-.72 2.69M97.16 75.25a1.44 1.44 0 01-.72-.19l-8.37-4.84a1.44 1.44 0 011.44-2.5l8.37 4.84a1.44 1.44 0 01-.72 2.69"/>
    <path d="M88.8 70.41a1.44 1.44 0 01-.72-2.69l8.35-4.84a1.44 1.44 0 011.44 2.5l-8.35 4.83a1.44 1.44 0 01-.72.19"/>
    <g opacity=".2">
      <path d="M88.8 36.61a.82.82 0 01-.41-1.53l28.71-16.57a.82.82 0 01.82 1.42L89.21 36.5a.82.82 0 01-.41.11M88.8 69.79a.82.82 0 01-.41-1.53l57.37-33.18a.82.82 0 01.82 1.42L89.21 69.68a.82.82 0 01-.41.11"/>
      <path d="M146.17 36.61a.82.82 0 01-.41-.11l-28.67-16.56a.82.82 0 01.82-1.42l28.67 16.57a.82.82 0 01-.41 1.53M146.17 69.79a.81.81 0 01-.41-.11L88.39 36.5a.82.82 0 01.82-1.42l57.38 33.18a.82.82 0 01-.41 1.53M117.5 86.4a.82.82 0 01-.41-.11l-28.7-16.61a.82.82 0 01.82-1.42l28.71 16.61a.82.82 0 01-.41 1.53"/>
      <path d="M117.51 86.4a.82.82 0 01-.41-1.53l28.67-16.61a.82.82 0 01.82 1.42l-28.67 16.61a.82.82 0 01-.41.11M88.8 69.79A.82.82 0 0188 69V35.79a.82.82 0 111.64 0V69a.82.82 0 01-.82.82"/>
      <path d="M146.18 69.79a.82.82 0 01-.82-.82V35.79a.82.82 0 111.64 0V69a.82.82 0 01-.82.82M117.5 86.3a.82.82 0 01-.82-.82V19.23a.82.82 0 011.64 0v66.25a.82.82 0 01-.82.82"/>
    </g>
  </g>
</svg>
