<?xml version="1.0" encoding="UTF-8"?>
<svg viewBox="86 16 64 72" xmlns="http://www.w3.org/2000/svg">
<g fill="#fff">
<path d="M125.85,25.5a1.44,1.44,0,0,1-.72-.19l-7.63-4.42-7.66,4.42a1.44,1.44,0,1,1-1.44-2.5L116.79,18a1.43,1.43,0,0,1,1.44,0l8.35,4.83a1.44,1.44,0,0,1-.72,2.69"/>
<path d="M117.5,63.49A1.44,1.44,0,0,1,116.06,62V52.38a1.44,1.44,0,1,1,2.88,0V62a1.44,1.44,0,0,1-1.44,1.44"/>
<path d="M88.8,46.89a1.44,1.44,0,0,1-1.44-1.44V35.79a1.44,1.44,0,1,1,2.88,0v9.66a1.44,1.44,0,0,1-1.44,1.44"/>
<path  d="M146.17,46.89a1.44,1.44,0,0,1-1.44-1.44V35.79a1.44,1.44,0,1,1,2.88,0v9.66a1.44,1.44,0,0,1-1.44,1.44"/>
<path  d="M146.18,70.41A1.44,1.44,0,0,1,144.74,69V59.3a1.44,1.44,0,0,1,1.44-1.44h0a1.44,1.44,0,0,1,1.44,1.44V69a1.44,1.44,0,0,1-1.44,1.44Z"/>
<path d="M88.8,70.41A1.44,1.44,0,0,1,87.36,69V59.3a1.44,1.44,0,1,1,2.88,0V69a1.44,1.44,0,0,1-1.44,1.44"/>
<path d="M117.5,31.2a1.44,1.44,0,0,1-1.44-1.44V19.23a1.44,1.44,0,1,1,2.88,0V29.76a1.44,1.44,0,0,1-1.44,1.44"/>
<path d="M117.5,87a1.44,1.44,0,0,1-1.44-1.44V75.91a1.44,1.44,0,1,1,2.88,0v9.66A1.44,1.44,0,0,1,117.5,87"/>
<path d="M117.5,87a1.45,1.45,0,0,1-.72-.19L108.38,82a1.44,1.44,0,0,1,1.44-2.5l7.69,4.45,7.58-4.39A1.44,1.44,0,0,1,126.53,82l-8.3,4.81a1.43,1.43,0,0,1-.72.19"/>
<path d="M117.5,53.82a1.45,1.45,0,0,1-.72-.19l-8.38-4.84a1.44,1.44,0,0,1,1.44-2.5l7.66,4.42,7.63-4.42a1.44,1.44,0,0,1,1.44,2.49l-8.35,4.84a1.43,1.43,0,0,1-.72.19"/>
<path d="M137.81,42.07a1.44,1.44,0,0,1-.72-2.69l8.36-4.83a1.44,1.44,0,0,1,1.44,2.5l-8.36,4.83a1.44,1.44,0,0,1-.72.19"/>
<path  d="M146.17,37.23a1.43,1.43,0,0,1-.72-.19l-8.37-4.84a1.44,1.44,0,0,1,1.44-2.5l8.37,4.84a1.44,1.44,0,0,1-.72,2.69"/>
<path  d="M97.16,42.07a1.44,1.44,0,0,1-.72-.19L88.08,37a1.44,1.44,0,0,1,1.44-2.5l8.37,4.83a1.44,1.44,0,0,1-.72,2.69"/>
<path  d="M88.8,37.23a1.44,1.44,0,0,1-.72-2.69l8.36-4.82a1.44,1.44,0,0,1,1.44,2.5L89.52,37a1.45,1.45,0,0,1-.72.19"/>
<path d="M137.8,75.24a1.44,1.44,0,0,1-.72-2.69l8.38-4.83a1.44,1.44,0,1,1,1.44,2.5l-8.38,4.83a1.44,1.44,0,0,1-.72.19"/>
<path  d="M146.17,70.41a1.43,1.43,0,0,1-.72-.19l-8.37-4.83a1.44,1.44,0,0,1,1.44-2.5l8.37,4.83a1.44,1.44,0,0,1-.72,2.69"/>
<path  d="M97.16,75.25a1.44,1.44,0,0,1-.72-.19l-8.37-4.84a1.44,1.44,0,0,1,1.44-2.5l8.37,4.84a1.44,1.44,0,0,1-.72,2.69"/>
<path  d="M88.8,70.41a1.44,1.44,0,0,1-.72-2.69l8.35-4.84a1.44,1.44,0,0,1,1.44,2.5l-8.35,4.83a1.44,1.44,0,0,1-.72.19"/>
<g opacity="0.2" >
<path d="M88.8,36.61a.82.82,0,0,1-.41-1.53l28.71-16.57a.82.82,0,0,1,.82,1.42L89.21,36.5a.82.82,0,0,1-.41.11"/>
<path d="M88.8,69.79a.82.82,0,0,1-.41-1.53l57.37-33.18a.82.82,0,0,1,.82,1.42L89.21,69.68a.82.82,0,0,1-.41.11"/>
<path d="M146.17,36.61a.82.82,0,0,1-.41-.11L117.09,19.94a.82.82,0,0,1,.82-1.42l28.67,16.57a.82.82,0,0,1-.41,1.53"/>
<path d="M146.17,69.79a.81.81,0,0,1-.41-.11L88.39,36.5a.82.82,0,0,1,.82-1.42l57.38,33.18a.82.82,0,0,1-.41,1.53"/>
<path d="M117.5,86.4a.82.82,0,0,1-.41-.11L88.39,69.68a.82.82,0,0,1,.82-1.42l28.71,16.61a.82.82,0,0,1-.41,1.53"/>
<path d="M117.51,86.4a.82.82,0,0,1-.41-1.53l28.67-16.61a.82.82,0,0,1,.82,1.42L117.92,86.29a.82.82,0,0,1-.41.11"/>
<path d="M88.8,69.79A.82.82,0,0,1,88,69V35.79a.82.82,0,1,1,1.64,0V69a.82.82,0,0,1-.82.82"/>
<path d="M146.18,69.79a.82.82,0,0,1-.82-.82V35.79a.82.82,0,1,1,1.64,0V69a.82.82,0,0,1-.82.82"/><path d="M117.5,86.3a.82.82,0,0,1-.82-.82V19.23a.82.82,0,0,1,1.64,0V85.48a.82.82,0,0,1-.82.82"/>
</g>
</g>
</svg>
