<?xml version="1.0" encoding="UTF-8"?>
<svg viewBox="86 16 64 72" xmlns="http://www.w3.org/2000/svg">
  <g fill="#D3D3D3">
    <path d="M125.8 25.5a1.4 1.4 0 01-.7-.2l-7.6-4.4-7.7 4.4a1.4 1.4 0 11-1.4-2.5l8.4-4.8a1.4 1.4 0 011.4 0l8.4 4.8a1.4 1.4 0 01-.7 2.7M117.5 63.5a1.4 1.4 0 01-1.4-1.5v-9.6a1.4 1.4 0 112.8 0V62a1.4 1.4 0 01-1.4 1.4M88.8 46.9a1.4 1.4 0 01-1.4-1.4v-9.7a1.4 1.4 0 112.8 0v9.7a1.4 1.4 0 01-1.4 1.4M146.2 46.9a1.4 1.4 0 01-1.5-1.4v-9.7a1.4 1.4 0 113 0v9.7a1.4 1.4 0 01-1.5 1.4M146.2 70.4a1.4 1.4 0 01-1.5-1.4v-9.7a1.4 1.4 0 011.5-1.4 1.4 1.4 0 011.4 1.4V69a1.4 1.4 0 01-1.4 1.4zM88.8 70.4a1.4 1.4 0 01-1.4-1.4v-9.7a1.4 1.4 0 112.8 0V69a1.4 1.4 0 01-1.4 1.4"/>
    <path d="M117.5 31.2a1.4 1.4 0 01-1.4-1.4V19.2a1.4 1.4 0 112.8 0v10.6a1.4 1.4 0 01-1.4 1.4M117.5 87a1.4 1.4 0 01-1.4-1.4v-9.7a1.4 1.4 0 112.8 0v9.7a1.4 1.4 0 01-1.4 1.4"/>
    <path d="M117.5 87a1.4 1.4 0 01-.7-.2l-8.4-4.8a1.4 1.4 0 011.4-2.5l7.7 4.5 7.6-4.4a1.4 1.4 0 011.4 2.4l-8.3 4.8a1.4 1.4 0 01-.7.2M117.5 53.8a1.4 1.4 0 01-.7-.2l-8.4-4.8a1.4 1.4 0 011.4-2.5l7.7 4.4 7.6-4.4a1.4 1.4 0 011.5 2.5l-8.4 4.8a1.4 1.4 0 01-.7.2M137.8 42a1.4 1.4 0 01-.7-2.6l8.4-4.8a1.4 1.4 0 011.4 2.5l-8.4 4.8a1.4 1.4 0 01-.7.2"/>
    <path d="M146.2 37.2a1.4 1.4 0 01-.8-.2l-8.3-4.8a1.4 1.4 0 011.4-2.5l8.4 4.8a1.4 1.4 0 01-.7 2.7M97.2 42a1.4 1.4 0 01-.8-.1L88.1 37a1.4 1.4 0 011.4-2.5l8.4 4.8a1.4 1.4 0 01-.7 2.7"/>
    <path d="M88.8 37.2a1.4 1.4 0 01-.7-2.7l8.3-4.8a1.4 1.4 0 011.5 2.5L89.5 37a1.4 1.4 0 01-.7.2M137.8 75.2a1.4 1.4 0 01-.7-2.7l8.4-4.8a1.4 1.4 0 111.4 2.5l-8.4 4.8a1.4 1.4 0 01-.7.2"/>
    <path d="M146.2 70.4a1.4 1.4 0 01-.8-.2l-8.3-4.8a1.4 1.4 0 011.4-2.5l8.4 4.8a1.4 1.4 0 01-.7 2.7M97.2 75.3a1.4 1.4 0 01-.8-.2l-8.3-4.9a1.4 1.4 0 011.4-2.5l8.4 4.9a1.4 1.4 0 01-.7 2.7"/>
    <path d="M88.8 70.4a1.4 1.4 0 01-.7-2.7l8.3-4.8a1.4 1.4 0 011.5 2.5l-8.4 4.8a1.4 1.4 0 01-.7.2"/>
    <g opacity=".2">
      <path d="M88.8 36.6a.8.8 0 01-.4-1.5L117 18.5a.8.8 0 01.8 1.4L89.2 36.5a.8.8 0 01-.4.1M88.8 69.8a.8.8 0 01-.4-1.5L145.8 35a.8.8 0 01.8 1.4L89.2 69.7a.8.8 0 01-.4 0"/>
      <path d="M146.2 36.6a.8.8 0 01-.4-.1L117 19.9a.8.8 0 01.8-1.4l28.7 16.6a.8.8 0 01-.4 1.5M146.2 69.8a.8.8 0 01-.4-.1L88.4 36.5a.8.8 0 01.8-1.4l57.4 33.2a.8.8 0 01-.4 1.5M117.5 86.4a.8.8 0 01-.4-.1L88.4 69.7a.8.8 0 01.8-1.4L118 84.9a.8.8 0 01-.4 1.5"/>
      <path d="M117.5 86.4a.8.8 0 01-.4-1.5l28.7-16.6a.8.8 0 01.8 1.4l-28.7 16.6a.8.8 0 01-.4.1M88.8 69.8a.8.8 0 01-.8-.8V35.8a.8.8 0 111.6 0V69a.8.8 0 01-.8.8"/>
      <path d="M146.2 69.8a.8.8 0 01-.8-.8V35.8a.8.8 0 111.6 0V69a.8.8 0 01-.8.8M117.5 86.3a.8.8 0 01-.8-.8V19.2a.8.8 0 011.6 0v66.3a.8.8 0 01-.8.8"/>
    </g>
  </g>
</svg>
