<?xml version="1.0" encoding="UTF-8" standalone="no"?><!-- Generator: Gravit.io --><svg xmlns="http://www.w3.org/2000/svg" xmlns:xlink="http://www.w3.org/1999/xlink" style="isolation:isolate" viewBox="0 0 512 512" width="512pt" height="512pt"><defs><clipPath id="_clipPath_ZNwYOMmeaT2b7rA1VDZoxImo1NDsUpjj"><rect width="512" height="512"/></clipPath></defs><g clip-path="url(#_clipPath_ZNwYOMmeaT2b7rA1VDZoxImo1NDsUpjj)"><clipPath id="_clipPath_JosTRnC8XqEONdzHNAyvWqQac7VLvd5F"><rect x="0" y="0" width="512" height="512" transform="matrix(1,0,0,1,0,0)" fill="rgb(255,255,255)"/></clipPath><g clip-path="url(#_clipPath_JosTRnC8XqEONdzHNAyvWqQac7VLvd5F)"><g><rect x="0" y="0" width="512" height="512" transform="matrix(1,0,0,1,0,0)" fill="rgb(0,109,223)"/><path d=" M 256 95 L 23 205 L 23 205 L 23 325 L 256 215 L 489 325 L 489 205 L 489 205 L 256 95 Z " fill="rgb(255,255,255)"/><path d=" M 256 100.667 L 23 210.043 L 23 210.043 L 23 325 L 489 325 L 489 210.043 L 489 210.043 L 256 100.667 Z " fill="rgb(0,109,223)"/><path d=" M 256 315 L 489 205 L 489 325 L 256 435 L 23 325 L 23 205 L 256 315 Z " fill="rgb(255,255,255)"/><path d=" M 256 319.333 L 484.333 213 L 484.333 321 L 256 429.5 L 27.667 321 L 27.667 213 L 256 319.333 Z " fill="rgb(0,109,223)"/><path d=" M 360.013 205 C 357.468 233.369 311.837 256 256 256 C 200.163 256 154.532 233.369 151.987 205 L 151.875 205 L 151.875 202.5 L 151.875 139.5 L 360.125 139.5 L 360.125 202.5 L 360.125 205 L 360.013 205 L 360.013 205 Z " fill-rule="evenodd" fill="rgb(255,255,255)"/><path d=" M 355.591 202.001 C 353.154 229.072 309.463 250.667 256 250.667 C 202.537 250.667 158.846 229.072 156.409 202.001 L 156.302 202.001 L 156.302 199.616 L 156.302 139.5 L 355.698 139.5 L 355.698 199.616 L 355.698 202.001 L 355.591 202.001 Z " fill-rule="evenodd" fill="rgb(0,109,223)"/><ellipse vector-effect="non-scaling-stroke" cx="255.99999999999994" cy="139.5" rx="104.125" ry="53.5" fill="rgb(255,255,255)"/><ellipse vector-effect="non-scaling-stroke" cx="255.99999999999994" cy="139.05287114845936" rx="99.69791666666669" ry="50.280462184873954" fill="rgb(0,109,223)"/></g></g><rect x="253.833" y="316.667" width="4.333" height="114.333" transform="matrix(1,0,0,1,0,0)" fill="rgb(255,255,255)"/></g></svg>