<?xml version="1.0" encoding="UTF-8" standalone="no"?><!-- Generator: Gravit.io --><svg xmlns="http://www.w3.org/2000/svg" xmlns:xlink="http://www.w3.org/1999/xlink" style="isolation:isolate" viewBox="0 0 512 512" width="512pt" height="512pt"><defs><clipPath id="_clipPath_s4ZGR90RYL2MV9vROd4x1l1H3WHaC7kX"><rect width="512" height="512"/></clipPath></defs><g clip-path="url(#_clipPath_s4ZGR90RYL2MV9vROd4x1l1H3WHaC7kX)"><rect x="0" y="0" width="512" height="512" transform="matrix(1,0,0,1,0,0)" fill="rgb(0,109,223)"/><path d=" M 23 205 L 256 95 L 256 215 L 23 325 L 23 205 Z " fill="rgb(0,109,223)" vector-effect="non-scaling-stroke" stroke-width="6" stroke="rgb(255,255,255)" stroke-linejoin="miter" stroke-linecap="square" stroke-miterlimit="3"/><path d=" M 489 205 L 256 95 L 256 215 L 489 325 L 489 205 Z " fill="rgb(0,109,223)" vector-effect="non-scaling-stroke" stroke-width="6" stroke="rgb(255,255,255)" stroke-linejoin="miter" stroke-linecap="square" stroke-miterlimit="3"/><rect x="139.5" y="233.5" width="233" height="101.5" transform="matrix(1,0,0,1,0,0)" fill="rgb(0,109,223)"/><path d=" M 256 315 L 489 205 L 489 325 L 256 435 L 256 315 Z " fill="rgb(0,109,223)" vector-effect="non-scaling-stroke" stroke-width="6" stroke="rgb(255,255,255)" stroke-linejoin="miter" stroke-linecap="square" stroke-miterlimit="3"/><path d=" M 256 315 L 23 205 L 23 325 L 256 435 L 256 315 Z " fill="rgb(0,109,223)" vector-effect="non-scaling-stroke" stroke-width="6" stroke="rgb(255,255,255)" stroke-linejoin="miter" stroke-linecap="square" stroke-miterlimit="3"/><path d=" M 360.013 205 C 357.468 233.369 311.837 256 256 256 C 200.163 256 154.532 233.369 151.987 205 L 151.875 205 L 151.875 202.5 L 151.875 139.5 L 360.125 139.5 L 360.125 202.5 L 360.125 205 L 360.013 205 Z " fill-rule="evenodd" fill="rgb(0,109,223)" vector-effect="non-scaling-stroke" stroke-width="6" stroke="rgb(255,255,255)" stroke-linejoin="miter" stroke-linecap="square" stroke-miterlimit="3"/><ellipse vector-effect="non-scaling-stroke" cx="255.99999999999994" cy="139.5" rx="104.125" ry="53.5" fill="rgb(0,109,223)" stroke-width="6" stroke="rgb(255,255,255)" stroke-linejoin="miter" stroke-linecap="square" stroke-miterlimit="3"/></g></svg>