<?xml version="1.0" encoding="UTF-8"?>
<svg xmlns="http://www.w3.org/2000/svg" viewBox="0 0 512 512" style="isolation:isolate">
  <defs>
    <clipPath id="a">
      <path d="M0 0h512v512H0z"/>
    </clipPath>
  </defs>
  <g clip-path="url(#a)">
    <path fill="#006ddf" d="M0 0h512v512H0z"/>
    <path fill="#fff" d="M256 95L23 205v120l233-110 233 110V205L256 95z"/>
    <path fill="#006ddf" d="M255 111L37 210v100h437V210l-219-99z"/>
    <path fill="#fff" d="M256 315l233-110v120l-132 62-101 48L23 325V205l233 110z"/>
    <path fill="#006ddf" d="M256 335l218-106v81L256 418 37 310v-81l219 106z"/>
    <path fill="#fff" fill-rule="evenodd" d="M360 205c-3 28-48 51-104 51s-101-23-104-51v-65h208v65z"/>
    <path fill="#006ddf" fill-rule="evenodd" d="M348 198c-2 26-43 46-93 46s-91-20-93-46v-59h186v59z"/>
    <ellipse cx="256" cy="139.5" fill="#fff" rx="104.1" ry="53.5" vector-effect="non-scaling-stroke"/>
    <ellipse cx="256" cy="139.5" fill="#006ddf" rx="93.2" ry="41.5" vector-effect="non-scaling-stroke"/>
    <path fill="#fff" d="M247 320h18v104h-18z"/>
  </g>
</svg>
