<?xml version="1.0" encoding="UTF-8" standalone="no"?>
<svg xmlns="http://www.w3.org/2000/svg" viewBox="0 0 512 512" style="isolation:isolate">
  <defs>
    <clipPath id="a">
      <path d="M0 0h512v512H0z"/>
    </clipPath>
  </defs>
  <g clip-path="url(#a)">
    <path fill="#006DDF" d="M0 0h512v512H0z"/>
    <path fill="#FFF" d="M256 95L23 205v120l233-110 233 110V205L256 95z"/>
    <path fill="#006DDF" d="M255 110.7L36.7 210v99.8h437.6V210L255 110.7z"/>
    <path fill="#FFF" d="M256 315l233-110v120l-132.3 62.5L256 435 23 325V205l233 110z"/>
    <path fill="#006DDF" d="M256 335l218.3-106.3v81L256 418.4 36.7 309.6v-81L256 335.1z"/>
    <path fill="#FFF" fill-rule="evenodd" d="M360 205c-2.5 28.4-48.2 51-104 51s-101.5-22.6-104-51h-.1v-65.5H360V205z"/>
    <path fill="#006DDF" fill-rule="evenodd" d="M348 198.3c-2.2 25.4-43 45.7-93 45.7s-90.8-20.3-93-45.7h-.2v-58.8h186.4v58.8h-.1z"/>
    <ellipse cx="256" cy="139.5" fill="#FFF" rx="104.1" ry="53.5" vector-effect="non-scaling-stroke"/>
    <ellipse cx="256" cy="139.5" fill="#006DDF" rx="93.2" ry="41.5" vector-effect="non-scaling-stroke"/>
    <path fill="#FFF" d="M246.8 320h18.4v104h-18.4z"/>
  </g>
</svg>
