<?xml version="1.0" encoding="UTF-8" standalone="no"?><!-- Generator: Gravit.io --><svg xmlns="http://www.w3.org/2000/svg" xmlns:xlink="http://www.w3.org/1999/xlink" style="isolation:isolate" viewBox="0 0 512 512" width="512pt" height="512pt"><defs><clipPath id="_clipPath_HAguiBJPoExbNbLXtpoUEIMxTaWj8QSs"><rect width="512" height="512"/></clipPath></defs><g clip-path="url(#_clipPath_HAguiBJPoExbNbLXtpoUEIMxTaWj8QSs)"><rect x="0" y="0" width="512" height="512" transform="matrix(1,0,0,1,0,0)" fill="rgb(0,109,223)"/><path d=" M 256 95 L 23 205 L 23 205 L 23 325 L 256 215 L 489 325 L 489 205 L 489 205 L 256 95 L 256 95 Z " fill="rgb(255,255,255)"/><path d=" M 255 110.667 L 36.667 210.043 L 36.667 210.043 L 36.667 309.75 L 474.333 309.75 L 474.333 210.043 L 474.333 210.043 L 255 110.667 Z " fill="rgb(0,109,223)"/><path d=" M 256 315 L 489 205 L 489 325 L 356.691 387.464 L 256 435 L 23 325 L 23 205 L 256 315 Z " fill="rgb(255,255,255)"/><path d=" M 256 335.083 L 474.333 228.75 L 474.333 309.75 L 256 418.25 L 36.667 309.75 L 36.667 228.75 L 256 335.083 Z " fill="rgb(0,109,223)"/><path d=" M 360.013 205 C 357.468 233.369 311.837 256 256 256 C 200.163 256 154.532 233.369 151.987 205 L 151.875 205 L 151.875 202.5 L 151.875 139.5 L 360.125 139.5 L 360.125 202.5 L 360.125 205 L 360.013 205 L 360.013 205 L 360.013 205 Z " fill-rule="evenodd" fill="rgb(255,255,255)"/><path d=" M 348.082 198.253 C 345.805 223.7 304.969 244 255 244 C 205.031 244 164.195 223.7 161.918 198.253 L 161.818 198.253 L 161.818 196.011 L 161.818 139.5 L 348.182 139.5 L 348.182 196.011 L 348.182 198.253 L 348.082 198.253 Z " fill-rule="evenodd" fill="rgb(0,109,223)"/><ellipse vector-effect="non-scaling-stroke" cx="255.99999999999994" cy="139.5" rx="104.125" ry="53.5" fill="rgb(255,255,255)"/><ellipse vector-effect="non-scaling-stroke" cx="255.99999999999994" cy="139.5" rx="93.18229166666669" ry="41.49999999999999" fill="rgb(0,109,223)"/><rect x="246.792" y="320" width="18.416" height="104" transform="matrix(1,0,0,1,0,0)" fill="rgb(255,255,255)"/></g></svg>