<?xml version="1.0" encoding="UTF-8"?>
<svg width="512pt" height="512pt" style="isolation:isolate" viewBox="0 0 512 512" xmlns="http://www.w3.org/2000/svg">
<defs>
<clipPath id="a">
<rect width="512" height="512"/>
</clipPath>
</defs>
<g clip-path="url(#a)">
<rect width="512" height="512" fill="#006ddf"/>
<path d="m256 95-233 110v120l233-110 233 110v-120l-233-110z" fill="#fff"/>
<path d="m255 110.67-218.33 99.376v99.707h437.67v-99.707l-219.33-99.376z" fill="#006ddf"/>
<path d="m256 315 233-110v120l-132.31 62.464-100.69 47.536-233-110v-120l233 110z" fill="#fff"/>
<path d="m256 335.08 218.33-106.33v81l-218.33 108.5-219.33-108.5v-81l219.33 106.33z" fill="#006ddf"/>
<path d="m360.01 205c-2.545 28.369-48.176 51-104.01 51s-101.47-22.631-104.01-51h-0.112v-2.5-63h208.25v63 2.5h-0.112z" fill="#fff" fill-rule="evenodd"/>
<path d="m348.08 198.25c-2.277 25.447-43.113 45.747-93.082 45.747s-90.805-20.3-93.082-45.747h-0.1v-2.242-56.511h186.36v56.511 2.242h-0.1z" fill="#006ddf" fill-rule="evenodd"/>
<ellipse cx="256" cy="139.5" rx="104.12" ry="53.5" fill="#fff" vector-effect="non-scaling-stroke"/>
<ellipse cx="256" cy="139.5" rx="93.182" ry="41.5" fill="#006ddf" vector-effect="non-scaling-stroke"/>
<rect x="246.79" y="320" width="18.416" height="104" fill="#fff"/>
</g>
</svg>
