<svg xmlns="http://www.w3.org/2000/svg" viewBox="0 0 512 512">
  <path fill="#006ddf" d="M0 0h512v512H0V0z"/>
  <path fill="#fff" d="M256 83c-74 0-104 31-104 61L23 201v120l233 110 233-110V201l-129-57c0-30-30-61-104-61zm0 9c61 0 93 24 93 48s-46 42-93 42c-51 0-93-19-93-42s32-48 93-48zm-104 68v45c3 28 48 51 104 51s101-23 104-51v-45l114 50-218 105L37 210l115-50zm10 3c17 18 52 31 94 31 40 0 75-12 92-29v33c-2 26-43 46-93 46s-91-20-93-46v-35zM37 229l210 102v83L37 315v-86zm437 0v86l-209 99v-83l209-102z"/>
</svg>