<?xml version="1.0" encoding="UTF-8" standalone="no"?><!-- Generator: Gravit.io --><svg xmlns="http://www.w3.org/2000/svg" xmlns:xlink="http://www.w3.org/1999/xlink" style="isolation:isolate" viewBox="0 0 128 128" width="128pt" height="128pt"><defs><clipPath id="_clipPath_utspJ5k2tpuO31y8UEslcrmzHCkVrx73"><rect width="128" height="128"/></clipPath></defs><g clip-path="url(#_clipPath_utspJ5k2tpuO31y8UEslcrmzHCkVrx73)"><mask id="_mask_rWUKRFtrBWtvJbxTcVaJLgOkYlHCjKQB"><circle vector-effect="non-scaling-stroke" cx="63.99999999999999" cy="63.99999999999999" r="39.60416655579072" fill="white" stroke="none"/></mask><circle vector-effect="non-scaling-stroke" cx="63.99999999999999" cy="63.99999999999999" r="39.60416655579072" fill="rgb(0,0,0)" mask="url(#_mask_rWUKRFtrBWtvJbxTcVaJLgOkYlHCjKQB)" stroke-width="4" stroke="rgb(0,0,0)" stroke-linejoin="miter" stroke-linecap="butt" stroke-miterlimit="4"/><circle vector-effect="non-scaling-stroke" cx="63.99999999999999" cy="63.99999999999999" r="39.60416655579072" fill="rgb(0,0,0)"/><mask id="_mask_VMv9iPiD6UWCUsEqP341RrnekBxPah39"><circle vector-effect="non-scaling-stroke" cx="63.99999999999998" cy="64.00000000000001" r="34.108851513869794" fill="white" stroke="none"/></mask><circle vector-effect="non-scaling-stroke" cx="63.99999999999998" cy="64.00000000000001" r="34.108851513869794" fill="rgb(255,255,255)" mask="url(#_mask_VMv9iPiD6UWCUsEqP341RrnekBxPah39)" stroke-width="4" stroke="rgb(255,255,255)" stroke-linejoin="miter" stroke-linecap="butt" stroke-miterlimit="4"/><circle vector-effect="non-scaling-stroke" cx="63.99999999999998" cy="64.00000000000001" r="34.108851513869794" fill="rgb(255,255,255)"/><path d="M 44.006 61.726 L 83.994 61.726 C 84.882 61.726 85.602 62.447 85.602 63.334 L 85.602 64.666 C 85.602 65.553 84.882 66.274 83.994 66.274 L 44.006 66.274 C 43.118 66.274 42.398 65.553 42.398 64.666 L 42.398 63.334 C 42.398 62.447 43.118 61.726 44.006 61.726 Z" style="stroke:none;fill:#000000;stroke-miterlimit:10;"/><path d="M 44.006 61.726 L 83.994 61.726 C 84.882 61.726 85.602 62.447 85.602 63.334 L 85.602 64.666 C 85.602 65.553 84.882 66.274 83.994 66.274 L 44.006 66.274 C 43.118 66.274 42.398 65.553 42.398 64.666 L 42.398 63.334 C 42.398 62.447 43.118 61.726 44.006 61.726 Z" style="fill:none;stroke:#000000;stroke-width:1;stroke-linecap:square;stroke-miterlimit:2;"/><path d="M 61.726 83.994 L 61.726 44.006 C 61.726 43.118 62.447 42.398 63.334 42.398 L 64.666 42.398 C 65.553 42.398 66.274 43.118 66.274 44.006 L 66.274 83.994 C 66.274 84.882 65.553 85.602 64.666 85.602 L 63.334 85.602 C 62.447 85.602 61.726 84.882 61.726 83.994 Z" style="stroke:none;fill:#000000;stroke-linecap:square;stroke-miterlimit:2;"/><path d="M 61.726 83.994 L 61.726 44.006 C 61.726 43.118 62.447 42.398 63.334 42.398 L 64.666 42.398 C 65.553 42.398 66.274 43.118 66.274 44.006 L 66.274 83.994 C 66.274 84.882 65.553 85.602 64.666 85.602 L 63.334 85.602 C 62.447 85.602 61.726 84.882 61.726 83.994 Z" style="fill:none;stroke:#000000;stroke-width:1;stroke-linecap:square;stroke-miterlimit:2;"/></g></svg>