<?xml version="1.0" encoding="UTF-8" standalone="no"?><!-- Generator: Gravit.io --><svg xmlns="http://www.w3.org/2000/svg" xmlns:xlink="http://www.w3.org/1999/xlink" style="isolation:isolate" viewBox="0 0 128 128" width="128pt" height="128pt"><defs><clipPath id="_clipPath_2a8tny7Lqbo7SJ0b133BCUhWUn3g9jTh"><rect width="128" height="128"/></clipPath></defs><g clip-path="url(#_clipPath_2a8tny7Lqbo7SJ0b133BCUhWUn3g9jTh)"><mask id="_mask_lxoh12IOZn1slcGFgFhPMyhNL5Vs2Erm"><circle vector-effect="non-scaling-stroke" cx="64.00000047683716" cy="64.00000047683716" r="17.416666700000004" fill="white" stroke="none"/></mask><circle vector-effect="non-scaling-stroke" cx="64.00000047683716" cy="64.00000047683716" r="17.416666700000004" fill="rgb(0,0,0)" mask="url(#_mask_lxoh12IOZn1slcGFgFhPMyhNL5Vs2Erm)" stroke-width="4" stroke="rgb(0,0,0)" stroke-linejoin="miter" stroke-linecap="butt" stroke-miterlimit="4"/><circle vector-effect="non-scaling-stroke" cx="64.00000047683716" cy="64.00000047683716" r="17.416666700000004" fill="rgb(0,0,0)"/><mask id="_mask_ftBOsQcJ0roiwlpOlDclNEfJa4zXBgYN"><circle vector-effect="non-scaling-stroke" cx="64.00000047683716" cy="64.00000047683716" r="15" fill="white" stroke="none"/></mask><circle vector-effect="non-scaling-stroke" cx="64.00000047683716" cy="64.00000047683716" r="15" fill="rgb(255,255,255)" mask="url(#_mask_ftBOsQcJ0roiwlpOlDclNEfJa4zXBgYN)" stroke-width="4" stroke="rgb(255,255,255)" stroke-linejoin="miter" stroke-linecap="butt" stroke-miterlimit="4"/><circle vector-effect="non-scaling-stroke" cx="64.00000047683716" cy="64.00000047683716" r="15" fill="rgb(255,255,255)"/><path d="M 55.207 63 L 72.793 63 C 73.183 63 73.5 63.317 73.5 63.707 L 73.5 64.293 C 73.5 64.683 73.183 65 72.793 65 L 55.207 65 C 54.817 65 54.5 64.683 54.5 64.293 L 54.5 63.707 C 54.5 63.317 54.817 63 55.207 63 Z" style="stroke:none;fill:#000000;stroke-miterlimit:10;"/><path d="M 55.207 63 L 72.793 63 C 73.183 63 73.5 63.317 73.5 63.707 L 73.5 64.293 C 73.5 64.683 73.183 65 72.793 65 L 55.207 65 C 54.817 65 54.5 64.683 54.5 64.293 L 54.5 63.707 C 54.5 63.317 54.817 63 55.207 63 Z" style="fill:none;stroke:#000000;stroke-width:1;stroke-linecap:square;stroke-miterlimit:2;"/><path d="M 63 72.793 L 63 55.207 C 63 54.817 63.317 54.5 63.707 54.5 L 64.293 54.5 C 64.683 54.5 65 54.817 65 55.207 L 65 72.793 C 65 73.183 64.683 73.5 64.293 73.5 L 63.707 73.5 C 63.317 73.5 63 73.183 63 72.793 Z" style="stroke:none;fill:#000000;stroke-linecap:square;stroke-miterlimit:2;"/><path d="M 63 72.793 L 63 55.207 C 63 54.817 63.317 54.5 63.707 54.5 L 64.293 54.5 C 64.683 54.5 65 54.817 65 55.207 L 65 72.793 C 65 73.183 64.683 73.5 64.293 73.5 L 63.707 73.5 C 63.317 73.5 63 73.183 63 72.793 Z" style="fill:none;stroke:#000000;stroke-width:1;stroke-linecap:square;stroke-miterlimit:2;"/></g></svg>