<?xml version="1.0" encoding="UTF-8" standalone="no"?><!-- Generator: Gravit.io --><svg xmlns="http://www.w3.org/2000/svg" xmlns:xlink="http://www.w3.org/1999/xlink" style="isolation:isolate" viewBox="0 0 128 128" width="128pt" height="128pt"><defs><clipPath id="_clipPath_Da2owsn41Vxj8ytXTnOgWa80OdItTPC9"><rect width="128" height="128"/></clipPath></defs><g clip-path="url(#_clipPath_Da2owsn41Vxj8ytXTnOgWa80OdItTPC9)"><mask id="_mask_qoBtlPFc9XIUedH2rTZlUhUqTBzuX7xP"><circle vector-effect="non-scaling-stroke" cx="63.999999999999986" cy="64" r="31.20833311158141" fill="white" stroke="none"/></mask><circle vector-effect="non-scaling-stroke" cx="63.999999999999986" cy="64" r="31.20833311158141" fill="rgb(0,0,0)" mask="url(#_mask_qoBtlPFc9XIUedH2rTZlUhUqTBzuX7xP)" stroke-width="4" stroke="rgb(0,0,0)" stroke-linejoin="miter" stroke-linecap="butt" stroke-miterlimit="4"/><circle vector-effect="non-scaling-stroke" cx="63.999999999999986" cy="64" r="31.20833311158141" fill="rgb(0,0,0)"/><mask id="_mask_IEn4zZt3uFGaw4Hxj5tKYpvwxXuMfcKR"><circle vector-effect="non-scaling-stroke" cx="64" cy="64.00000000000001" r="26.877990188198368" fill="white" stroke="none"/></mask><circle vector-effect="non-scaling-stroke" cx="64" cy="64.00000000000001" r="26.877990188198368" fill="rgb(255,255,255)" mask="url(#_mask_IEn4zZt3uFGaw4Hxj5tKYpvwxXuMfcKR)" stroke-width="4" stroke="rgb(255,255,255)" stroke-linejoin="miter" stroke-linecap="butt" stroke-miterlimit="4"/><circle vector-effect="non-scaling-stroke" cx="64" cy="64.00000000000001" r="26.877990188198368" fill="rgb(255,255,255)"/><path d="M 48.244 62.208 L 79.756 62.208 C 80.455 62.208 81.023 62.776 81.023 63.475 L 81.023 64.525 C 81.023 65.224 80.455 65.792 79.756 65.792 L 48.244 65.792 C 47.545 65.792 46.977 65.224 46.977 64.525 L 46.977 63.475 C 46.977 62.776 47.545 62.208 48.244 62.208 Z" style="stroke:none;fill:#000000;stroke-miterlimit:10;"/><path d="M 48.244 62.208 L 79.756 62.208 C 80.455 62.208 81.023 62.776 81.023 63.475 L 81.023 64.525 C 81.023 65.224 80.455 65.792 79.756 65.792 L 48.244 65.792 C 47.545 65.792 46.977 65.224 46.977 64.525 L 46.977 63.475 C 46.977 62.776 47.545 62.208 48.244 62.208 Z" style="fill:none;stroke:#000000;stroke-width:1;stroke-linecap:square;stroke-miterlimit:2;"/><path d="M 62.208 79.756 L 62.208 48.244 C 62.208 47.545 62.776 46.977 63.475 46.977 L 64.525 46.977 C 65.224 46.977 65.792 47.545 65.792 48.244 L 65.792 79.756 C 65.792 80.455 65.224 81.023 64.525 81.023 L 63.475 81.023 C 62.776 81.023 62.208 80.455 62.208 79.756 Z" style="stroke:none;fill:#000000;stroke-linecap:square;stroke-miterlimit:2;"/><path d="M 62.208 79.756 L 62.208 48.244 C 62.208 47.545 62.776 46.977 63.475 46.977 L 64.525 46.977 C 65.224 46.977 65.792 47.545 65.792 48.244 L 65.792 79.756 C 65.792 80.455 65.224 81.023 64.525 81.023 L 63.475 81.023 C 62.776 81.023 62.208 80.455 62.208 79.756 Z" style="fill:none;stroke:#000000;stroke-width:1;stroke-linecap:square;stroke-miterlimit:2;"/></g></svg>