<?xml version="1.0" encoding="UTF-8"?>
<svg version="1.1" viewBox="0 0 1500 576" xmlns="http://www.w3.org/2000/svg">
<g fill="#969696">
<path d="m270.49 0-170.07 406.63s189.8 0.806 189.8 0.807v33.812l83.219-63.875-80.532-75.687v32.75h-85.906l133.51-334.44h-70.023zm91.822 402.66-72.187 61.813h72.187v-61.813z"/>
<path d="m494.16 326.26h58.978l17.108-58.077h-58.978l21.16-72.034h60.328l17.558-58.978h-128.76l-96.345 327.3h126.51l22.511-62.129h-62.581l22.511-76.086z"/>
<path d="m682.94 268.18-17.108 58.077h13.956l-24.761 83.739h-22.961c-9.005 0-13.057-3.602-10.355-13.056l56.276-190.89c2.251-8.104 5.854-9.905 13.057-9.905h66.181l17.559-58.978h-108.5c-21.61 0-36.467 6.303-43.671 30.614l-69.332 235.91c-12.605 43.22 13.056 60.778 43.671 60.778h41.869l-7.203 25.662 75.635-38.268 54.025-183.69h-78.336v3e-3z"/>
<path d="m853.28 137.19c-21.61 0-36.452 6.282-43.656 30.593l-69.344 235.91c-12.605 43.22 13.042 60.781 43.657 60.781 0 0 35.193 0.01 41.874 0 41.839-0.063 62.017-4e-3 80.126-47.219 0.954-2.489 66.219-232.79 68.512-243.39 2.294-10.599 4.297-36.66-15.138-36.674-19.084-0.015-53.406 0-53.406 0h-52.625zm24.75 58.968s15.243 0.094 19.188 0c5.818 0 7.358 3.27 4.687 12.282-12.937 50.546-56.199 189.32-56.437 189.91-3.27 7.998-5.607 11.609-13.438 11.656-2.52 0.015-12.969 0-12.969 0-9.005 0-13.045-3.608-10.343-13.062l56.281-190.88c2.251-8.104 5.828-9.906 13.031-9.906z"/>
<path d="m1031 78.094h74.46l-115.69 386.38h-74.027l115.26-386.38z"/>
<path d="m988.82 0h201.99l-20.51 68.566h-207.27l25.788-68.566z"/>
<path d="m1142.3 137.19c-21.61 0-36.45 6.282-43.66 30.593l-69.34 235.91c-12.6 43.22 13.04 60.781 43.66 60.781 0 0 35.19 0.01 41.87 0 41.84-0.063 62.02-4e-3 80.13-47.219 0.95-2.489 66.22-232.79 68.51-243.39 2.29-10.599 4.3-36.66-15.14-36.674-19.08-0.015-53.4 0-53.4 0h-52.63zm24.75 58.968s15.24 0.094 19.19 0c5.82 0 7.36 3.27 4.69 12.282-12.94 50.546-56.2 189.32-56.44 189.91-3.27 7.998-5.61 11.609-13.44 11.656-2.52 0.015-12.97 0-12.97 0-9 0-13.04-3.608-10.34-13.062l56.28-190.88c2.25-8.104 5.83-9.906 13.03-9.906z"/>
<path d="m1394.7 309.15c16.66 0 26.11-9.905 28.81-19.359l32.87-111.2c6.3-21.61-3.16-41.419-32.42-41.419h-123.81l-96.34 327.3h67.98l40.97-139.56h22.51c8.1 0 9 5.853 7.2 11.256l-37.81 128.31h67.98l35.11-119.31c7.21-23.412-2.7-34.217-13.05-36.018zm-16.81-105.8-18.01 60.778c-3.15 9.905-9 12.606-15.75 12.606h-23.41l25.66-86.891h21.16c10.35 0 13.05 4.952 10.35 13.507z"/>
<path d="m215.5 78.406c-121.73 16.816-215.5 121.24-215.5 247.59-1.0172e-5 138.07 111.93 250 250 250 80.334 0 151.76-37.927 197.5-96.812h-54.156c-37.543 35.141-87.863 56.812-143.34 56.812-115.98 0-210-94.02-210-210 0-97.654 66.673-179.72 156.97-203.22l18.531-44.375zm112.28 10-14.906 37.282c53.339 16.733 97.406 54.199 123 102.91l15-50.938c-30.527-41.269-73.26-72.946-123.09-89.25z"/>
</g>
</svg>
