<svg xmlns="http://www.w3.org/2000/svg" viewBox="0 0 1500 576">
  <g fill="#969696">
    <path d="M270 0L100 407h190v34l83-64-80-75v32h-86L341 0h-71zm92 403l-72 61h72v-61zM494 326h59l17-58h-59l21-72h61l17-59H482l-97 327h127l22-62h-62l22-76zM683 268l-17 58h14l-25 84h-23c-9 0-13-4-10-13l56-191c2-8 6-10 13-10h66l18-59H666c-21 0-36 6-43 31l-70 236c-12 43 13 60 44 60h42l-7 26 75-38 54-184h-78zM853 137c-21 0-36 6-43 31l-70 236c-12 43 13 60 44 60h42c42 0 62 0 80-47l68-243c3-11 5-37-15-37H853zm25 59h19c6 0 8 3 5 12-13 51-56 190-57 190-3 8-5 12-13 12h-13c-9 0-13-4-10-13l56-191c2-8 6-10 13-10zM1031 78h74L990 464h-74l115-386zM989 0h202l-21 69H963l26-69zM1142 137c-21 0-36 6-43 31l-70 236c-12 43 13 60 44 60h42c42 0 62 0 80-47l68-243c3-11 5-37-15-37h-106zm25 59h19c6 0 8 3 5 12-13 51-56 190-57 190-3 8-5 12-13 12h-13c-9 0-13-4-10-13l56-191c2-8 6-10 13-10zM1395 309c16 0 26-10 29-19l32-111c7-22-3-42-32-42h-124l-96 327h68l41-139h22c8 0 9 6 7 11l-37 128h68l35-119c7-23-3-34-13-36zm-17-106l-18 61c-3 10-9 13-16 13h-23l25-87h22c10 0 13 5 10 13z"/>
    <path d="M216 78a250 250 0 10232 401h-55A209 209 0 0140 326c0-98 67-180 157-203l19-45zm112 10l-15 38c53 16 97 54 123 103l15-51c-31-42-73-73-123-90z"/>
  </g>
</svg>
