<?xml version="1.0" encoding="UTF-8" standalone="no"?><!-- Generator: Gravit.io --><svg xmlns="http://www.w3.org/2000/svg" xmlns:xlink="http://www.w3.org/1999/xlink" style="isolation:isolate" viewBox="0 0 1621.45 576" width="1621.45pt" height="576pt"><defs><clipPath id="_clipPath_F2DBeJhKAjSs9fxQYDKeR94ZnCjIyJdZ"><rect width="1621.45" height="576"/></clipPath></defs><g clip-path="url(#_clipPath_F2DBeJhKAjSs9fxQYDKeR94ZnCjIyJdZ)"><clipPath id="_clipPath_fKepHknbb3SqFPAhhYEliL5IZwaNdEmA"><rect x="0" y="0" width="1621.45" height="576" transform="matrix(1,0,0,1,0,0)" fill="rgb(255,255,255)"/></clipPath><g clip-path="url(#_clipPath_fKepHknbb3SqFPAhhYEliL5IZwaNdEmA)"><g><path d=" M 1258.318 9.454 L 1065.85 10.239 L 1038.015 75.766 L 1238.491 75.766 L 1258.318 9.454 L 1258.318 9.454 Z " fill-rule="evenodd" fill="rgb(191,191,191)" fill-opacity="0.9882352941176471"/><path d=" M 315.446 84.984 C 196.479 100.138 104.482 201.668 104.482 324.753 C 104.482 458.291 212.736 566.546 346.275 566.546 C 424.181 566.546 493.435 529.673 537.655 472.459 L 482.949 472.459 C 446.852 505.378 398.98 525.622 346.275 525.623 C 234.103 525.623 143.168 434.688 143.168 322.517 C 143.168 226.749 209.482 146.527 298.673 125.091 L 315.446 84.984 L 315.446 84.984 Z " fill-rule="evenodd" fill="rgb(191,191,191)" fill-opacity="0.9882352941176471"/><path d=" M 1103.754 84.984 L 992.288 458.676 L 1063.887 458.676 L 1175.779 84.984 L 1103.754 84.984 L 1103.754 84.984 Z " fill-rule="evenodd" fill="rgb(192,192,192)" fill-opacity="0.9882352941176471"/><path d=" M 751.008 142.107 C 730.107 142.107 715.752 148.214 708.785 171.727 L 641.717 399.891 C 629.526 441.692 654.33 458.676 683.94 458.676 L 724.44 458.676 L 717.489 483.49 L 790.632 446.496 L 842.889 268.838 L 767.117 268.838 L 750.585 324.994 L 764.065 324.994 L 740.127 405.995 L 717.912 405.995 C 709.203 405.995 705.295 402.506 707.908 393.362 L 762.342 208.752 C 764.519 200.914 767.979 199.171 774.945 199.171 L 838.961 199.171 L 855.946 142.107 L 751.008 142.107 L 751.008 142.107 Z " fill-rule="evenodd" fill="rgb(192,192,192)" fill-opacity="0.9882352941176471"/><path d=" M 572.352 142.138 L 479.172 458.676 L 601.519 458.676 L 623.281 398.591 L 562.771 398.591 C 562.771 398.591 584.533 324.994 584.533 324.994 L 641.566 324.994 L 658.129 268.838 L 601.096 268.838 L 621.557 199.171 L 679.89 199.171 L 696.876 142.138 L 572.352 142.138 L 572.352 142.138 Z " fill-rule="evenodd" fill="rgb(192,192,192)" fill-opacity="0.9882352941176471"/><path d=" M 1364.079 142.138 L 1270.891 458.676 L 1336.63 458.676 L 1376.255 323.695 L 1398.046 323.695 C 1405.889 323.695 1406.741 329.35 1405 334.575 L 1368.431 458.676 L 1434.17 458.676 L 1468.137 343.28 C 1475.11 320.636 1465.516 310.203 1455.506 308.462 C 1471.619 308.462 1480.759 298.866 1483.37 289.723 L 1515.171 182.185 C 1521.264 161.285 1512.124 142.137 1483.825 142.138 L 1364.079 142.138 L 1364.079 142.138 Z  M 1408.781 193.066 L 1429.237 193.066 C 1439.257 193.066 1441.888 197.849 1439.276 206.123 L 1421.838 264.909 C 1418.782 274.489 1413.134 277.119 1406.605 277.119 L 1383.964 277.119 L 1408.781 193.066 L 1408.781 193.066 Z " fill-rule="evenodd" fill="rgb(190,190,190)" fill-opacity="0.9882352941176471"/><path d=" M 931.869 142.138 C 910.969 142.138 896.614 148.214 889.646 171.727 L 822.579 399.891 C 810.387 441.692 835.193 458.676 864.802 458.676 C 864.802 458.676 898.84 458.686 905.302 458.676 C 945.768 458.615 965.283 458.673 982.797 413.007 C 983.721 410.6 1046.826 187.871 1049.05 177.621 C 1051.265 167.371 1053.219 142.152 1034.417 142.138 C 1015.963 142.124 982.767 142.138 982.767 142.138 L 931.869 142.138 L 931.869 142.138 Z  M 955.807 199.171 C 955.807 199.171 970.55 199.262 974.365 199.171 C 979.992 199.171 981.482 202.333 978.898 211.05 C 966.386 259.936 924.544 394.159 924.314 394.722 C 921.151 402.457 918.891 405.95 911.317 405.995 C 908.88 406.01 898.774 405.995 898.774 405.995 C 890.064 405.995 886.157 402.506 888.77 393.362 L 943.204 208.752 C 945.381 200.914 948.84 199.171 955.807 199.171 Z " fill-rule="evenodd" fill="rgb(193,193,193)" fill-opacity="0.9882352941176471"/><path d=" M 1211.381 142.138 C 1190.48 142.138 1176.128 148.214 1169.164 171.727 L 1102.09 399.891 C 1089.904 441.692 1114.702 458.676 1144.317 458.676 C 1144.317 458.676 1178.352 458.686 1184.813 458.676 C 1225.279 458.615 1244.797 458.673 1262.312 413.007 C 1263.231 410.6 1326.339 187.871 1328.564 177.621 C 1330.779 167.371 1332.732 142.152 1313.931 142.138 C 1295.477 142.124 1262.283 142.138 1262.283 142.138 L 1211.381 142.138 L 1211.381 142.138 Z  M 1235.319 199.171 C 1235.319 199.171 1250.068 199.262 1253.879 199.171 C 1259.508 199.171 1260.997 202.333 1258.415 211.05 C 1245.9 259.936 1204.06 394.159 1203.827 394.722 C 1200.665 402.457 1198.402 405.95 1190.829 405.995 C 1188.391 406.01 1178.284 405.995 1178.284 405.995 C 1169.58 405.995 1165.672 402.506 1168.284 393.362 L 1222.716 208.752 C 1224.892 200.914 1228.355 199.171 1235.319 199.171 Z " fill-rule="evenodd" fill="rgb(190,190,190)" fill-opacity="0.9882352941176471"/><path d=" M 388.323 403.515 L 388.323 436.221 L 468.793 374.44 L 390.918 301.233 L 390.918 332.903 L 307.85 332.903 L 459.853 9.454 L 386.248 9.454 L 196.834 403.515 L 388.323 403.515 L 388.323 403.515 L 388.323 403.515 Z " fill="rgb(191,191,191)" fill-opacity="0.9882352941176471"/><path d=" M 457.186 458.676 L 457.186 398.873 L 387.378 458.676 L 457.186 458.676 L 457.186 458.676 L 457.186 458.676 Z " fill="rgb(192,192,192)" fill-opacity="0.9882352941176471"/></g></g></g></svg>