<?xml version="1.0" encoding="UTF-8" standalone="no"?><!-- Generator: Gravit.io --><svg xmlns="http://www.w3.org/2000/svg" xmlns:xlink="http://www.w3.org/1999/xlink" style="isolation:isolate" viewBox="0 0 512 512" width="512pt" height="512pt"><defs><clipPath id="_clipPath_kk2nqwbgDofmoA4TT2eWtcJ6nTzQF1hM"><rect width="512" height="512"/></clipPath></defs><g clip-path="url(#_clipPath_kk2nqwbgDofmoA4TT2eWtcJ6nTzQF1hM)"><clipPath id="_clipPath_SWwjacAayuxygOslGnYqvg2QX0DiTzzw"><rect x="0" y="0" width="512" height="512" transform="matrix(1,0,0,1,0,0)" fill="rgb(255,255,255)"/></clipPath><g clip-path="url(#_clipPath_SWwjacAayuxygOslGnYqvg2QX0DiTzzw)"><g><path d=" M 99.839 0 L 412.157 0 C 467.26 0 511.996 44.736 511.996 99.839 L 511.996 412.157 C 511.996 467.26 467.26 511.996 412.157 511.996 L 99.839 511.996 C 44.736 511.996 0 467.26 0 412.157 L 0 99.839 C 0 44.736 44.736 0 99.839 0 Z  M 311.722 453.785 L 311.722 486.616 L 392.5 424.599 L 314.327 351.111 L 314.327 382.903 L 230.941 382.903 L 383.526 58.215 L 309.639 58.215 L 119.5 453.785 L 311.722 453.785 L 311.722 453.785 L 311.722 453.785 Z " fill-rule="evenodd" fill="rgb(0,0,0)"/></g></g></g></svg>