<?xml version="1.0" encoding="UTF-8" standalone="no"?> <!-- Created with Vectornator for iOS (http://vectornator.io/) --><!DOCTYPE svg PUBLIC "-//W3C//DTD SVG 1.1//EN" "http://www.w3.org/Graphics/SVG/1.1/DTD/svg11.dtd">
<svg style="fill-rule:evenodd;clip-rule:evenodd;stroke-linecap:round;stroke-linejoin:round;" xmlns:vectornator="http://vectornator.io" xmlns:xlink="http://www.w3.org/1999/xlink" xmlns="http://www.w3.org/2000/svg" xml:space="preserve" version="1.1" viewBox="0 0 640 640">
<metadata>
<vectornator:setting key="DisplayWhiteBackground" value="0"/>
<vectornator:setting key="RulersVisible" value="1"/>
<vectornator:setting key="GridSpacing" value="36"/>
<vectornator:setting key="Units" value="Pixels"/>
<vectornator:setting key="DynamicGuides" value="1"/>
<vectornator:setting key="SnapToPoints" value="0"/>
<vectornator:setting key="SnapToGrid" value="0"/>
<vectornator:setting key="SnapToGuides" value="1"/>
<vectornator:setting key="ShowGrid" value="1"/>
<vectornator:setting key="SnapToEdges" value="1"/>
</metadata>
<defs/>
<g id="Layer 2" vectornator:layerName="Layer 2">
<path d="M119.156+0C53.4475+0-5.08626e-06+53.4475+0+119.156L0+520.844C0+586.552+53.4475+640+119.156+640L520.844+640C586.551+640+640+586.553+640+520.844L640+119.156C640+53.4475+586.551-5.08626e-06+520.844+0L119.156+0ZM338.656+57.5625L402.469+57.5625L280.812+362.312L359.094+362.312L359.094+332.469L432.469+401.438L356.656+459.625L356.656+428.844C356.656+428.844+183.719+428.094+183.719+428.094L338.656+57.5625ZM288.562+129.031L271.688+169.469C189.411+190.884+128.656+265.644+128.656+354.625C128.656+460.305+214.32+545.969+320+545.969C425.679+545.969+511.344+460.305+511.344+354.625C511.344+268.923+454.946+196.459+377.281+172.094L390.875+138.125C481.973+167.929+547.813+253.57+547.812+354.625C547.812+480.434+445.809+582.438+320+582.438C194.191+582.437+92.1875+480.434+92.1875+354.625C92.1875+239.49+177.641+144.353+288.562+129.031ZM422.344+424.469L422.344+480.781L356.562+480.781L422.344+424.469Z" opacity="1" fill="#000000"/>
</g>
</svg>
