<?xml version="1.0" encoding="UTF-8" standalone="no"?><!-- Generator: Gravit.io --><svg xmlns="http://www.w3.org/2000/svg" xmlns:xlink="http://www.w3.org/1999/xlink" style="isolation:isolate" viewBox="0 0 512 512" width="512pt" height="512pt"><defs><clipPath id="_clipPath_sDQQFAtITSqhseJIggpGiRVZMnMVM7Wg"><rect width="512" height="512"/></clipPath></defs><g clip-path="url(#_clipPath_sDQQFAtITSqhseJIggpGiRVZMnMVM7Wg)"><path d=" M 94.653 0 L 417.347 0 C 469.588 0 512 42.412 512 94.653 L 512 417.347 C 512 469.588 469.588 512 417.347 512 L 94.653 512 C 42.412 512 0 469.588 0 417.347 L 0 94.653 C 0 42.412 42.412 0 94.653 0 Z  M 310.871 434.599 L 310.871 466.928 L 390.415 405.859 L 313.436 333.494 L 313.436 364.799 L 231.323 364.799 L 381.578 45.072 L 308.82 45.072 L 121.585 434.599 L 310.871 434.599 L 310.871 434.599 Z " fill-rule="evenodd" fill="rgb(0,0,0)"/></g></svg>