<?xml version="1.0" encoding="UTF-8"?>
<svg viewBox="0 0 640 640" xmlns="http://www.w3.org/2000/svg">
<path d="m119.16 0c-65.708 0-119.16 53.448-119.16 119.16v401.69c0 65.708 53.448 119.16 119.16 119.16h401.69c65.707 0 119.16-53.447 119.16-119.16v-401.69c0-65.708-53.449-119.16-119.16-119.16h-401.69zm219.5 57.562h63.813l-121.66 304.75h78.282v-29.843l73.375 68.969-75.813 58.187v-30.781l-172.94-0.75 154.94-370.53zm-50.094 71.468-16.874 40.438c-82.277 21.415-143.03 96.175-143.03 185.16 0 105.68 85.664 191.34 191.34 191.34 105.68 0 191.34-85.664 191.34-191.34 0-85.702-56.398-158.17-134.06-182.53l13.594-33.969c91.098 29.804 156.94 115.44 156.94 216.5 0 125.81-102 227.81-227.81 227.81-125.81-1e-3 -227.81-102-227.81-227.81 0-115.14 85.454-210.27 196.37-225.59z"/>
</svg>
