<?xml version="1.0" encoding="UTF-8" standalone="no"?> <!-- Created with Vectornator for iOS (http://vectornator.io/) --><!DOCTYPE svg PUBLIC "-//W3C//DTD SVG 1.1//EN" "http://www.w3.org/Graphics/SVG/1.1/DTD/svg11.dtd">
<svg style="fill-rule:evenodd;clip-rule:evenodd;stroke-linecap:round;stroke-linejoin:round;" xmlns:vectornator="http://vectornator.io" xmlns:xlink="http://www.w3.org/1999/xlink" xmlns="http://www.w3.org/2000/svg" xml:space="preserve" version="1.1" viewBox="0 0 407 407">
<metadata>
<vectornator:setting key="DynamicGuides" value="1"/>
<vectornator:setting key="Units" value="Points"/>
<vectornator:setting key="GridSpacing" value="36"/>
<vectornator:setting key="SnapToGuides" value="1"/>
<vectornator:setting key="RulersVisible" value="1"/>
</metadata>
<defs>
<linearGradient y1="94.0887" id="LinearGradient" x1="129.2" y2="283.207" x2="278.3" gradientUnits="userSpaceOnUse" gradientTransform="matrix(1 0 0 -1 0 407.207)">
<stop stop-color="#e6e6e6" offset="0"/>
<stop stop-color="#f7f7f7" offset="0.5963"/>
<stop stop-color="#fefefe" offset="1"/>
</linearGradient>
</defs>
<g id="g15" vectornator:layerName="g15">
<path d="M400.9+202.3C400.9+92.3+313.8+5.1+203.7+5.1C93.7+5.2+6.6+92.3+6.6+202.3C6.6+312.3+93.7+399.5+203.8+399.5C313.9+399.5+400.9+312.4+400.9+202.3Z" opacity="1" fill="url(#LinearGradient)"/>
</g>
<g id="g27" vectornator:layerName="g27">
<path d="M223.7+137.8L223.9+137.8L223.9+144.7L231.8+144.7L231.8+116.2C231.8+114.1+231.4+112.3+230.6+110.6C229.8+108.9+228.7+107.5+227.2+106.3C225.7+105.1+224+104.2+221.9+103.6C219.8+103+217.6+102.6+215+102.6C212.7+102.6+210.5+102.9+208.5+103.6C206.5+104.2+204.8+105.1+203.3+106.3C201.8+107.5+200.7+108.8+199.8+110.4C198.9+112+198.5+113.7+198.4+115.5L206.2+115.5C206.4+114.6+206.7+113.8+207.2+113.1C207.7+112.4+208.3+111.7+209+111.2C209.7+110.7+210.6+110.3+211.6+110C212.6+109.7+213.6+109.6+214.7+109.6C217.5+109.6+219.6+110.2+221.2+111.5C222.7+112.7+223.5+114.6+223.5+117L223.5+120.2L212.3+120.8C207.1+121.1+203.2+122.3+200.5+124.4C197.8+126.5+196.4+129.3+196.4+133C196.4+134.9+196.7+136.6+197.4+138.1C198.1+139.6+199.1+140.9+200.3+142C201.5+143.1+203+143.9+204.7+144.5C206.4+145.1+208.3+145.4+210.4+145.4C211.8+145.4+213.2+145.2+214.5+144.9C215.8+144.6+217.1+144.1+218.2+143.4C219.3+142.8+220.3+142+221.3+141.1C222.3+139.9+223.1+138.9+223.7+137.8ZM220.5+135.8C219.5+136.6+218.4+137.3+217.1+137.8C215.8+138.3+214.3+138.5+212.8+138.5C210.4+138.5+208.5+138+207.1+136.9C205.7+135.8+205+134.4+205+132.6C205+130.8+205.7+129.3+207.2+128.3C208.6+127.3+210.8+126.7+213.7+126.5L223.8+125.8L223.8+129C223.8+130.4+223.5+131.6+223+132.8C222.2+134+221.5+135+220.5+135.8Z" opacity="1" fill="#515151"/>
<path d="M278.5+228.7L264.8+225.3C248.1+221.1+241.2+215.6+241.2+206.4C241.2+194.7+252.1+186.6+267.9+186.6C283.7+186.6+294.4+194.6+295.6+207.6L313.5+207.6C312.8+186+294.5+170.9+268.3+170.9C241.5+170.9+222.6+185.9+222.6+207.4C222.6+224.9+233.2+235.6+256.7+241.4L273+245.4C289.7+249.6+296.9+255.8+296.9+266C296.9+277.8+285+286.4+268.5+286.4C251.3+286.4+238.7+277.8+237.3+264.7L219.3+264.7C220.6+287.5+239.5+302+267.2+302C296.9+302+315.6+287.3+315.6+263.7C315.3+245.3+304.6+235+278.5+228.7Z" opacity="1" fill="#515151"/>
<path d="M187.7+144.7L187.7+116.4C187.7+114.3+187.4+112.4+186.7+110.8C186+109.2+185.2+107.7+184+106.5C182.8+105.3+181.4+104.4+179.7+103.7C178+103+176.2+102.7+174.1+102.7C172.6+102.7+171.2+102.9+169.9+103.3C168.6+103.7+167.3+104.2+166.2+104.9C165.1+105.6+164.1+106.5+163.2+107.4C162.3+108.3+161.6+109.5+161.1+110.8L160.9+110.8C160.1+108.2+158.6+106.2+156.6+104.8C154.6+103.4+152.1+102.7+149.2+102.7C147.9+102.7+146.6+102.9+145.3+103.2C144.1+103.5+143+104+141.9+104.7C140.9+105.4+140+106.1+139.2+107.1C138.4+108+137.8+109.1+137.3+110.2L137.1+110.2L137.1+103.2L129.2+103.2L129.2+144.8L137+144.8L137+119.3C137+118+137.7+116.7+138.1+115.6C138.5+114.5+139.1+113.5+139.9+112.6C140.7+111.8+141.6+111.1+142.7+110.6C143.8+110.1+145+109.9+146.2+109.9C147.4+109.9+148.5+110.1+149.5+110.5C150.5+110.9+151.3+111.4+152+112.1C152.7+112.8+153.2+113.6+153.6+114.6C154+115.6+154.2+116.7+154.2+117.8L154.2+144.8L162.4+144.8L162.4+119C162.4+117.7+162.6+116.4+163.1+115.3C163.5+114.2+164.1+113.2+164.9+112.4C165.7+111.6+166.6+111+167.6+110.5C168.7+110.1+169.8+109.8+171.1+109.8C173.7+109.8+175.7+110.6+177.1+112C178.5+113.5+179.2+115.6+179.2+118.3L179.2+144.6L187.7+144.7Z" opacity="1" fill="#515151"/>
<path d="M147.4+170.9C111.1+170.9+88.3+196.2+88.3+236.5C88.3+276.8+111.1+302.1+147.4+302.1C183.7+302.1+206.5+276.8+206.5+236.5C206.4+196.2+183.7+170.9+147.4+170.9ZM147.4+285.9C122.5+285.9+106.9+266.8+106.9+236.5C106.9+206.1+122.5+187+147.4+187C172.2+187+187.9+206.1+187.9+236.5C187.8+266.8+172.2+285.9+147.4+285.9Z" opacity="1" fill="#515151"/>
<path d="M252.1+113.5C253.1+112.3+254.2+111.3+255.6+110.6C257+109.9+258.5+109.6+260.2+109.6C261.6+109.6+262.9+109.8+264+110.2C265.1+110.6+266.1+111.1+267+111.8C267.8+112.5+268.5+113.3+269+114.3C269.5+115.3+269.9+116.3+270.1+117.4L278+117.4C277.8+115.4+277.3+113.5+276.4+111.7C275.5+109.9+274.3+108.4+272.8+107C271.3+105.7+269.4+104.6+267.3+103.8C265.2+103+262.8+102.6+260.1+102.6C257.2+102.6+254.5+103.1+252.1+104.1C249.7+105.1+247.7+106.5+246+108.4C244.3+110.3+243+112.5+242.1+115.1C241.2+117.7+240.7+120.6+240.7+123.9C240.7+127.2+241.2+130.2+242.1+132.8C243+135.4+244.4+137.7+246.1+139.5C247.8+141.3+249.9+142.7+252.3+143.7C254.7+144.7+257.4+145.2+260.3+145.2C262.8+145.2+265.1+144.8+267.2+144.2C269.3+143.6+271.1+142.5+272.7+141.3C274.2+140+275.5+138.5+276.5+136.7C277.5+134.9+278.1+132.9+278.3+130.8L270.4+130.8C269.9+133.3+268.8+135.1+267.1+136.4C265.4+137.7+263.2+138.3+260.5+138.3C258.8+138.3+257.3+138+255.9+137.3C254.5+136.7+253.3+135.7+252.4+134.5C251.4+133.3+250.7+131.8+250.1+130C249.6+128.2+249.3+126.2+249.3+124C249.3+121.8+249.6+119.9+250.1+118.1C250.4+116.2+251.1+114.7+252.1+113.5Z" opacity="1" fill="#515151"/>
</g>
</svg>
