<svg xmlns="http://www.w3.org/2000/svg" xmlns:xlink="http://www.w3.org/1999/xlink" viewBox="-10 -10 420 420">
  <linearGradient id="a" x1="204" x2="204" y1="402" y2="8" gradientUnits="userSpaceOnUse">
    <stop offset="0" stop-color="#F2F2F2"/>
    <stop offset="1" stop-color="#FEFEFE"/>
  </linearGradient>
<filter id="f" width="114%" height="114%" x="-7%" y="0%">
      <feMorphology in="SourceAlpha" operator="dilate" radius="1" result="shadowSpreadOuter1"/>
      <feOffset dy="2" in="shadowSpreadOuter1" result="shadowOffsetOuter1"/>
      <feGaussianBlur in="shadowOffsetOuter1" result="shadowBlurOuter1" stdDeviation="2"/>
      <feComposite in="shadowBlurOuter1" in2="SourceAlpha" operator="out" result="shadowBlurOuter1"/>
      <feColorMatrix in="shadowBlurOuter1" values="0 0 0 0 0 0 0 0 0 0 0 0 0 0 0 0 0 0 .4 0"/>
    </filter>
 <circle fill="#515151" id="b" cx="200" cy="201" r="198"/>
 <use fill="#000" filter="url(#f)" xlink:href="#b"/>
  <path fill="url(#a)" d="M220 133v-4l-10 1c-3 0-9 1-9 6s6 6 8 6c10 0 11-8 11-9zM200 0C89 0 0 88 0 200s89 200 200 200c112 0 200-88 200-200S312 0 200 0zm57 106c16 0 18 13 19 15h-8c-1-2-2-8-10-8-2 0-12 1-12 14 0 14 10 15 12 15 7 0 9-5 10-8h8c-1 3-3 15-18 15-3 0-20-2-20-22s16-21 19-21zm-132 0h8v8s3-8 12-8c8 0 11 5 12 8 0 0 3-8 13-8 13 0 14 12 14 14v29h-8v-27c0-3-1-9-9-9s-8 8-8 9v27h-9v-28c0-1 0-8-8-8-7 0-9 8-9 10v26h-8v-43zm18 202c-37 0-60-25-60-66s23-67 60-67 60 26 60 67-23 66-60 66zm64-159c-2 0-14-1-14-13 0-10 11-12 16-12l11-1c0-7-1-10-8-10-8 0-9 5-9 6h-8c0-2 2-13 17-13 16 0 17 12 17 14v29h-8v-7s-4 7-14 7zm57 159c-28 0-47-15-48-38h18c2 14 14 22 32 22 17 0 29-8 29-20 0-11-8-17-25-21l-16-4c-24-6-35-17-35-35 0-22 19-37 47-37 26 0 45 15 46 37h-19c-1-13-12-21-28-21s-27 8-27 20c0 9 7 15 24 19l14 4c27 6 37 17 37 35 0 24-18 39-49 39zM143 192c-25 0-41 19-41 50 0 30 16 50 41 50s41-20 41-50c0-31-16-50-41-50z"/>
</svg>