<svg xmlns="http://www.w3.org/2000/svg" viewBox="0 0 400 400">
  <linearGradient id="a" x1="204" x2="204" y1="8" y2="402" gradientTransform="matrix(1 0 0 -1 0 407)" gradientUnits="userSpaceOnUse">
    <stop offset="0" stop-color="#F2F2F2"/>
    <stop offset="1" stop-color="#FEFEFE"/>
  </linearGradient>
  <circle cx="204" cy="202" r="150" fill="#515151"/>
  <path fill="url(#a)" d="M220.2 132.7v-3.3l-10.3.7c-2.9.2-5 .8-6.5 1.9a5 5 0 00-2.2 4.3 5 5 0 002.1 4.3 9.6 9.6 0 005.9 1.7c1.5 0 3-.3 4.3-.8 1.4-.4 2.5-1 3.5-2a9 9 0 003.2-6.8zM200 0C88 0 0 88 0 200s88 200 200 200 200-88 200-200S312 0 200 0zm38.8 118.5c1-2.6 2.3-4.9 4-6.8a20.4 20.4 0 0114.3-5.9 19.3 19.3 0 0112.9 4.5 15.5 15.5 0 015.3 10.5h-8a14 14 0 00-1-3.1c-.6-1-1.3-1.8-2.1-2.5a9.6 9.6 0 00-3-1.7 11.7 11.7 0 00-8.6.5 9 9 0 00-3.5 2.9c-1 1.2-1.8 2.8-2.3 4.6-.6 1.8-.8 3.8-.8 6s.2 4.3.8 6c.5 1.9 1.3 3.4 2.3 4.6a10 10 0 003.6 2.9 11.9 11.9 0 0011.3-1 9 9 0 003.4-5.6h8a16 16 0 01-5.6 10.6 17 17 0 01-5.5 3c-2.2.7-4.5 1-7 1-3 0-5.7-.5-8.2-1.5a17.5 17.5 0 01-10.3-11 28.3 28.3 0 010-18zm-114.2-12.1h8v7.1h.2a11.9 11.9 0 014.6-5.5c1-.7 2.2-1.2 3.4-1.6a14.5 14.5 0 0111.4 1.6c2 1.4 3.5 3.5 4.4 6.1h.2a12.7 12.7 0 015.1-6 16 16 0 0113.7-1.2c1.7.7 3.2 1.6 4.4 2.8a14.8 14.8 0 013.7 10.1v28.7h-8.4v-26.7a9 9 0 00-2.1-6.4 8 8 0 00-6.1-2.3c-1.3 0-2.5.3-3.6.7a8.1 8.1 0 00-4.6 4.9c-.4 1-.6 2.3-.6 3.7v26.1H150v-27.4c0-1.2-.2-2.3-.6-3.3a7 7 0 00-4.2-4.1 9.5 9.5 0 00-6.9.2 8.5 8.5 0 00-4.7 5c-.4 1.1-1 2.4-1 3.8v25.8h-8v-42.1zm18.2 201.8c-36.8 0-60-25.6-60-66.5s23.2-66.6 60-66.6c36.9 0 60 25.7 60 66.6 0 40.9-23.1 66.5-60 66.5zm68.3-159.8a17.7 17.7 0 01-10-.4c-1.7-.5-3.2-1.4-4.5-2.5a11.4 11.4 0 01-3.9-9c0-3.7 1.3-6.6 4.1-8.7a22 22 0 0112-3.7l11.4-.6v-3.3c0-2.4-.8-4.3-2.4-5.5a10 10 0 00-6.5-2 11.3 11.3 0 00-5.8 1.7 7 7 0 00-2.9 4.4h-7.9a11.5 11.5 0 015-9.2c1.5-1.2 3.2-2.1 5.2-2.8a23.1 23.1 0 0113.6 0c2 .7 3.9 1.6 5.3 2.8a12.4 12.4 0 014.7 10v29h-8v-7h-.3a12.7 12.7 0 01-5.3 5.3c-1.2.7-2.5 1.2-3.8 1.5zm53 159.8c-28 0-47.2-14.7-48.5-37.8h18.3c1.4 13.2 14.2 22 31.7 22 16.7 0 28.8-8.8 28.8-20.8 0-10.3-7.3-16.6-24.3-20.9l-16.5-4c-23.7-6-34.5-16.8-34.5-34.5 0-22 19-37.1 46.3-37.1 26.6 0 45.2 15.3 45.9 37.2H293c-1.2-13.2-12-21.3-28-21.3s-27.1 8.2-27.1 20c0 9.4 7 15 23.9 19.3l14 3.4c26.4 6.5 37.3 17 37.3 35.7 0 23.9-18.9 38.8-49 38.8zM143 192c-20 0-41 19-41 50 0 30 16 50 41 50s41-20 41-50c0-31-20-50-41-50z"/>
</svg>