<?xml version="1.0" encoding="UTF-8"?>
<svg xmlns="http://www.w3.org/2000/svg" viewBox="0 0 407 407">
  <linearGradient id="a" x1="203.7" x2="203.7" y1="7.7" y2="402" gradientTransform="matrix(1 0 0 -1 0 407.2)" gradientUnits="userSpaceOnUse">
    <stop offset="0" stop-color="#F2F2F2"/>
    <stop offset=".6" stop-color="#F7F7F7"/>
    <stop offset="1" stop-color="#FEFEFE"/>
  </linearGradient>
  <path fill="url(#a)" d="M400.9 202.3c0-110-87.1-197.2-197.2-197.2C93.7 5.2 6.6 92.3 6.6 202.3s87.1 197.2 197.2 197.2 197.1-87.1 197.1-197.2z"/>
  <path fill="#515151" d="M223.7 137.8h.2v6.9h7.9v-28.5c0-2.1-.4-3.9-1.2-5.6s-1.9-3.1-3.4-4.3-3.2-2.1-5.3-2.7a24.4 24.4 0 00-13.4 0 15.1 15.1 0 00-8.7 6.8c-.9 1.6-1.3 3.3-1.4 5.1h7.8c.2-.9.5-1.7 1-2.4s1.1-1.4 1.8-1.9 1.6-.9 2.6-1.2 2-.4 3.1-.4c2.8 0 4.9.6 6.5 1.9 1.5 1.2 2.3 3.1 2.3 5.5v3.2l-11.2.6c-5.2.3-9.1 1.5-11.8 3.6s-4.1 4.9-4.1 8.6c0 1.9.3 3.6 1 5.1s1.7 2.8 2.9 3.9 2.7 1.9 4.4 2.5a17 17 0 0013.5-1.1c1.1-.6 2.1-1.4 3.1-2.3a21 21 0 002.4-3.3zm-3.2-2c-1 .8-2.1 1.5-3.4 2s-2.8.7-4.3.7c-2.4 0-4.3-.5-5.7-1.6s-2.1-2.5-2.1-4.3.7-3.3 2.2-4.3a13 13 0 016.5-1.8l10.1-.7v3.2c0 1.4-.3 2.6-.8 3.8-.8 1.2-1.5 2.2-2.5 3zm58 92.9l-13.7-3.4c-16.7-4.2-23.6-9.7-23.6-18.9 0-11.7 10.9-19.8 26.7-19.8s26.5 8 27.7 21h17.9c-.7-21.6-19-36.7-45.2-36.7-26.8 0-45.7 15-45.7 36.5 0 17.5 10.6 28.2 34.1 34l16.3 4c16.7 4.2 23.9 10.4 23.9 20.6 0 11.8-11.9 20.4-28.4 20.4-17.2 0-29.8-8.6-31.2-21.7h-18c1.3 22.8 20.2 37.3 47.9 37.3 29.7 0 48.4-14.7 48.4-38.3-.3-18.4-11-28.7-37.1-35zm-90.8-84v-28.3a14 14 0 00-3.7-9.9c-1.2-1.2-2.6-2.1-4.3-2.8s-3.5-1-5.6-1a15.3 15.3 0 00-7.9 2.2c-1.1.7-2.1 1.6-3 2.5s-1.6 2.1-2.1 3.4h-.2c-.8-2.6-2.3-4.6-4.3-6s-4.5-2.1-7.4-2.1c-1.3 0-2.6.2-3.9.5a11.4 11.4 0 00-6.1 3.9c-.8.9-1.4 2-1.9 3.1h-.2v-7h-7.9v41.6h7.8v-25.5c0-1.3.7-2.6 1.1-3.7s1-2.1 1.8-3a8.4 8.4 0 016.3-2.7c1.2 0 2.3.2 3.3.6s1.8.9 2.5 1.6 1.2 1.5 1.6 2.5.6 2.1.6 3.2v27h8.2V119a9 9 0 01.7-3.7c.4-1.1 1-2.1 1.8-2.9s1.7-1.4 2.7-1.9a10 10 0 013.5-.7c2.6 0 4.6.8 6 2.2a8.9 8.9 0 012.1 6.3v26.3zm-40.3 26.2c-36.3 0-59.1 25.3-59.1 65.6s22.8 65.6 59.1 65.6 59.1-25.3 59.1-65.6c-.1-40.3-22.8-65.6-59.1-65.6zm0 115c-24.9 0-40.5-19.1-40.5-49.4 0-30.4 15.6-49.5 40.5-49.5 24.8 0 40.5 19.1 40.5 49.5-.1 30.3-15.7 49.4-40.5 49.4zm104.7-172.4c1-1.2 2.1-2.2 3.5-2.9s2.9-1 4.6-1a10.8 10.8 0 016.8 2.2c.8.7 1.5 1.5 2 2.5s.9 2 1.1 3.1h7.9a16.2 16.2 0 00-5.2-10.4 18.5 18.5 0 00-12.7-4.4c-2.9 0-5.6.5-8 1.5s-4.4 2.4-6.1 4.3-3 4.1-3.9 6.7-1.4 5.5-1.4 8.8.5 6.3 1.4 8.9 2.3 4.9 4 6.7 3.8 3.2 6.2 4.2 5.1 1.5 8 1.5c2.5 0 4.8-.4 6.9-1s3.9-1.7 5.5-2.9a15 15 0 005.6-10.5h-7.9c-.5 2.5-1.6 4.3-3.3 5.6s-3.9 1.9-6.6 1.9a10 10 0 01-8.1-3.8c-1-1.2-1.7-2.7-2.3-4.5a22.3 22.3 0 010-11.9c.3-1.9 1-3.4 2-4.6z"/>
</svg>
