<svg xmlns="http://www.w3.org/2000/svg" viewBox="0 0 1000 1000">
  <linearGradient id="a" x1="500" x2="500" y1="1000" y2="20" gradientUnits="userSpaceOnUse">
    <stop offset="0" stop-color="#F2F2F2"/>
    <stop offset="1" stop-color="#FEFEFE"/>
  </linearGradient>
  <circle cx="500" cy="500" r="450" fill="#515151"/>
  <path fill="url(#a)" d="M551 332v-8l-26 1c-7 1-22 3-22 16s14 15 20 15c25 0 28-21 28-24zM500 0A496 496 0 000 500c0 279 221 500 500 500s500-221 500-500S779 0 500 0zm143 265c40 0 45 32 46 37h-20c-1-3-4-20-26-20-4 0-28 3-28 37 0 33 24 36 29 36 19 0 24-13 25-19h20c-1 5-6 37-46 37-7 0-49-5-49-54 0-50 42-54 49-54zm-331 1h20v18s8-19 30-19c20 0 28 14 30 20 0 0 8-20 33-20 31 0 35 29 35 35v71h-21v-66c0-7-2-22-21-22-20-1-22 20-22 23v65h-21v-68c0-3 0-21-20-20-19 1-23 20-23 24v64h-20V266zm45 505c-92 0-150-65-150-167s58-166 150-166 150 64 150 166-58 167-150 167zm161-399c-6 0-36-2-36-31 0-26 27-30 40-31l29-1v-8c0-6-3-20-23-19-19 0-21 13-21 15h-20c0-5 5-32 42-32 29 0 37 16 39 20s3 9 3 14v72h-20v-17s-8 18-33 18zm143 399c-71 0-119-37-122-95h46c3 33 35 55 79 55 42 0 72-22 72-52 0-26-18-42-60-52l-42-10c-59-15-86-42-86-87 0-54 48-92 116-92 66 0 113 38 114 93h-45c-3-33-30-54-70-54s-68 21-68 51c0 23 18 37 60 48l35 8c66 16 93 43 93 89 0 60-47 98-122 98zM357 479c-63 0-102 48-102 125s39 125 102 125 103-48 103-125-40-125-103-125z"/>
</svg>