<?xml version="1.0" encoding="UTF-8" standalone="no"?><!-- Generator: Gravit.io --><svg xmlns="http://www.w3.org/2000/svg" xmlns:xlink="http://www.w3.org/1999/xlink" style="isolation:isolate" viewBox="0 0 128 128" width="128pt" height="128pt"><defs><clipPath id="_clipPath_Gv2VTnnSltBPrUznsbKgw0u6TxntTyi8"><rect width="128" height="128"/></clipPath></defs><g clip-path="url(#_clipPath_Gv2VTnnSltBPrUznsbKgw0u6TxntTyi8)"><mask id="_mask_D0AXhZGrZacJCNlGNqEgqvYB8nRFBvSK"><circle vector-effect="non-scaling-stroke" cx="64.00000047683716" cy="64.00000047683716" r="17.416666700000004" fill="white" stroke="none"/></mask><circle vector-effect="non-scaling-stroke" cx="64.00000047683716" cy="64.00000047683716" r="17.416666700000004" fill="rgb(0,0,0)" mask="url(#_mask_D0AXhZGrZacJCNlGNqEgqvYB8nRFBvSK)" stroke-width="4" stroke="rgb(0,0,0)" stroke-linejoin="miter" stroke-linecap="butt" stroke-miterlimit="4"/><circle vector-effect="non-scaling-stroke" cx="64.00000047683716" cy="64.00000047683716" r="17.416666700000004" fill="rgb(0,0,0)"/><mask id="_mask_cvB53spApoR3tHWqhkYVtF0UJhsFDbzR"><circle vector-effect="non-scaling-stroke" cx="64.00000047683716" cy="64.00000047683716" r="15" fill="white" stroke="none"/></mask><circle vector-effect="non-scaling-stroke" cx="64.00000047683716" cy="64.00000047683716" r="15" fill="rgb(255,255,255)" mask="url(#_mask_cvB53spApoR3tHWqhkYVtF0UJhsFDbzR)" stroke-width="4" stroke="rgb(255,255,255)" stroke-linejoin="miter" stroke-linecap="butt" stroke-miterlimit="4"/><circle vector-effect="non-scaling-stroke" cx="64.00000047683716" cy="64.00000047683716" r="15" fill="rgb(255,255,255)"/><path d="M 55.207 63 L 72.793 63 C 73.183 63 73.5 63.317 73.5 63.707 L 73.5 64.293 C 73.5 64.683 73.183 65 72.793 65 L 55.207 65 C 54.817 65 54.5 64.683 54.5 64.293 L 54.5 63.707 C 54.5 63.317 54.817 63 55.207 63 Z" style="stroke:none;fill:#000000;stroke-miterlimit:10;"/><path d="M 55.207 63 L 72.793 63 C 73.183 63 73.5 63.317 73.5 63.707 L 73.5 64.293 C 73.5 64.683 73.183 65 72.793 65 L 55.207 65 C 54.817 65 54.5 64.683 54.5 64.293 L 54.5 63.707 C 54.5 63.317 54.817 63 55.207 63 Z" style="fill:none;stroke:#000000;stroke-width:1;stroke-linecap:square;stroke-miterlimit:2;"/></g></svg>