<?xml version="1.0" encoding="UTF-8"?>
<svg viewBox="0 0 48 48" xmlns="http://www.w3.org/2000/svg" xmlns:xlink="http://www.w3.org/1999/xlink">
<defs>
<linearGradient id="a">
<stop stop-color="#fff" offset="0"/>
<stop stop-color="#fff" stop-opacity=".165" offset="1"/>
</linearGradient>
<linearGradient id="f" x1="94.693" x2="94.693" y1="112.51" y2="64.053" gradientTransform="matrix(.35388 0 0 .35388 -17.38 -19.412)" gradientUnits="userSpaceOnUse" xlink:href="#a"/>
<linearGradient id="e" x1="59.728" x2="142.62" y1="102" y2="102" gradientTransform="matrix(.35388 0 0 .35388 -17.38 -19.412)" gradientUnits="userSpaceOnUse">
<stop stop-color="#3778ae" offset="0"/>
<stop stop-color="#366c99" offset="1"/>
</linearGradient>
<linearGradient id="d" x1="94.693" x2="94.693" y1="112.51" y2="64.053" gradientTransform="matrix(.35388 0 0 .35388 -6.297 -7.9454)" gradientUnits="userSpaceOnUse" xlink:href="#a"/>
<linearGradient id="c" x1="119.19" x2="116.96" y1="89.13" y2="169.28" gradientTransform="matrix(.35388 0 0 .35388 -16.39 -17.997)" gradientUnits="userSpaceOnUse">
<stop stop-color="#ffe253" offset="0"/>
<stop stop-color="#ffca1c" offset="1"/>
</linearGradient>
<radialGradient id="b" cx="15.115" cy="63.965" r="12.289" gradientTransform="matrix(1.6 0 0 .55175 -.18398 4.8358)" gradientUnits="userSpaceOnUse">
<stop offset="0"/>
<stop stop-opacity="0" offset="1"/>
</radialGradient>
</defs>
<path d="m43.662 40.129a19.662 6.7805 0 0 1-39.324 0 19.662 6.7805 0 1 1 39.324 0z" fill="url(#b)"/>
<path d="m34.08 37.58c0 2.7319-2.371 4.1156-4.7774 4.8057-3.6202 1.0404-6.5255 0.8811-9.5511 0-2.5268-0.7362-4.7774-2.2402-4.7774-4.8057v-9.0132c0-2.594 2.1621-4.8092 4.7774-4.8092l9.3984-0.6111c3.1814 0 5.2606-1.9858 5.2606-5.245l0.8655-4.3569h3.5813c2.7814 0 4.0909 2.0667 4.7774 4.8056 0.9555 3.8043 0.9978 6.6495 0 9.615-0.9661 2.8805-2 4.8056-4.7774 4.8056h-4.7773-9.5512v-0.02c8.2424 0.02 9.5512-3.3164 9.5512 4.8281z" fill="url(#c)"/>
<path d="m28.11 38.178c0-0.9944 0.8033-1.8013 1.7906-1.8013 1 0 1.7906 0.8069 1.7906 1.8013 0 0.9979-0.7997 1.8047-1.7906 1.8047-0.9873 0-1.7906-0.8068-1.7906-1.8047z" fill="#fff"/>
<path d="m35.266 13.544v4.2265c-3.4111 5.9969-9.8912 6.0086-15.327 6.0086l-2.017 0.2052c-2.8342 2.4364-2.9244 6.3463-2.9223 9.7756 6.2502-6.9742 12.917-7.5004 16.244-7.4854 6.6377 0.029 9.7638-1.6029 12.934-5.1939-0.016-0.07 0.016-0.132 0-0.2037-0.1222-0.8-0.3362-1.6544-0.5601-2.546-0.3218-1.2839-0.7428-2.4141-1.4257-3.2589-0.016-0.016-0.038-0.034-0.051-0.05h-0.05c-0.023-0.028-0.028-0.075-0.05-0.1011-0.047-0.034-0.052-0.07-0.101-0.101-0.016-0.016-0.039 0.016-0.05 0-0.7241-0.4693-1.6036-0.8195-2.4952-0.9676-0.8081-0.1336-1.6192-0.2354-2.4442-0.3055h-0.5092-1.1711z" fill="url(#d)" opacity=".837"/>
<path d="m34.559 37.579c0 2.732-2.8497 4.116-5.256 4.806-3.62 1.04-6.525 0.881-9.551 0-2.527-0.736-4.801-2.24-4.805-4.805l-0.016-9.258c-0.01-3.073 2.302-5.01 4.849-5l8.4667 0.015c3.25 0 6.41-3.3 6.401-6.55v-3.237h4.21c2.7814 0 4.09 2.067 4.777 4.806 0.956 3.804 1 6.649 0 9.615-0.966 2.88-2 5.1476-4.777 5.148h-4.3-10.03v-0.02l10.03 0.034z" fill="none" stroke="#bb9400" stroke-width="1.63"/>
<path d="m35.465 14.358v2.3933c0 3.7245-3.4965 7.3757-7.4809 7.3757h-8.2491c-2.8506 0-4.0184 2.1569-4.0042 4.4379l0.056 9.0129c0.01 1.0446 0.4 1.8235 1.148 2.4951 0.748 0.6715 1.8726 1.183 3.0553 1.5277 2.9164 0.8492 5.576 1.0022 9.0638 0 1.1327-0.3248 2.6394-0.9401 3.3976-1.5964 0.7581-0.6565 1.3077-1.2961 1.3077-2.4264v-3.6298h-10.052v-1.6795l15.174 0.05c1.2008 0 1.788-0.4724 2.3844-1.1633 0.5964-0.691 1.1149-2.0469 1.5874-3.456 0.9456-2.8096 0.9336-5.4491 0-9.1658-0.3252-1.2978-0.7976-2.3461-1.4257-3.0552-0.628-0.7091-1.357-1.1202-2.5461-1.1202zm1.6294 1.6294h1.7867c0.5202 0 1.1993 0.4194 1.324 0.5602 0.3625 0.4093 0.78 1.2386 1.0694 2.3932 0.8895 3.5416 0.8915 5.7515 0.05 8.2491-0.4517 1.347-0.9205 2.6142-1.2729 3-0.3184 0.3395-1 0.5093-1.1713 0.5093l-4.7865-0.051h-12.017v4.9384h10.052v2c0 0.727-0.9733 1.1789-1.1408 1.3239-0.4872 0.4219-1.3508 0.8359-2.3423 1.1202-3.223 0.9264-5.5 0.7859-8.1984 0-1.0211-0.2975-1.9061-0.7339-2.4069-1.1595s-0.5316-0.7741-0.6238-1.285l-0.056-9.0129c-0.013-2.0224 0.6457-2.8084 2.3748-2.8084h8.2491c4.9233 0 9.1103-4.3502 9.1103-9.0052 1e-4 -0.2574-1e-4 -0.5149-1e-4 -0.7723z" fill="#fff" opacity=".384"/>
<path d="m13.985 7.3199c0-2.7319 0.7324-4.2182 4.7772-4.926 2.7462-0.4813 6.2673-0.5414 9.5513 0 2.5939 0.4282 4.7774 2.3604 4.7774 4.926v9.0134c0 2.6434-2.1198 4.8091-4.7774 4.8091l-8.6621 0.4788c-3.2414 0-6.589 2.8321-6.589 5.957l-0.2736 3.777h-3.284c-2.7779 0-4.3951-2.0029-5.0745-4.8056-0.9166-3.7651-0.8776-6.0088 0-9.6147 0.7608-3.1461 3.192-4.8058 5.7-4.8058h3.5848s8.9448-0.035 0-0.032v-4.7771z" fill="url(#e)"/>
<path d="m16.373 6.7218c0-1 0.8-1.8048 1.7906-1.8048 0.9873 0 1.7907 0.8068 1.7907 1.8048 0 0.9944-0.8034 1.8012-1.7907 1.8012-0.9908 0-1.7906-0.8068-1.7906-1.8012z" fill="#fff"/>
<path d="m22.717 1.9955c-1.4134 0.0342-2.7704 0.1968-3.9718 0.4073-4.0448 0.7078-4.7355 2.2074-4.7355 4.9393l-0.2952 4.787-3.3203-3e-4c-2.7779 0-5.1968 1.6406-5.9576 4.7864-0.5165 2.1225-0.7504 3.7842-0.6621 5.5504 6.2924-7.1319 13.044-7.6531 16.396-7.638 6.6376 0.029 9.7637-1.6029 12.934-5.1939v-2.2914c0-2.5655-2.1926-4.511-4.7865-4.9392-1.8472-0.3048-3.7841-0.4516-5.6013-0.4076z" fill="url(#f)" opacity=".377"/>
<path d="m18.696 2.6271c3.6201-1.0404 6.5255-0.8811 9.551 0 2.5268 0.7361 4.7787 2.24 4.7774 4.8057v9.7315c0 1.3662-1.9746 4.5293-4.7726 4.5293h-8.8988c-2.4983 0-5.997 2.7217-5.997 5.981v3.7937h-4.21c-2.7815 0-4.0909-2.0667-4.7774-4.8058-0.9555-3.8041-1-6.6493 0-9.6148 0.9661-2.8806 2-5.1477 4.7774-5.1477h4.2985 10.03v0.019l-10.03-0.034 0.019-4.8733c-0.026-1.9965 2.4146-3.5524 5.2323-4.3845z" fill="none" stroke="#274e70" stroke-width="1.63"/>
<path d="m12.534 30.654v-2.796c0-3.7246 3.3953-7.0287 7.0461-7.0287h8.6839c2.1549 0 4.024-2.2411 4.0042-4.3821l-0.0834-9.013c-0.0097-1.0445-0.3722-1.8235-1.1203-2.4951-0.7479-0.6716-1.8726-1.1831-3.0552-1.5276-2.9166-0.8494-5.5762-1.0023-9.0639 0-1.1326 0.3248-2.6396 0.94-3.3976 1.5964-0.7582 0.6564-1.3076 1.296-1.3076 2.4263v3.6298h10.052v1.6804l-15.174-0.051c-1.2 0-1.788 0.4724-2.3844 1.1634-0.5964 0.6908-1.1149 2.0467-1.5874 3.4559-0.9456 2.8096-0.9335 5.449 0 9.1657 0.3252 1.2978 0.7976 2.3461 1.4258 3.0552 0.628 0.7092 1.357 1.1203 2.546 1.1203h3.4162zm-1.6295-1.6295h-1.7867c-0.52 0-1.2-0.4194-1.3239-0.56-0.3626-0.4094-0.7801-1.2388-1.0695-2.3934-0.8895-3.5415-0.8914-5.7513-0.0505-8.2491 0.4517-1.3468 0.9205-2.6141 1.273-2.9899 0.3184-0.3393 0.9909-0.5092 1.1712-0.5092l16.804 0.051v-4.9394h-10.052v-2c0-0.727 0.9732-1.1789 1.1407-1.3239 0.4873-0.4219 1.3509-0.8359 2.3424-1.12 3.2229-0.9262 5.5-0.7858 8.1983 0 1.0212 0.2975 1.9061 0.7339 2.3932 1.1712 0.1733 0.1352 0.2646 0.2973 0.4078 0.4582 0.1987 0.237 0.1552 0.55023 0.2011 0.8147v9.013c0 1.2357-1.0565 2.7527-2.2913 2.7527h-8.6839c-4.5897 0-8.6756 4.0029-8.6756 8.6581v1.166z" fill="#fff" opacity=".165"/>
</svg>
