<?xml version="1.0" encoding="UTF-8"?>
<svg xmlns="http://www.w3.org/2000/svg" xmlns:xlink="http://www.w3.org/1999/xlink" viewBox="0 0 48 48">
  <defs>
    <linearGradient id="a">
      <stop offset="0" stop-color="#fff"/>
      <stop offset="1" stop-color="#fff" stop-opacity=".17"/>
    </linearGradient>
    <linearGradient id="f" x1="94.69" x2="94.69" y1="112.51" y2="64.05" gradientTransform="translate(-17.38 -19.41) scale(.35388)" gradientUnits="userSpaceOnUse" xlink:href="#a"/>
    <linearGradient id="e" x1="59.73" x2="142.62" y1="102" y2="102" gradientTransform="translate(-17.38 -19.41) scale(.35388)" gradientUnits="userSpaceOnUse">
      <stop offset="0" stop-color="#3778ae"/>
      <stop offset="1" stop-color="#366c99"/>
    </linearGradient>
    <linearGradient id="d" x1="94.69" x2="94.69" y1="112.51" y2="64.05" gradientTransform="translate(-6.3 -7.95) scale(.35388)" gradientUnits="userSpaceOnUse" xlink:href="#a"/>
    <linearGradient id="c" x1="119.19" x2="116.96" y1="89.13" y2="169.28" gradientTransform="translate(-16.39 -18) scale(.35388)" gradientUnits="userSpaceOnUse">
      <stop offset="0" stop-color="#ffe253"/>
      <stop offset="1" stop-color="#ffca1c"/>
    </linearGradient>
    <radialGradient id="b" cx="15.12" cy="63.97" r="12.29" gradientTransform="matrix(1.6 0 0 .55175 -.18 4.84)" gradientUnits="userSpaceOnUse">
      <stop offset="0"/>
      <stop offset="1" stop-opacity="0"/>
    </radialGradient>
  </defs>
  <path fill="url(#b)" d="M43.66 40.13a19.66 6.78 0 01-39.32 0 19.66 6.78 0 1139.32 0z"/>
  <path fill="url(#c)" d="M34.08 37.58c0 2.73-2.37 4.12-4.78 4.8a16.15 16.15 0 01-9.55 0c-2.53-.73-4.78-2.23-4.78-4.8v-9.01c0-2.6 2.17-4.81 4.78-4.81l9.4-.61c3.18 0 5.26-1.99 5.26-5.25l.87-4.36h3.58c2.78 0 4.09 2.07 4.77 4.81.96 3.8 1 6.65 0 9.62-.96 2.88-2 4.8-4.77 4.8H24.53v-.02c8.24.02 9.55-3.32 9.55 4.83z"/>
  <path fill="#fff" d="M28.11 38.18a1.8 1.8 0 113.58 0 1.79 1.79 0 11-3.58 0z"/>
  <path fill="url(#d)" d="M35.27 13.54v4.23c-3.42 6-9.9 6-15.33 6l-2.02.21C15.1 26.42 15 30.33 15 33.76c6.25-6.97 12.92-7.5 16.24-7.49 6.64.03 9.77-1.6 12.94-5.19-.02-.07.01-.13 0-.2-.12-.8-.34-1.66-.56-2.55a8.4 8.4 0 00-1.43-3.26l-.05-.05h-.05l-.05-.1c-.05-.03-.05-.07-.1-.1-.02-.02-.04.02-.05 0a6.7 6.7 0 00-2.5-.97c-.8-.13-1.61-.23-2.44-.3h-1.68z" opacity=".84"/>
  <path fill="none" stroke="#bb9400" stroke-width="1.63" d="M34.56 37.58c0 2.73-2.85 4.12-5.26 4.8a16.16 16.16 0 01-9.55 0c-2.53-.73-4.8-2.24-4.8-4.8l-.02-9.26a4.8 4.8 0 014.85-5l8.47.02c3.25 0 6.4-3.3 6.4-6.55v-3.24h4.2c2.79 0 4.1 2.07 4.78 4.8.96 3.81 1 6.65 0 9.62-.96 2.88-2 5.15-4.77 5.15H24.53v-.02l10.03.03z"/>
  <path fill="#fff" d="M35.47 14.36v2.4c0 3.72-3.5 7.37-7.49 7.37h-8.24c-2.86 0-4.02 2.15-4 4.43l.05 9.02a3.2 3.2 0 001.14 2.5A8.06 8.06 0 0020 41.6c2.92.85 5.58 1 9.06 0a10.3 10.3 0 003.4-1.6c.76-.65 1.3-1.3 1.3-2.42v-3.63H23.72v-1.68l15.17.05c1.2 0 1.79-.47 2.39-1.16.6-.7 1.11-2.05 1.58-3.46.95-2.81.94-5.45 0-9.17a7.28 7.28 0 00-1.42-3.05 3.1 3.1 0 00-2.55-1.12zm1.62 1.63h1.8c.51 0 1.19.42 1.32.56.36.4.78 1.24 1.06 2.4.9 3.53.9 5.74.05 8.24-.45 1.35-.92 2.61-1.27 3-.32.34-1 .5-1.17.5l-4.79-.04H22.08v4.94h10.05v2c0 .72-.97 1.18-1.14 1.32-.49.42-1.35.84-2.34 1.12-3.23.93-5.5.79-8.2 0-1.02-.3-1.9-.73-2.41-1.16s-.53-.77-.62-1.28l-.06-9.02c-.01-2.02.65-2.8 2.38-2.8h8.24c4.93 0 9.11-4.36 9.11-9.01v-.77z" opacity=".38"/>
  <path fill="url(#e)" d="M13.98 7.32c0-2.73.74-4.22 4.78-4.93 2.75-.48 6.27-.54 9.55 0 2.6.43 4.78 2.36 4.78 4.93v9.01a4.79 4.79 0 01-4.78 4.81l-8.66.48c-3.24 0-6.59 2.83-6.59 5.96l-.27 3.78H9.5c-2.77 0-4.39-2-5.07-4.81-.92-3.77-.88-6 0-9.62.76-3.14 3.2-4.8 5.7-4.8h3.59s8.94-.04 0-.03V7.32z"/>
  <path fill="#fff" d="M16.37 6.72a1.8 1.8 0 113.58 0 1.79 1.79 0 11-3.58 0z"/>
  <path fill="url(#f)" d="M22.72 2c-1.42.03-2.77.2-3.97.4C14.7 3.11 14 4.61 14 7.34l-.3 4.79h-3.3a5.93 5.93 0 00-5.95 4.79 18.7 18.7 0 00-.67 5.55c6.3-7.14 13.05-7.66 16.4-7.64 6.64.03 9.76-1.6 12.93-5.2V7.34c0-2.56-2.19-4.5-4.78-4.94a30.4 30.4 0 00-5.6-.4z" opacity=".38"/>
  <path fill="none" stroke="#274e70" stroke-width="1.63" d="M18.7 2.63a16.15 16.15 0 019.55 0c2.52.73 4.78 2.24 4.77 4.8v9.73c0 1.37-1.97 4.53-4.77 4.53h-8.9c-2.5 0-6 2.73-6 5.98v3.8h-4.2c-2.79 0-4.1-2.07-4.78-4.8-.96-3.81-1-6.66 0-9.62.96-2.88 2-5.15 4.78-5.15h14.32v.02l-10.03-.04.02-4.87c-.02-2 2.42-3.55 5.24-4.38z"/>
  <path fill="#fff" d="M12.53 30.65v-2.8a7.3 7.3 0 017.05-7.02h8.68c2.16 0 4.03-2.24 4-4.38l-.08-9.02a3.17 3.17 0 00-1.12-2.5 8.06 8.06 0 00-3.05-1.52 15.1 15.1 0 00-9.06 0 10.3 10.3 0 00-3.4 1.6c-.76.65-1.31 1.3-1.31 2.42v3.63h10.05v1.68L9.12 12.7c-1.2 0-1.79.48-2.39 1.17-.6.69-1.11 2.04-1.58 3.45-.95 2.81-.94 5.45 0 9.17.32 1.3.8 2.34 1.42 3.05a3.1 3.1 0 002.55 1.12h3.41zm-1.63-1.63H9.12a2.4 2.4 0 01-1.33-.56 6.04 6.04 0 01-1.07-2.39c-.89-3.54-.89-5.75-.05-8.25.46-1.34.92-2.61 1.28-2.99.32-.34.99-.5 1.17-.5l16.8.04V9.43H15.87v-2c0-.72.97-1.17 1.14-1.32A6.55 6.55 0 0119.35 5c3.23-.93 5.5-.79 8.2 0 1.02.3 1.9.73 2.4 1.17.17.14.26.3.4.46.2.24.16.55.2.81v9.02c0 1.23-1.05 2.75-2.29 2.75h-8.68c-4.6 0-8.68 4-8.68 8.66v1.16z" opacity=".17"/>
</svg>
