<?xml version="1.0" standalone="no"?><!-- Generator: Gravit.io --><svg xmlns="http://www.w3.org/2000/svg" xmlns:xlink="http://www.w3.org/1999/xlink" style="isolation:isolate" viewBox="0 0 256 256" width="256" height="256"><defs><clipPath id="_clipPath_bWNGlYTurz6liu6kmmDrpbxD5veJ1s5V"><rect width="256" height="256"/></clipPath></defs><g clip-path="url(#_clipPath_bWNGlYTurz6liu6kmmDrpbxD5veJ1s5V)"><rect x="0" y="0" width="256" height="256" transform="matrix(1,0,0,1,0,0)" fill="rgb(255,255,255)"/><path d=" M 203.779 216.73 L 142.262 216.73 L 114.852 165.692 C 112.096 164.727 109.081 164.815 106.386 165.938 L 106.386 216.435 L 52.221 216.435 L 52.221 40.725 C 54.235 38.744 56.544 39.35 58.64 39.383 C 83.725 39.628 108.826 38.695 133.96 40.005 C 140.774 40.332 147.537 41.341 154.149 43.018 C 178.039 49.174 193.922 63.534 197.639 88.406 C 201.487 114.114 196.001 136.808 172.275 151.856 C 171.358 152.445 170.491 153.1 169.639 153.772 C 169.459 153.903 169.377 154.214 169.066 154.787 L 203.779 216.73 Z  M 106.665 124.478 C 112.887 124.478 118.307 124.478 123.726 124.478 C 125.373 124.47 127.015 124.328 128.639 124.053 C 137.775 122.53 142.688 116.734 143.293 107.122 C 143.965 96.446 139.675 89.111 130.685 86.966 C 122.76 85.148 114.672 86.278 106.73 86.245 L 106.665 124.478 Z " fill="rgb(4,154,254)"/></g></svg>