<?xml version="1.0" encoding="UTF-8"?>
<svg viewBox="0 0 256 256" xmlns="http://www.w3.org/2000/svg">
<rect width="256" height="256" fill="#fff"/>
<path d="m203.78 216.73h-61.517l-27.41-51.038c-2.756-0.965-5.771-0.877-8.466 0.246v50.497h-54.165v-175.71c2.014-1.981 4.323-1.375 6.419-1.342 25.085 0.245 50.186-0.688 75.32 0.622 6.814 0.327 13.577 1.336 20.189 3.013 23.89 6.156 39.773 20.516 43.49 45.388 3.848 25.708-1.638 48.402-25.364 63.45-0.917 0.589-1.784 1.244-2.636 1.916-0.18 0.131-0.262 0.442-0.573 1.015l34.713 61.943zm-97.114-92.252h17.061c1.647-8e-3 3.289-0.15 4.913-0.425 9.136-1.523 14.049-7.319 14.654-16.931 0.672-10.676-3.618-18.011-12.608-20.156-7.925-1.818-16.013-0.688-23.955-0.721l-0.065 38.233z" fill="#049afe"/>
</svg>
