<?xml version="1.0" encoding="UTF-8" standalone="no"?><!DOCTYPE svg PUBLIC "-//W3C//DTD SVG 1.1//EN" "http://www.w3.org/Graphics/SVG/1.1/DTD/svg11.dtd"><svg width="100%" height="100%" viewBox="0 0 28 28" version="1.1" xmlns="http://www.w3.org/2000/svg" xmlns:xlink="http://www.w3.org/1999/xlink" xml:space="preserve" style="fill-rule:evenodd;clip-rule:evenodd;stroke-linejoin:round;stroke-miterlimit:1.41421;"><g id="build"><circle id="circle" cx="14" cy="14" r="14" style="fill:#d70000;"/><path id="brick" d="M21,10c0.553,0.001 1,0.449 1,1l0,7c0,0.552 -0.448,1 -1,1l-14,0c-0.552,0 -1,-0.448 -1,-1l0,-7c0,-0.551 0.447,-0.999 1,-1l14,0ZM12,7c0.553,0.001 1,0.449 1,1l0,1l-5,0l0,-1c0,-0.551 0.447,-0.999 1,-1l3,0ZM19,7c0.553,0.001 1,0.449 1,1l0,1l-5,0l0,-1c0,-0.551 0.447,-0.999 1,-1l3,0Z" style="fill:#fff;"/></g></svg>