<svg viewBox="0 0 280 330" xmlns="http://www.w3.org/2000/svg" xmlns:xlink="http://www.w3.org/1999/xlink">
  <defs>
    <filter id="aw" x="-.11" y="-.11" width="1.22" height="1.22" color-interpolation-filters="sRGB">
      <feGaussianBlur stdDeviation="3.92"/>
    </filter>
    <filter id="ax" color-interpolation-filters="sRGB">
      <feGaussianBlur stdDeviation="2.44"/>
    </filter>
    <filter id="az" color-interpolation-filters="sRGB">
      <feGaussianBlur stdDeviation=".37"/>
    </filter>
    <filter id="at" x="-.1" y="-.04" width="1.2" height="1.09" color-interpolation-filters="sRGB">
      <feGaussianBlur stdDeviation="1.13"/>
    </filter>
    <filter id="ao" x="-.07" y="-.15" width="1.14" height="1.3" color-interpolation-filters="sRGB">
      <feGaussianBlur stdDeviation="1.03"/>
    </filter>
    <filter id="ar" x="-.07" y="-.15" width="1.14" height="1.3" color-interpolation-filters="sRGB">
      <feGaussianBlur stdDeviation="1.03"/>
    </filter>
    <filter id="ak" x="-.2" y="-.23" width="1.4" height="1.47" color-interpolation-filters="sRGB">
      <feGaussianBlur stdDeviation="2.84"/>
    </filter>
    <filter id="al" x="-.09" y="-.11" width="1.18" height="1.21" color-interpolation-filters="sRGB">
      <feGaussianBlur stdDeviation="1.3"/>
    </filter>
    <filter id="ai" x="-.47" y="-.27" width="1.94" height="1.55" color-interpolation-filters="sRGB">
      <feGaussianBlur stdDeviation=".86"/>
    </filter>
    <filter id="ah" x="-.6" y="-.48" width="2.21" height="1.96" color-interpolation-filters="sRGB">
      <feGaussianBlur stdDeviation="2.64"/>
    </filter>
    <filter id="Y" color-interpolation-filters="sRGB">
      <feGaussianBlur stdDeviation="2.21"/>
    </filter>
    <filter id="ac" x="-.15" y="-.14" width="1.29" height="1.29" color-interpolation-filters="sRGB">
      <feGaussianBlur stdDeviation="4.78"/>
    </filter>
    <filter id="ae" x="-.12" y="-.12" width="1.23" height="1.25" color-interpolation-filters="sRGB">
      <feGaussianBlur stdDeviation="3.17"/>
    </filter>
    <filter id="ag" x="-.02" y="-.13" width="1.04" height="1.26" color-interpolation-filters="sRGB">
      <feGaussianBlur stdDeviation=".48"/>
    </filter>
    <filter id="W" x="-.18" y="-.16" width="1.36" height="1.32" color-interpolation-filters="sRGB">
      <feGaussianBlur stdDeviation=".9"/>
    </filter>
    <filter id="V" x="-.82" y="-.06" width="2.63" height="1.12" color-interpolation-filters="sRGB">
      <feGaussianBlur stdDeviation="1.45"/>
    </filter>
    <filter id="U" color-interpolation-filters="sRGB">
      <feGaussianBlur stdDeviation=".79"/>
    </filter>
    <filter id="S" color-interpolation-filters="sRGB">
      <feGaussianBlur stdDeviation="1.14"/>
    </filter>
    <filter id="Q" color-interpolation-filters="sRGB">
      <feGaussianBlur stdDeviation=".64"/>
    </filter>
    <filter id="O" x="-.12" y="-.04" width="1.24" height="1.08" color-interpolation-filters="sRGB">
      <feGaussianBlur stdDeviation="1.35"/>
    </filter>
    <filter id="B" x="-.15" y="-.21" width="1.31" height="1.43" color-interpolation-filters="sRGB">
      <feGaussianBlur stdDeviation=".9"/>
    </filter>
    <filter id="C" color-interpolation-filters="sRGB">
      <feGaussianBlur stdDeviation=".76"/>
    </filter>
    <filter id="E" x="-.16" y="-.13" width="1.32" height="1.26" color-interpolation-filters="sRGB">
      <feGaussianBlur stdDeviation=".85"/>
    </filter>
    <filter id="G" color-interpolation-filters="sRGB">
      <feGaussianBlur stdDeviation=".11"/>
    </filter>
    <filter id="I" x="-.12" y="-.11" width="1.23" height="1.21" color-interpolation-filters="sRGB">
      <feGaussianBlur stdDeviation=".11"/>
    </filter>
    <filter id="K" x="-.11" y="-.14" width="1.21" height="1.27" color-interpolation-filters="sRGB">
      <feGaussianBlur stdDeviation=".26"/>
    </filter>
    <filter id="z" x="-.23" y="-.15" width="1.47" height="1.29" color-interpolation-filters="sRGB">
      <feGaussianBlur stdDeviation=".51"/>
    </filter>
    <filter id="x" color-interpolation-filters="sRGB">
      <feGaussianBlur stdDeviation=".13"/>
    </filter>
    <filter id="v" color-interpolation-filters="sRGB">
      <feGaussianBlur stdDeviation=".15"/>
    </filter>
    <filter id="p" x="-.16" y="-.21" width="1.32" height="1.42" color-interpolation-filters="sRGB">
      <feGaussianBlur stdDeviation=".25"/>
    </filter>
    <filter id="r" x="-.18" y="-.18" width="1.36" height="1.36" color-interpolation-filters="sRGB">
      <feGaussianBlur stdDeviation=".52"/>
    </filter>
    <filter id="o" x="-.29" y="-.31" width="1.58" height="1.62" color-interpolation-filters="sRGB">
      <feGaussianBlur stdDeviation="1.74"/>
    </filter>
    <filter id="m" x="-.05" y="-.11" width="1.11" height="1.21" color-interpolation-filters="sRGB">
      <feGaussianBlur stdDeviation="1.36"/>
    </filter>
    <filter id="j" color-interpolation-filters="sRGB">
      <feGaussianBlur stdDeviation=".93"/>
    </filter>
    <filter id="i" x="-.08" y="-.13" width="1.15" height="1.26" color-interpolation-filters="sRGB">
      <feGaussianBlur stdDeviation="2.04"/>
    </filter>
    <linearGradient id="a">
      <stop stop-color="#3e2a06" offset="0"/>
      <stop stop-color="#ad780a" offset="1"/>
    </linearGradient>
    <linearGradient id="c" x1="442.04" x2="490.12" y1="371.54" y2="293.59" gradientTransform="matrix(.87491 0 0 .81149 60.37 62.59)" gradientUnits="userSpaceOnUse" xlink:href="#a"/>
    <linearGradient id="b" x1="442.04" x2="490.12" y1="371.54" y2="293.59" gradientUnits="userSpaceOnUse" xlink:href="#a"/>
    <linearGradient id="h">
      <stop offset="0"/>
      <stop stop-opacity=".25" offset="1"/>
    </linearGradient>
    <linearGradient id="g">
      <stop stop-color="#3a2903" offset="0"/>
      <stop stop-color="#735208" offset=".55"/>
      <stop stop-color="#ac8c04" offset="1"/>
    </linearGradient>
    <linearGradient id="f">
      <stop stop-color="#646464" stop-opacity="0" offset="0"/>
      <stop stop-color="#646464" stop-opacity=".58" offset=".31"/>
      <stop stop-color="#646464" offset=".47"/>
      <stop stop-color="#646464" stop-opacity=".26" offset=".73"/>
      <stop stop-color="#646464" stop-opacity="0" offset="1"/>
    </linearGradient>
    <linearGradient id="q" x1="213.02" x2="219.73" y1="132.77" y2="140.72" gradientTransform="translate(90)" gradientUnits="userSpaceOnUse">
      <stop stop-color="#949494" stop-opacity=".39" offset="0"/>
      <stop stop-color="#949494" offset=".5"/>
      <stop stop-color="#949494" stop-opacity=".39" offset="1"/>
    </linearGradient>
    <linearGradient id="t" x1="337.25" x2="358.62" y1="119.99" y2="132.49" gradientTransform="translate(-250)" gradientUnits="userSpaceOnUse">
      <stop stop-color="#747474" offset="0"/>
      <stop stop-color="#8c8c8c" offset=".13"/>
      <stop stop-color="#a4a4a4" offset=".25"/>
      <stop stop-color="#d4d4d4" offset=".5"/>
      <stop stop-color="#d4d4d4" offset=".62"/>
      <stop stop-color="#7c7c7c" offset="1"/>
    </linearGradient>
    <linearGradient id="u" x1="294.51" x2="308.74" y1="114.56" y2="128" gradientTransform="translate(-279 -9)" gradientUnits="userSpaceOnUse" xlink:href="#f"/>
    <linearGradient id="w" x1="253.23" x2="266.63" y1="115.67" y2="128.57" gradientTransform="translate(-279 -9)" gradientUnits="userSpaceOnUse" xlink:href="#f"/>
    <linearGradient id="y" x1="164.05" x2="169.88" y1="132.06" y2="142.49" gradientUnits="userSpaceOnUse">
      <stop stop-color="#757574" stop-opacity="0" offset="0"/>
      <stop stop-color="#757574" offset=".26"/>
      <stop stop-color="#757574" offset=".5"/>
      <stop stop-color="#757574" stop-opacity="0" offset="1"/>
    </linearGradient>
    <linearGradient id="D" x1="256.86" x2="313.34" y1="158.31" y2="157.87" gradientTransform="translate(-210)" gradientUnits="userSpaceOnUse">
      <stop stop-color="#ad780a" offset="0"/>
      <stop stop-color="#d89e08" offset=".12"/>
      <stop stop-color="#edb80b" offset=".26"/>
      <stop stop-color="#ebc80d" offset=".39"/>
      <stop stop-color="#f5d838" offset=".53"/>
      <stop stop-color="#f6d811" offset=".77"/>
      <stop stop-color="#f5cd31" offset="1"/>
    </linearGradient>
    <linearGradient id="J" x1="243.03" x2="243.47" y1="157.02" y2="159.77" gradientUnits="userSpaceOnUse">
      <stop stop-color="#f5ce2d" offset="0"/>
      <stop stop-color="#d79b08" offset="1"/>
    </linearGradient>
    <linearGradient id="X" x1="338.29" x2="341.98" y1="323.9" y2="351.49" gradientTransform="translate(-310)" gradientUnits="userSpaceOnUse">
      <stop offset="0"/>
      <stop stop-opacity="0" offset="1"/>
    </linearGradient>
    <linearGradient id="aa" x1="442.04" x2="490.12" y1="371.54" y2="293.59" gradientUnits="userSpaceOnUse">
      <stop stop-color="#3e2a06" offset="0"/>
      <stop stop-color="#ad780a" offset="1"/>
    </linearGradient>
    <linearGradient id="af" x1="355.16" x2="353.75" y1="289.59" y2="302.32" gradientTransform="translate(-310)" gradientUnits="userSpaceOnUse">
      <stop stop-color="#f3cd0c" offset="0"/>
      <stop stop-color="#f3cd0c" stop-opacity="0" offset="1"/>
    </linearGradient>
    <linearGradient id="aq" x1="358.5" x2="361.5" y1="279.36" y2="279.24" gradientUnits="userSpaceOnUse">
      <stop stop-color="#7c7c7c" offset="0"/>
      <stop stop-color="#7c7c7c" stop-opacity=".33" offset="1"/>
    </linearGradient>
    <linearGradient id="av" x1="123.13" x2="170.86" y1="301.54" y2="381.62" gradientUnits="userSpaceOnUse">
      <stop stop-color="#b98309" offset="0"/>
      <stop stop-color="#382605" offset="1"/>
    </linearGradient>
    <linearGradient id="ay" x1="171.57" x2="186.6" y1="323.99" y2="352.28" gradientTransform="translate(-.53 -1.77)" gradientUnits="userSpaceOnUse">
      <stop stop-color="#ebc40c" offset="0"/>
      <stop stop-color="#ebc40c" stop-opacity="0" offset="1"/>
    </linearGradient>
    <radialGradient id="e" cx="223.2" cy="137.66" r="14.57" gradientTransform="matrix(1.0858 -.03431 .03944 1.248 -154.54 -26.54)" gradientUnits="userSpaceOnUse">
      <stop stop-color="#fefefc" offset="0"/>
      <stop stop-color="#fefefc" offset=".76"/>
      <stop stop-color="#d4d4d4" offset="1"/>
    </radialGradient>
    <radialGradient id="d" cx="223.2" cy="137.66" r="14.57" gradientTransform="matrix(.81524 -.03431 .02961 1.248 -129.44 -26.54)" gradientUnits="userSpaceOnUse">
      <stop stop-color="#fefefc" offset="0"/>
      <stop stop-color="#fefefc" offset=".76"/>
      <stop stop-color="#d4d4d4" offset="1"/>
    </radialGradient>
    <radialGradient id="k" cx="223.2" cy="137.66" r="14.57" gradientTransform="matrix(.81524 -.03431 .02961 1.248 -208.44 -35.54)" gradientUnits="userSpaceOnUse">
      <stop stop-color="#fefefc" offset="0"/>
      <stop stop-color="#fefefc" offset=".76"/>
      <stop stop-color="#d4d4d4" offset="1"/>
    </radialGradient>
    <radialGradient id="l" cx="223.2" cy="137.66" r="14.57" gradientTransform="matrix(1.0858 -.03431 .03944 1.248 -233.54 -35.54)" gradientUnits="userSpaceOnUse">
      <stop stop-color="#fefefc" offset="0"/>
      <stop stop-color="#fefefc" offset=".76"/>
      <stop stop-color="#d4d4d4" offset="1"/>
    </radialGradient>
    <radialGradient id="n" cx="275.54" cy="150.65" r="15.38" gradientTransform="matrix(.69785 -.50717 .46034 .63341 -271.1 183.03)" gradientUnits="userSpaceOnUse">
      <stop stop-color="#020204" offset="0"/>
      <stop stop-color="#020204" offset=".73"/>
      <stop stop-color="#5c5c5c" offset="1"/>
    </radialGradient>
    <radialGradient id="A" cx="294.48" cy="193.1" r="31.11" gradientTransform="matrix(.93619 -.3864 .27133 .65739 -244.48 146.72)" gradientUnits="userSpaceOnUse">
      <stop stop-color="#d2940a" offset="0"/>
      <stop stop-color="#d89c08" offset=".75"/>
      <stop stop-color="#b67e07" offset=".87"/>
      <stop stop-color="#946106" offset="1"/>
    </radialGradient>
    <radialGradient id="F" cx="77.67" cy="147.09" r="3.23" gradientTransform="matrix(1 0 0 .58333 0 61.42)" gradientUnits="userSpaceOnUse" xlink:href="#g"/>
    <radialGradient id="H" cx="63.13" cy="147.44" r="1.53" gradientTransform="matrix(1 0 0 1.0751 0 -11.1)" gradientUnits="userSpaceOnUse" xlink:href="#g"/>
    <radialGradient id="M" cx="268.07" cy="126.53" r="35.51" gradientTransform="matrix(.20141 -.03316 .03065 .18616 -3.13 114.04)" gradientUnits="userSpaceOnUse">
      <stop stop-color="#c8c8c8" offset="0"/>
      <stop stop-color="#797978" offset="1"/>
    </radialGradient>
    <radialGradient id="P" cx="336.22" cy="220.54" r="27.39" gradientTransform="matrix(-.69844 0 0 .76336 166.31 50.22)" gradientUnits="userSpaceOnUse">
      <stop offset="0"/>
      <stop stop-opacity=".25" offset="1"/>
    </radialGradient>
    <radialGradient id="R" cx="312.15" cy="236.37" r="27.39" gradientTransform="matrix(1 0 0 .76336 -289 41.22)" gradientUnits="userSpaceOnUse" xlink:href="#h"/>
    <radialGradient id="T" cx="275.55" cy="225.13" r="10.85" gradientTransform="matrix(1 0 0 1.0692 -289 -23.86)" gradientUnits="userSpaceOnUse" xlink:href="#h"/>
    <radialGradient id="aj" cx="363.34" cy="303.42" r="16.85" gradientTransform="matrix(1.3082 .35053 -.36795 1.3732 -310.51 -240.35)" gradientUnits="userSpaceOnUse">
      <stop stop-color="#110800" offset="0"/>
      <stop stop-color="#a65a00" stop-opacity=".8" offset=".59"/>
      <stop stop-color="#ff921e" stop-opacity="0" offset="1"/>
    </radialGradient>
    <radialGradient id="an" cx="382.23" cy="246.86" r="20.54" gradientTransform="matrix(.36025 .1568 -.07247 .16649 260.62 181.94)" gradientUnits="userSpaceOnUse">
      <stop stop-color="#7c7c7c" offset="0"/>
      <stop stop-color="#7c7c7c" stop-opacity=".33" offset="1"/>
    </radialGradient>
    <clipPath id="au">
      <path d="M137.58 281.02c1.6-.66 3.4-.78 5.1-.47 1.7.31 3.31 1.05 4.74 2.02 2.87 1.95 5 4.78 7.03 7.58 4.67 6.44 9.17 13 13.24 19.83 3.3 5.54 6.35 11.26 10.17 16.45 2.49 3.4 5.3 6.54 7.8 9.93 2.52 3.38 4.74 7.05 5.85 11.11a22.3 22.3 0 01-1.63 15.96 21.07 21.07 0 01-7.77 8.34 20.04 20.04 0 01-11.02 2.87c-6.11-.23-11.7-3.29-17.38-5.55-11.58-4.62-24.16-6.06-36.1-9.66-3.67-1.1-7.27-2.4-10.97-3.42-1.64-.45-3.3-.85-4.86-1.55-1.55-.7-3-1.75-3.86-3.22a7.29 7.29 0 01-.93-3.79c.02-1.31.33-2.61.78-3.85.9-2.47 2.34-4.71 3.32-7.15 1.59-4 1.88-8.4 1.66-12.68-.21-4.3-.9-8.55-1.2-12.83-.13-1.92-.18-3.86.18-5.74a9.47 9.47 0 012.56-5.06c1.27-1.22 2.96-1.95 4.7-2.31s3.51-.38 5.28-.34c1.77.04 3.54.13 5.3-.01 1.77-.14 3.54-.54 5.07-1.42a11.99 11.99 0 003.65-3.43c.99-1.36 1.79-2.85 2.6-4.32a27.6 27.6 0 012.75-4.22 10.44 10.44 0 013.94-3.07" fill="#402c07"/>
    </clipPath>
    <clipPath id="as">
      <path d="M248.06 184.61a704.88 704.88 0 01-16.48 21c-3.55 4.37-7.16 8.8-9.45 13.93-1.98 4.41-2.91 9.2-4.27 13.85a104.93 104.93 0 01-5.97 15.33 307.52 307.52 0 01-6.94 13.54c-1.74 3.25-3.5 6.58-4.1 10.22a21 21 0 00.53 8.67 39.96 39.96 0 003.24 8.1c5.66 11.08 14.17 20.62 24.24 27.93a85.17 85.17 0 0014.6 8.52c2.78 1.27 5.71 2.4 8.77 2.46 1.53.03 3.08-.22 4.48-.84a7.94 7.94 0 003.48-2.89 8.32 8.32 0 001.16-5.4c-.2-1.87-.93-3.66-1.91-5.26-2.39-3.93-6.17-6.76-9.8-9.58a327.47 327.47 0 01-22.68-19.24c-2.05-1.9-4.1-3.87-5.53-6.28a23.54 23.54 0 01-2.66-7.7 42.67 42.67 0 011.46-22.13c.98-2.75 2.27-5.39 3.52-8.04 2.16-4.58 4.21-9.26 7.05-13.46 3.53-5.24 8.25-9.68 11.15-15.28 2.46-4.73 3.5-10.06 4.36-15.32.67-4.03 1.25-8.07 1.75-12.13" fill="none" stroke="#729fcf" stroke-width=".13"/>
    </clipPath>
    <clipPath id="am">
      <path d="M386.19 285.33a7.32 7.32 0 00-2-2.87 10.6 10.6 0 00-2.97-1.85c-2.17-.92-4.52-1.26-6.84-1.7-2.17-.4-4.34-.9-6.52-1.27-2.27-.39-4.62-.64-6.87-.13a11.72 11.72 0 00-5.27 2.82 15.07 15.07 0 00-3.48 4.89 21.12 21.12 0 00-1.66 10.4c.21 2.64.88 5.35 2.61 7.34a11.36 11.36 0 005.43 3.22c3.53 1.05 7.37.99 10.86-.15a28.58 28.58 0 0014.33-10.78 15.78 15.78 0 002.56-5.4 8.04 8.04 0 00-.18-4.52" fill="none" stroke="#ce5c00"/>
    </clipPath>
    <clipPath id="ap">
      <path d="M386.19 285.33a7.32 7.32 0 00-2-2.87 10.6 10.6 0 00-2.97-1.85c-2.17-.92-4.52-1.26-6.84-1.7-2.17-.4-4.34-.9-6.52-1.27-2.27-.39-4.62-.64-6.87-.13a11.72 11.72 0 00-5.27 2.82 15.07 15.07 0 00-3.48 4.89 21.12 21.12 0 00-1.66 10.4c.21 2.64.88 5.35 2.61 7.34a11.36 11.36 0 005.43 3.22c3.53 1.05 7.37.99 10.86-.15a28.58 28.58 0 0014.33-10.78 15.78 15.78 0 002.56-5.4 8.04 8.04 0 00-.18-4.52" fill="none" stroke="#ce5c00"/>
    </clipPath>
    <clipPath id="Z">
      <path d="M516.01 331.88a16.93 16.93 0 01-2.82 4.74c-2.62 3.11-6.26 5.17-9.9 7.02-6.18 3.15-12.6 5.92-18.41 9.71a75.57 75.57 0 00-10.86 8.75c-2.88 2.75-5.6 5.68-8.83 8.01a25.4 25.4 0 01-11 4.65c-4.83.73-9.82-.2-14.3-2.16-3.13-1.37-6.15-3.32-7.96-6.23-1.81-2.92-2.23-6.49-2.23-9.92 0-6.08 1.12-12.1 2.18-18.08.88-4.97 1.72-9.95 2.26-14.97.98-9.13.97-18.35.32-27.51-.11-1.54-.24-3.09-.01-4.6a6.56 6.56 0 012.02-4.05 6.56 6.56 0 013.94-1.41c1.42-.08 2.83.14 4.24.35 3.31.48 6.65.86 9.89 1.72 2.04.53 4.03 1.26 6.07 1.8 3.4.93 6.97 1.37 10.47.96 3.77-.44 7.43-1.86 11.22-1.77 1.56.04 3.1.34 4.59.8A9.8 9.8 0 01491 292a9.06 9.06 0 011.88 3.07 18.58 18.58 0 011.17 5.25c.13 1.59.11 3.2.41 4.76.5 2.57 1.85 4.92 3.53 6.93s3.69 3.72 5.7 5.41c2 1.68 4 3.35 6.16 4.83 1.02.69 2.06 1.34 3.02 2.1s1.85 1.65 2.45 2.71a6.79 6.79 0 01.68 4.83" fill="url(#b)"/>
    </clipPath>
    <clipPath id="ab">
      <path d="M516.01 331.88a16.93 16.93 0 01-2.82 4.74c-2.62 3.11-6.26 5.17-9.9 7.02-6.18 3.15-12.6 5.92-18.41 9.71a75.57 75.57 0 00-10.86 8.75c-2.88 2.75-5.6 5.68-8.83 8.01a25.4 25.4 0 01-11 4.65c-4.83.73-9.82-.2-14.3-2.16-3.13-1.37-6.15-3.32-7.96-6.23-1.81-2.92-2.23-6.49-2.23-9.92 0-6.08 1.12-12.1 2.18-18.08.88-4.97 1.72-9.95 2.26-14.97.98-9.13.97-18.35.32-27.51-.11-1.54-.24-3.09-.01-4.6a6.56 6.56 0 012.02-4.05 6.56 6.56 0 013.94-1.41c1.42-.08 2.83.14 4.24.35 3.31.48 6.65.86 9.89 1.72 2.04.53 4.03 1.26 6.07 1.8 3.4.93 6.97 1.37 10.47.96 3.77-.44 7.43-1.86 11.22-1.77 1.56.04 3.1.34 4.59.8A9.8 9.8 0 01491 292a9.06 9.06 0 011.88 3.07 18.58 18.58 0 011.17 5.25c.13 1.59.11 3.2.41 4.76.5 2.57 1.85 4.92 3.53 6.93s3.69 3.72 5.7 5.41c2 1.68 4 3.35 6.16 4.83 1.02.69 2.06 1.34 3.02 2.1s1.85 1.65 2.45 2.71a6.79 6.79 0 01.68 4.83" fill="url(#b)"/>
    </clipPath>
    <clipPath id="ad">
      <path d="M511.83 331.9c-.6 1.4-1.44 2.7-2.46 3.85-2.33 2.58-5.51 4.22-8.66 5.7-5.42 2.53-11 4.77-16.12 7.88a66.6 66.6 0 00-9.5 7.1c-2.52 2.22-4.93 4.62-7.73 6.5a23.03 23.03 0 01-9.61 3.77c-4.22.58-8.56-.18-12.51-1.76-2.71-1.07-5.37-2.61-6.97-5.05-1.54-2.34-1.93-5.25-1.95-8.05-.04-4.94.96-9.82 1.9-14.67.78-4.03 1.53-8.07 1.98-12.15.82-7.4.66-14.89.28-22.33-.06-1.25-.13-2.5.08-3.74a5.52 5.52 0 011.68-3.27 5.6 5.6 0 013.45-1.21c1.24-.06 2.48.16 3.7.34 2.9.44 5.82.71 8.66 1.4 1.79.43 3.53 1.02 5.31 1.47 2.99.75 6.1 1.1 9.16.77 3.3-.36 6.5-1.51 9.82-1.43 1.36.03 2.7.27 4.01.65a8.6 8.6 0 013.6 1.86c.73.69 1.26 1.57 1.65 2.49.58 1.35.89 2.8 1.02 4.26.12 1.29.1 2.6.37 3.86.43 2.15 1.64 4.08 3.11 5.7s3.23 2.97 4.96 4.32c1.75 1.36 3.5 2.74 5.4 3.92.87.55 1.79 1.05 2.63 1.67a7.6 7.6 0 012.14 2.23c.69 1.17.9 2.6.6 3.92" fill="url(#c)"/>
    </clipPath>
    <clipPath id="N">
      <path d="M304.85 225.45c6.02 4.92 9.78 12.32 10.94 20 1.83 12.03-2.34 24.08-6.44 35.54-.82 2.28-1.64 4.59-1.97 7s-.12 4.94 1.03 7.08a10.67 10.67 0 006.37 4.92 15 15 0 008.01.1 19.55 19.55 0 007.2-3.65c5.47-4.3 8.75-10.98 10-17.84 1.25-6.86.64-13.93-.55-20.8a144.47 144.47 0 00-7.74-27.4c-2.52-6.52-5.47-12.92-9.62-18.53-4.04-5.47-9.16-10.09-13.1-15.63-2.73-3.85-4.9-8.13-8.2-11.51-1.64-1.69-3.57-3.14-5.76-4s-4.67-1.13-6.93-.48c-1.51.42-2.9 1.23-4.04 2.3s-2.06 2.37-2.7 3.8a16.12 16.12 0 00-.96 9.2c.66 3.98 2.44 7.7 4.46 11.19 2.28 3.93 4.92 7.72 8.39 10.65 3.6 3.05 7.96 5.07 11.61 8.06" fill="none" stroke="#c17d11"/>
    </clipPath>
    <clipPath id="L">
      <path d="M54.23 122.36c-1.78.1-3.48.92-4.79 2.14s-2.22 2.8-2.78 4.5c-1.13 3.38-.88 7.05-.62 10.61.23 3.22.47 6.5 1.68 9.5a12.4 12.4 0 002.58 4.07 8.86 8.86 0 004.11 2.43c1.47.37 3.04.3 4.49-.16a9.7 9.7 0 003.84-2.34 12.9 12.9 0 003.26-5.69c.6-2.12.78-4.35.75-6.56-.04-2.76-.4-5.54-1.27-8.16s-2.24-5.1-4.17-7.09c-.93-.96-2-1.8-3.2-2.4a7.88 7.88 0 00-3.88-.85" fill="url(#d)"/>
    </clipPath>
    <clipPath id="s">
      <path d="M85.75 122.36a16.34 16.34 0 00-6.25 7.75c-1.44 4-.89 8.48.5 12.5 1.42 4.12 3.8 8.04 7.38 10.51 1.8 1.24 3.87 2.09 6.03 2.34s4.4-.1 6.34-1.1a12.22 12.22 0 005.26-5.78 21.16 21.16 0 001.74-7.72c.19-3.38-.14-6.8-1.25-10-1.2-3.47-3.39-6.67-6.47-8.67-1.54-1-3.3-1.68-5.11-1.93a10.9 10.9 0 00-5.42.6c-.98.38-1.89.9-2.75 1.5" fill="url(#e)"/>
    </clipPath>
  </defs>
  <path d="M200.52 123.37c3.26 7.09 6.9 14 10.12 21.1 6.22 13.67 10.94 28.1 12.9 43 1.96 14.88 1.1 30.25-3.55 44.53-5.26 16.11-15.24 30.45-27.47 42.18-14.47 13.88-33.04 24.58-53.07 25.37-13.06.51-26.05-3.22-37.62-9.3a85.61 85.61 0 01-25.66-20.33c-7.07-8.39-12.33-18.38-14.76-29.09-3-13.18-1.64-27.18 2.9-39.91 3.24-9.11 8.04-17.59 11.47-26.63 3.74-9.88 5.83-20.43 10.78-29.76 4.5-8.46 11.23-15.69 14.8-24.57 2.14-5.3 3.07-11 4.45-16.56 1.38-5.55 3.31-11.14 7.07-15.46 4.53-5.2 11.34-8.01 18.19-8.8 6.85-.8 13.78.28 20.5 1.8a139.95 139.95 0 0115.8 4.58c4.42 1.57 8.79 3.4 12.6 6.12 5.2 3.7 9.16 8.9 12.32 14.45 3.15 5.55 5.57 11.48 8.23 17.28" fill="#020204"/>
  <path d="M143.04 299.68a165.48 165.48 0 0130.7 4.49c7.37 1.78 14.72 4.06 22.31 4.28 2 .06 4.01-.03 5.96-.47a13.26 13.26 0 005.4-2.47 12.66 12.66 0 004.36-7.58c.55-2.93.21-5.98-.65-8.83-1.71-5.7-5.39-10.58-8.43-15.7-1.75-2.93-3.3-5.98-5.2-8.82-1.88-2.84-4.14-5.5-7.01-7.35-3.97-2.56-8.89-3.4-13.59-2.92-4.7.47-9.2 2.16-13.39 4.33-5.87 3.05-11.4 7.22-14.6 13.01-1.12 2.02-1.93 4.18-2.88 6.28a19.97 19.97 0 01-3.66 5.82c-1.8 1.84-4.11 3.08-5.96 4.86-.93.9-1.74 1.93-2.21 3.12s-.6 2.56-.16 3.77c.3.82.84 1.55 1.5 2.13.68.57 1.47.98 2.3 1.28 1.66.58 3.45.67 5.2.77" fill="#020204"/>
  <path d="M126.69 299.33c-4.59.1-9.12.92-13.61 1.85-4.3.89-8.57 1.88-12.8 2.99-7.16 1.88-14.32 4.13-21.72 4.28-1.95.05-3.9-.06-5.8-.5a13.16 13.16 0 01-5.26-2.43 12.65 12.65 0 01-4.35-7.58c-.54-2.92-.21-5.96.64-8.8 1.7-5.7 5.33-10.59 8.31-15.74 1.7-2.92 3.2-5.96 5.02-8.8 1.83-2.84 4.04-5.5 6.86-7.37 3.85-2.53 8.65-3.38 13.23-2.93 4.59.45 8.98 2.14 13.02 4.35 5.7 3.11 10.92 7.4 14.22 13 2.31 3.94 3.65 8.43 6.35 12.1 1.46 1.98 3.29 3.69 4.5 5.83.6 1.06 1.05 2.24 1.16 3.47s-.16 2.5-.84 3.51a5.34 5.34 0 01-1.8 1.62c-.7.4-1.48.66-2.28.83-1.59.33-3.23.28-4.85.32M101.07 108.44c-.64-7.75-.49-15.54-.78-23.32-.27-7.47-.96-14.94-.71-22.41.26-7.61 1.53-15.31 4.91-22.13a37.38 37.38 0 0115.59-16.23c6.3-3.4 13.56-4.85 20.73-4.77 9.72.1 19.47 3.04 27.34 8.74a48.68 48.68 0 0112.35 13.32 51.7 51.7 0 016.33 14.19c2.8 10.29 2.13 21.15 2.67 31.8.52 10.09 2.13 20.16 1.58 30.25-.12 2.19-.35 4.43-1.33 6.4-.95 1.91-2.57 3.45-4.42 4.51s-3.95 1.67-6.06 2c-4.23.65-8.55.22-12.81.61-6.18.57-12.08 2.87-18.21 3.81-7.31 1.13-14.76.33-22.15.04-2.96-.12-5.93-.16-8.87-.53a24.43 24.43 0 01-8.48-2.47c-1.61-.86-3.1-1.97-4.3-3.35s-2.11-3-2.57-4.78c-.69-2.65-.33-5.44-.32-8.18.01-2.5-.28-5-.49-7.5" fill="#020204"/>
  <path d="M112.7 105.45a11.87 11.87 0 00-2.14 4.51c-.4 1.63-.56 3.31-.62 4.99-.13 3.35.07 6.77-.81 10-.95 3.46-3.08 6.46-5.16 9.38-3.6 5.06-7.25 10.25-9.03 16.2a28.78 28.78 0 00-1.05 11.17 118.06 118.06 0 00-10.42 18.78 102.74 102.74 0 00-8.45 31.34c-1.3 13.24.4 26.86 5.62 39.1a64.06 64.06 0 0016.69 23.24c3.7 3.2 7.8 5.94 12.19 8.1 15.21 7.48 34.01 7.5 48.97-.48 7.82-4.17 14.42-10.26 20.78-16.42 3.84-3.71 7.65-7.51 10.57-11.98 5.63-8.59 7.59-19.03 8.8-29.23 2.14-17.84 2.2-36.67-5.61-52.84a58.29 58.29 0 00-10.59-15.14 82.97 82.97 0 00-6.69-22.54c-2.37-5.16-5.27-10.07-7.47-15.3-.9-2.14-1.69-4.34-2.7-6.44-1-2.1-2.23-4.13-3.92-5.74a16.17 16.17 0 00-6.13-3.56 26.67 26.67 0 00-7.03-1.21c-4.77-.24-9.54.38-14.31.2-3.8-.16-7.58-.82-11.37-.6-1.9.11-3.79.45-5.55 1.17a11.2 11.2 0 00-4.57 3.3" fill="#fdfdfb"/>
  <path d="M-28.63 172.6c1.7 4.94 5.13 9.15 9.18 12.44 1.35 1.1 2.79 2.1 4.37 2.82 1.58.71 3.33 1.12 5.06.97 1.7-.14 3.31-.8 4.8-1.64 1.47-.84 2.85-1.85 4.28-2.76 2.47-1.56 5.1-2.82 7.66-4.22a44.13 44.13 0 008.67-5.96c1.18-1.08 2.3-2.27 3.6-3.2a7.11 7.11 0 014.5-1.5c1.2.09 2.32.6 3.5.85a5 5 0 001.8.1 2.8 2.8 0 001.6-.78c.51-.53.74-1.3.7-2.04a4.97 4.97 0 00-.62-2.1c-.69-1.31-1.73-2.44-2.2-3.84-.41-1.25-.33-2.6-.3-3.92.04-1.31.01-2.69-.6-3.85a5 5 0 00-2.11-2.07 7.67 7.67 0 00-2.88-.8c-2-.19-4 .2-6 .31-2.65.15-5.32-.18-7.97-.02-3.31.2-6.56 1.16-9.88 1.17-3.78 0-7.56-1.23-11.3-.64-1.6.25-3.14.84-4.68 1.35-1.54.51-3.13.97-4.76.94-1.84-.02-3.63-.66-5.47-.8-.92-.06-1.86 0-2.72.33a3.8 3.8 0 00-2.07 1.74c-.24.47-.36 1-.39 1.53-.02.53.05 1.05.18 1.57.26 1.02.73 1.98 1.11 2.96 1.4 3.56 1.7 7.45 2.94 11.06" fill-opacity=".26" filter="url(#i)" transform="translate(139 -49.36)"/>
  <path transform="matrix(1 0 0 .92111 160 -43.25)" d="M-54.38 165.47a39.4 39.4 0 018.77 8.05c2.31 2.89 4.28 6.16 7.3 8.29 2.13 1.5 4.7 2.36 7.3 2.62 3.04.3 6.13-.19 9.07-1.06 2.73-.8 5.37-1.92 7.79-3.42 4.6-2.83 8.44-6.99 13.5-8.85 1.11-.41 2.27-.7 3.33-1.2a5.22 5.22 0 002.58-2.32c.5-1.02.47-2.2.63-3.33.17-1.2.56-2.36.77-3.55s.23-2.48-.28-3.57a4.62 4.62 0 00-2.1-2.09c-.9-.45-1.9-.66-2.9-.71-2.01-.1-4 .41-6 .6-2.65.24-5.31-.1-7.97-.02-3.31.1-6.57.85-9.88 1-3.77.18-7.53-.42-11.3-.55a23.53 23.53 0 00-4.89.25c-1.6.28-3.19.83-4.55 1.73-1.32.88-2.4 2.07-3.6 3.09-.61.51-1.25.99-1.96 1.34s-1.48.61-2.27.65c-.4.02-.82-.02-1.22.04a2.59 2.59 0 00-2.12 3v.01" filter="url(#j)" opacity=".3"/>
  <path d="M-24.77 113.36c-1.78.1-3.48.92-4.79 2.14a10.82 10.82 0 00-2.78 4.5c-1.13 3.38-.88 7.05-.62 10.61.23 3.22.47 6.5 1.68 9.5.6 1.5 1.45 2.91 2.58 4.07s2.55 2.04 4.11 2.43c1.47.37 3.04.3 4.49-.16a9.7 9.7 0 003.84-2.34 12.9 12.9 0 003.26-5.69c.6-2.12.78-4.35.75-6.56-.04-2.76-.4-5.54-1.27-8.16s-2.24-5.1-4.17-7.09c-.93-.96-2-1.8-3.2-2.4a7.88 7.88 0 00-3.88-.85" fill="url(#k)" transform="translate(139 -49.36)"/>
  <path d="M6.75 113.36a16.34 16.34 0 00-6.25 7.75c-1.44 4-.89 8.48.5 12.5 1.42 4.12 3.8 8.04 7.38 10.51 1.8 1.24 3.87 2.09 6.03 2.34s4.4-.1 6.34-1.1c2.35-1.23 4.15-3.37 5.26-5.78s1.6-5.07 1.74-7.72c.19-3.38-.14-6.8-1.25-10-1.2-3.47-3.39-6.67-6.47-8.67-1.54-1-3.3-1.68-5.11-1.93a10.9 10.9 0 00-5.42.6c-.98.38-1.89.9-2.75 1.5" fill="url(#l)" transform="translate(139 -49.36)"/>
  <path d="M-25.36 142.15a71.63 71.63 0 00-5.14 4.69c-.9.9-1.8 1.88-2.21 3.1-.36 1.08-.3 2.25-.47 3.37-.06.39-.15.77-.15 1.16 0 .2.02.4.08.58.05.19.15.36.28.5.22.24.54.37.86.44.31.06.64.07.96.1a8.9 8.9 0 014 1.7c1.21.83 2.32 1.8 3.56 2.59 2.73 1.73 6 2.5 9.23 2.62s6.45-.37 9.63-1c2.52-.5 5.03-1.1 7.42-2.05 3.66-1.44 6.96-3.66 10.12-6.02a42.42 42.42 0 004.13-3.41c.44-.42.86-.86 1.33-1.25.47-.38.99-.72 1.57-.9.88-.29 1.83-.2 2.74-.05.7.11 1.38.26 2.08.24.34-.02.7-.08 1.02-.2.32-.14.62-.34.84-.6.29-.36.44-.82.44-1.28 0-.46-.14-.91-.37-1.3a4.47 4.47 0 00-2.1-1.7c-1.15-.5-2.4-.76-3.61-1.05a51.69 51.69 0 01-10.84-3.96c-1.71-.85-3.38-1.8-5.07-2.7a29.91 29.91 0 00-5.39-2.4c-4.21-1.27-8.82-.85-12.97.6a27.75 27.75 0 00-11.97 8.18" filter="url(#m)" opacity=".3" transform="translate(139 -49.36)"/>
  <path d="M-16.4 136.86c1.77-1.99 2.98-4.41 4.68-6.46a11.2 11.2 0 012.98-2.61 6.62 6.62 0 013.81-.93c1.48.13 2.86.86 3.94 1.87a12 12 0 012.52 3.63c.6 1.28 1.1 2.64 1.98 3.75.94 1.18 2.25 2 3.45 2.92.6.47 1.16.97 1.63 1.56a4.21 4.21 0 01.8 4.28c-.25.73-.7 1.38-1.25 1.91a7.42 7.42 0 01-4.13 1.86c-3.04.43-6.12-.48-9.19-.4-3.1.09-6.14 1.19-9.24 1.07a8.22 8.22 0 01-4.4-1.32 5.57 5.57 0 01-1.6-1.67 4.6 4.6 0 01-.23-4.37c.3-.68.7-1.3 1.18-1.88.94-1.14 2.09-2.1 3.07-3.21" fill="url(#n)" transform="translate(139 -49.36)"/>
  <path transform="translate(-163.03 -72.2) scale(1.1522)" d="M277.96 90.86c-2.22 1.57-1.25 3.53-.3 5.5s-2.1 7.63-2.13 7.88c-.03.24 6.02-2.88 7.67-4.9 1.95-2.4 6.88 3.24 6.61 2.38 0-1.53-9.63-12.43-11.85-10.86z" fill="#7c7c7c" filter="url(#o)"/>
  <path d="M152.16 72.4a6.44 6.44 0 00-2.95.99 7.76 7.76 0 00-2.24 2.18 11.26 11.26 0 00-1.8 5.94c-.05 1.57.12 3.16.64 4.65s1.4 2.86 2.61 3.86a7.4 7.4 0 008.99.41 8.2 8.2 0 002.5-2.87c.61-1.13.98-2.38 1.14-3.65.3-2.25-.04-4.6-1.08-6.61a9.26 9.26 0 00-4.92-4.46 6.96 6.96 0 00-2.89-.44" fill="#020204"/>
  <path d="M304.66 137.61c-.87.34-2.24.13-2.62.98-.22.5.1 1.33.6 1.54 1.04.42 2.64-.34 3.06-1.38.18-.45-.1-1.16-.54-1.35-.17-.07-.33.14-.5.21z" fill="#141413" filter="url(#p)" transform="translate(-150 -58.36)"/>
  <path d="M308.62 139.86c1.16-1.16-.83-4.24-2.38-5.5-1.12-.91-4.39-1.87-4.25-.88s1.61 2.27 2.6 3.24c1.21 1.2 3.48 3.7 4.03 3.14z" fill="url(#q)" filter="url(#r)" transform="translate(-150 -58.36)"/>
  <path transform="translate(60 -58.36)" d="M75.25 132.49a23.71 23.71 0 018.12-4.4 22.4 22.4 0 0118.38 2.27c1.86 1.18 3.51 2.65 5.24 4a20.09 20.09 0 005.63 3.38c1.13.4 2.32.62 3.5.5a6.5 6.5 0 002.99-1.12 7.6 7.6 0 002.18-2.34 10.25 10.25 0 001.28-6.2c-.39-4.28-2.8-8.05-4.82-11.84-.63-1.19-1.24-2.4-2-3.5-2.34-3.4-6.07-5.64-9.99-6.95-3.9-1.31-8.04-1.78-12.14-2.3-1.82-.23-3.67-.47-5.5-.25-2.1.25-4.07 1.1-6.12 1.62-.97.25-1.96.43-2.93.7a7.7 7.7 0 00-2.7 1.3 6.5 6.5 0 00-2.17 3.73 11.9 11.9 0 00-.01 4.37c.45 2.9 1.54 5.72 1.43 8.65-.07 2.02-.7 4-.62 6 .02.6.1 1.18.25 1.75" clip-path="url(#s)" fill="url(#t)"/>
  <path d="M16.4 105.12c-.47.6-.9 1.25-1.24 1.97 2.14.46 4.2 1.34 6.03 2.56 3.54 2.36 6.23 5.8 8.12 9.63.44-.5.84-1.02 1.19-1.6-1.9-3.99-4.64-7.6-8.31-10.03a17.78 17.78 0 00-5.78-2.53z" fill="url(#u)" filter="url(#v)" transform="translate(139 -49.36)"/>
  <path d="M-24.97 107.08l-.72.03-.47.03c1.42.13 2.82.5 4.1 1.08 1.74.78 3.27 1.9 4.62 3.16a23.64 23.64 0 015.63 8.3 20.8 20.8 0 00-2.07-6.65c-.49-.57-1-1.13-1.56-1.65a17.01 17.01 0 00-4.62-3.16 12.66 12.66 0 00-4.9-1.14z" fill="url(#w)" filter="url(#x)" transform="translate(139 -49.36)"/>
  <path d="M109.94 78.75c-.37 2.24-.39 4.6.39 6.74.5 1.42 1.35 2.7 2.37 3.8.67.72 1.43 1.38 2.31 1.8s1.92.61 2.87.37a4.24 4.24 0 002.22-1.5 7.3 7.3 0 001.22-2.42c.8-2.56.67-5.36-.12-7.92a10.34 10.34 0 00-3.03-4.93 6.02 6.02 0 00-2.45-1.28 4.28 4.28 0 00-2.74.22 4.71 4.71 0 00-2.15 2.16 9.87 9.87 0 00-.89 2.96" fill="#020204"/>
  <path d="M164.69 135.49c.24.63 1.05.86 1.5 1.38.43.5.89 1 1.13 1.62.45 1.18-.45 2.92.5 3.75.3.26.89.27 1.18 0 1.15-1.04.9-3.14.44-4.63a5.6 5.6 0 00-2.68-3.25c-.58-.3-1.45-.54-1.95-.12-.31.27-.27.86-.12 1.25z" fill="url(#y)" filter="url(#z)" transform="translate(-50 -58.36)"/>
  <path d="M45.75 165.03c.06.3.17.58.33.84.26.44.65.8 1.07 1.11s.88.56 1.31.84a23.7 23.7 0 015.93 5.7c2.27 2.93 4.27 6.17 7.3 8.3a15.4 15.4 0 007.3 2.6c3.04.32 6.13-.18 9.07-1.04 2.73-.8 5.37-1.93 7.79-3.42 4.6-2.84 8.44-7 13.5-8.86 1.11-.4 2.27-.7 3.33-1.2a5.22 5.22 0 002.58-2.32c.5-1.02.47-2.2.63-3.33.18-1.2.56-2.36.77-3.55.2-1.2.23-2.47-.28-3.57a4.62 4.62 0 00-2.1-2.09c-.9-.45-1.9-.66-2.9-.71-2.01-.1-4 .42-6 .6-2.64.24-5.31-.1-7.97-.02-3.31.1-6.57.84-9.88 1-3.77.19-7.53-.4-11.3-.55a23.34 23.34 0 00-4.9.23c-1.6.27-3.2.82-4.54 1.75-1.3.9-2.35 2.14-3.56 3.18-.6.53-1.25 1-1.96 1.35-.72.35-1.51.57-2.3.55-.42-.01-.84-.08-1.23.05-.24.07-.46.22-.64.4s-.34.39-.48.6c-.33.5-.62 1.02-.87 1.56" fill="url(#A)" transform="translate(60 -58.36)"/>
  <path d="M60.56 169.1a6.67 6.67 0 004.35 7.85c1.97.66 4.2.33 6.05-.63a6.6 6.6 0 002.67-2.38c.3-.52.52-1.1.6-1.7.08-.6.03-1.22-.18-1.79a3.88 3.88 0 00-1.15-1.6c-.5-.42-1.1-.73-1.73-.94a10.85 10.85 0 00-3.94-.36c-2 .1-4 .35-5.97.76" fill="#d9b30d" filter="url(#B)" transform="translate(60 -58.36)"/>
  <path d="M54.07 156.68c-1.34.8-2.63 1.66-3.9 2.56-.66.47-1.34.97-1.68 1.7-.25.51-.3 1.1-.31 1.67 0 .57.03 1.14-.05 1.7-.05.4-.15.77-.17 1.16 0 .2 0 .4.06.58.05.2.14.37.27.51.17.18.41.3.65.37s.5.11.74.17c1.17.28 2.2 1 3.09 1.8s1.7 1.72 2.64 2.48c2.54 2.06 5.89 2.92 9.16 2.97 3.27.06 6.5-.63 9.7-1.35 2.5-.56 5.01-1.15 7.42-2.04a32.73 32.73 0 0010.12-6.02c1.35-1.18 2.62-2.47 4.13-3.42 1.34-.84 2.84-1.4 4.2-2.2.13-.07.25-.15.36-.24.1-.09.2-.2.27-.32.1-.22.1-.48.04-.72a1.9 1.9 0 00-.36-.63c-.17-.21-.37-.4-.57-.58-1.43-1.22-3.36-1.66-5.23-1.81-1.87-.15-3.76-.04-5.6-.35-1.75-.3-3.4-.94-5.08-1.48a35.67 35.67 0 00-18.37-.99 37.92 37.92 0 00-11.53 4.48" fill="#604405" filter="url(#C)" transform="translate(60 -58.36)"/>
  <path d="M53.64 152.15a23.76 23.76 0 00-5.14 4.69 11.11 11.11 0 00-2.02 3.4c-.34 1-.45 2.05-.66 3.07-.08.39-.17.77-.17 1.16 0 .2.03.4.09.58.06.19.15.37.29.5.23.24.54.37.86.43.32.07.64.08.96.12 1.46.16 2.8.87 4 1.7 1.21.83 2.32 1.8 3.56 2.58 2.73 1.72 6 2.5 9.23 2.62 3.23.12 6.45-.37 9.63-1 2.52-.5 5.03-1.1 7.42-2.05 3.66-1.44 6.96-3.66 10.12-6.02a42.42 42.42 0 004.13-3.41c.44-.42.86-.86 1.33-1.25.47-.38.99-.72 1.57-.9.88-.29 1.83-.2 2.74-.05.7.11 1.38.26 2.08.24.34-.02.7-.08 1.02-.2.32-.14.62-.34.84-.6.29-.36.44-.82.44-1.28 0-.46-.14-.91-.37-1.3a4.47 4.47 0 00-2.1-1.7c-1.15-.5-2.4-.76-3.61-1.05a51.69 51.69 0 01-10.84-3.96c-1.71-.85-3.38-1.8-5.07-2.7a29.91 29.91 0 00-5.39-2.4c-4.21-1.27-8.82-.85-12.97.6a27.75 27.75 0 00-11.97 8.18" fill="url(#D)" transform="translate(60 -58.36)"/>
  <path d="M83.24 153.08c-.23-.29-.55-.49-.9-.6s-.73-.1-1.09-.04c-.72.12-1.36.51-1.96.92a22.34 22.34 0 00-4.54 4.23c-1.74 2.12-3.18 4.58-3.67 7.28-.08.45-.13.92-.08 1.38.06.46.24.91.56 1.24.29.3.68.47 1.08.53.4.05.82 0 1.2-.13.77-.26 1.41-.8 2.02-1.34 3.33-2.99 6.35-6.57 7.56-10.88.12-.44.22-.88.22-1.33 0-.45-.12-.9-.4-1.26" fill="#f6da4a" filter="url(#E)" transform="translate(60 -58.36)"/>
  <path d="M75.25 146.89c.23.74 1.43.62 2.12.98.6.3 1.1 1 1.78 1.01.65.02 1.66-.22 1.75-.87.1-.85-1.14-1.4-1.94-1.7-1.03-.4-2.35-.61-3.32-.07-.22.12-.46.4-.39.65z" fill="url(#F)" filter="url(#G)" opacity=".8" transform="translate(60 -58.36)"/>
  <path d="M63.83 146.47c-.9-.29-2.36 1.28-1.88 2.08.13.22.53.5.8.35.41-.23.75-1.03 1.2-1.35.29-.2.22-.97-.12-1.08z" fill="url(#H)" filter="url(#I)" opacity=".8" transform="translate(60 -58.36)"/>
  <path transform="matrix(1.0956 0 -.17018 1.5181 -76.24 -140.48)" d="M245.9 158.28c0 1.29-1.17 2.33-2.6 2.33-1.45 0-2.62-1.04-2.62-2.33s1.17-2.33 2.61-2.33 2.61 1.04 2.61 2.33z" color="#000" fill="url(#J)" filter="url(#K)"/>
  <path transform="translate(60 -58.36)" d="M50.4 129.53c2.68-1.6 5.95-1.97 9.06-1.68 3.11.3 6.12 1.21 9.14 2.03 2.21.6 4.45 1.17 6.53 2.14 2.07.98 4 2.42 5.14 4.4.18.32.34.65.54.97.19.3.42.6.71.83s.66.36 1.03.34c.18 0 .36-.06.52-.15a1 1 0 00.38-.4c.1-.18.13-.4.12-.61s-.06-.42-.12-.62c-.76-2.76-2.54-5.09-3.89-7.6-.81-1.51-1.48-3.1-2.3-4.6-2.82-5.16-7.44-9.22-12.7-11.85-5.26-2.63-11.13-3.9-17-4.24-6.8-.4-13.62.41-20.33 1.6-2.9.5-5.86 1.11-8.43 2.56-1.29.72-2.47 1.65-3.39 2.8s-1.58 2.54-1.79 4c-.2 1.41.01 2.86.5 4.2.5 1.34 1.26 2.56 2.16 3.66 1.8 2.21 4.1 3.94 6.22 5.83 2.12 1.9 4.1 4 6.47 5.57 1.18.78 2.47 1.43 3.84 1.81 1.37.38 2.83.5 4.22.2 1.45-.29 2.79-1 3.96-1.9 1.17-.9 2.18-1.98 3.15-3.1 1.92-2.23 3.72-4.68 6.25-6.19" clip-path="url(#L)" fill="url(#M)"/>
  <path d="M205.1 167.09c6.09 4.9 9.95 12.28 11.14 20 .94 6.02.33 12.2-1.03 18.13-1.35 5.94-3.45 11.68-5.53 17.4a34.35 34.35 0 00-2 7c-.32 2.4-.11 4.95 1.05 7.09 1.33 2.44 3.81 4.13 6.48 4.92 2.64.78 5.48.76 8.15.1a19.9 19.9 0 007.33-3.65c5.51-4.28 8.84-10.95 10.13-17.81 1.29-6.87.7-13.95-.5-20.83a140.31 140.31 0 00-7.88-27.41c-2.58-6.51-5.59-12.92-9.8-18.52-4.11-5.48-9.3-10.1-13.33-15.63-2.8-3.86-5.05-8.15-8.41-11.53-1.68-1.69-3.64-3.13-5.86-4s-4.71-1.11-7-.47a11.05 11.05 0 00-6.8 6.09 15.94 15.94 0 00-1.04 9.22c.66 4 2.49 7.7 4.55 11.18 2.32 3.94 5.02 7.73 8.53 10.66 3.67 3.05 8.1 5.07 11.82 8.06" fill="#020204"/>
  <path transform="matrix(1.0181 0 0 1 -105.26 -58.36)" d="M290.78 216.02c.48.47.98.94 1.5 1.38 3.67 3.05 5.62 6.48 9.34 9.47 6.08 4.9 12.26 13.35 13.45 21.06.93 6.02-.3 9.3-1.8 16.4-1.5 7.09-5.77 17.14-8.08 23.98-.92 2.73 1.86 1.6 1.5 4.48-.18 1.42-.2 2.84-.04 4.26l.07-.82c.45-3.92 1.63-7.7 2.91-11.4 2.48-7.12 5.32-14.1 7.27-21.4 1.96-7.31 1.74-12.57.72-18.85a31.77 31.77 0 00-12.18-20c-4.52-3.4-9.85-5.58-14.66-8.56z" clip-path="url(#N)" fill="#838384" filter="url(#O)"/>
  <path transform="matrix(1.1543 0 0 1 166.33 -58.36)" d="M-61 211.59c.88 1.52-.55 6.78 19.96 3.42 0 0-3.6.45-7.15 1.4-5.52 2.13-10.33 4.52-14.04 7.67-3.68 3.13-6.37 7.2-9.74 10.7 0 0 5.46-11.52 6.82-14.99 1.36-3.46-.23-3.3.85-8.4 1.08-5.11 3.71-10.02 3.71-10.02s-2.15 7.21-.41 10.22z" fill="url(#P)" filter="url(#Q)" opacity=".25"/>
  <path d="M33.05 201.22c-4.83 3.36-7.65 2.96-13.5 3.62s-21.7.42-21.7.42 2.29-.04 7.37.9c5.09.95 15.46 1.86 21.3 4.08s7.96 2.86 11.51 5.1c5.05 3.2 8.76 8.2 13.59 11.7 0 0 .23-4.65-1.72-8.12s-7.19-8.93-8.73-14.03-2.27-15.14-2.27-15.14-1.02 8.1-5.85 11.47z" fill="url(#R)" filter="url(#S)" opacity=".42" transform="translate(139 -49.36)"/>
  <path d="M-12.33 194.04a60.3 60.3 0 01-.7 4.34c-.14.71-.3 1.42-.56 2.1s-.64 1.3-1.18 1.8c-.47.42-1.04.71-1.62.97a24.36 24.36 0 01-7.1 2.02c.97.07 1.95.16 2.93.27.61.07 1.23.14 1.83.3.6.15 1.19.39 1.69.75.54.4.97.95 1.3 1.55.63 1.19.85 2.56.97 3.9.15 1.73.16 3.47.03 5.2.12-1.16.36-2.3.72-3.4.65-2 1.7-3.85 3.12-5.4a10.29 10.29 0 019.1-3.4c-2.56.11-5.15-.7-7.2-2.23a9.36 9.36 0 01-2.58-2.9 8.1 8.1 0 01-.75-5.87" fill="url(#T)" filter="url(#U)" opacity=".2" transform="translate(139 -49.36)"/>
  <path d="M-18.5 228.08a88.71 88.71 0 00-2.53 14.28c-.63 6.8-.48 13.67-.85 20.5-.3 5.8-.99 11.66.02 17.38a29.84 29.84 0 002.56 7.87c.19-.95.33-1.91.42-2.88.42-4.63-.36-9.28-.62-13.93-.46-8.15.67-16.29 1.13-24.44.35-6.25.3-12.53-.13-18.78" color="#000" filter="url(#V)" opacity=".11" transform="translate(139 -49.36)"/>
  <path d="M37.69 157.86c-2.16 1.97 1.01 4.93 2.52 8.4.93 2.17 3.52 5.2 6.03 4.72 1.88-.36 3.05-3.08 2.88-4.99-.35-3.69-3.46-4.55-5.72-5.82-1.8-1-4.2-3.7-5.71-2.31z" fill="#838384" filter="url(#W)" transform="translate(139 -49.36)"/>
  <g>
    <path transform="matrix(1.0269 0 0 1 157.69 -58.36)" d="M86.06 328.13a16.61 16.61 0 01-2.05 4.41c-1.98 3.01-4.86 5.28-7.73 7.37-4.9 3.57-10 6.84-14.56 10.9a74.18 74.18 0 00-8.43 8.96c-2.2 2.74-4.28 5.62-6.8 8.05a23.65 23.65 0 01-8.75 5.53 20.67 20.67 0 01-11.83.26c-2.65-.7-5.22-1.9-6.86-4.1-1.65-2.2-2.18-5.15-2.37-8.05-.34-5.13.26-10.37.8-15.57.45-4.33.87-8.66 1.04-12.97.31-7.86-.2-15.64-1.23-23.28-.17-1.28-.36-2.57-.26-3.88.1-1.32.54-2.7 1.44-3.7.83-.95 2-1.5 3.15-1.78 1.16-.27 2.33-.29 3.5-.32 2.73-.07 5.49-.24 8.19 0 1.7.16 3.37.48 5.07.65 2.84.28 5.78.13 8.63-.72 3.06-.93 5.98-2.65 9.1-3.13 1.27-.2 2.56-.17 3.8 0 1.27.19 2.53.55 3.5 1.34.74.6 1.28 1.43 1.7 2.32a14.94 14.94 0 011.25 4.26c.2 1.32.26 2.68.6 3.96.54 2.1 1.78 3.88 3.26 5.34a31.68 31.68 0 004.96 3.73 55.54 55.54 0 005.32 3.18c.86.43 1.76.83 2.58 1.33.83.5 1.6 1.12 2.16 1.94a5.6 5.6 0 01.82 3.97" fill="url(#X)" filter="url(#Y)" opacity=".2"/>
    <path transform="translate(-250 -58.36)" d="M516.01 331.88a16.93 16.93 0 01-2.82 4.74c-2.62 3.11-6.26 5.17-9.9 7.02-6.18 3.15-12.6 5.92-18.41 9.71a75.57 75.57 0 00-10.86 8.75c-2.88 2.75-5.6 5.68-8.83 8.01a25.4 25.4 0 01-11 4.65c-4.83.73-9.82-.2-14.3-2.16-3.13-1.37-6.15-3.32-7.96-6.23-1.81-2.92-2.23-6.49-2.23-9.92 0-6.08 1.12-12.1 2.18-18.08.88-4.97 1.72-9.95 2.26-14.97.98-9.13.97-18.35.32-27.51-.11-1.54-.24-3.09-.01-4.6a6.56 6.56 0 012.02-4.05 6.56 6.56 0 013.94-1.41c1.42-.08 2.83.14 4.24.35 3.31.48 6.65.86 9.89 1.72 2.04.53 4.03 1.26 6.07 1.8 3.4.93 6.97 1.37 10.47.96 3.77-.44 7.43-1.86 11.22-1.77 1.56.04 3.1.34 4.59.8A9.8 9.8 0 01491 292a9.06 9.06 0 011.88 3.07 18.58 18.58 0 011.17 5.25c.13 1.59.11 3.2.41 4.76.5 2.57 1.85 4.92 3.53 6.93s3.69 3.72 5.7 5.41c2 1.68 4 3.35 6.16 4.83 1.02.69 2.06 1.34 3.02 2.1s1.85 1.65 2.45 2.71a6.79 6.79 0 01.68 4.83" clip-path="url(#Z)" fill="url(#aa)"/>
    <path transform="translate(-250 -58.36)" d="M512.89 328.72c-.62 1.55-1.49 3-2.57 4.26-2.4 2.81-5.73 4.65-9.04 6.31-5.65 2.83-11.5 5.32-16.82 8.74a69.07 69.07 0 00-9.92 7.86c-2.63 2.47-5.12 5.11-8.06 7.2a23.36 23.36 0 01-10.04 4.18c-4.41.65-8.96-.19-13.06-1.94-2.86-1.22-5.62-2.97-7.27-5.6-1.65-2.62-2.03-5.83-2.04-8.92-.01-5.47 1.02-10.87 1.99-16.25.8-4.47 1.57-8.95 2.06-13.46.9-8.21.85-16.5.3-24.74-.1-1.38-.2-2.77 0-4.14a5.94 5.94 0 011.83-3.63 5.96 5.96 0 013.6-1.29c1.3-.06 2.59.15 3.87.33 3.03.45 6.08.78 9.03 1.55 1.87.48 3.69 1.13 5.55 1.63 3.1.82 6.36 1.22 9.56.85 3.44-.4 6.79-1.67 10.25-1.59 1.42.04 2.83.3 4.19.72a8.85 8.85 0 013.76 2.07c.77.77 1.3 1.75 1.72 2.76a13 13 0 011.06 4.72c.04 1.69-.33 3.4-.1 5.07a9.64 9.64 0 001.5 3.8c.74 1.17 1.63 2.22 2.52 3.27 1.72 2.03 3.44 4.1 5.6 5.65 2.45 1.78 5.36 2.81 7.89 4.47.75.5 1.48 1.05 2.02 1.78.9 1.23 1.14 2.9.62 4.34" clip-path="url(#ab)" fill="#cd8907" filter="url(#ac)"/>
    <path transform="matrix(1.143 0 0 1.2323 -319 -135.49)" d="M508.79 327.93a14.95 14.95 0 01-2.31 3.5 19.26 19.26 0 01-8.12 5.16c-5.05 1.77-10.55 2-15.5 4.02-3.02 1.23-5.73 3.07-8.48 4.82a43.6 43.6 0 01-6.93 3.75 37.73 37.73 0 01-8.63 2.18 28.5 28.5 0 01-5.65.4c-1.89-.1-3.78-.52-5.45-1.41a7.36 7.36 0 01-3.08-2.92c-.75-1.4-.88-3.05-.86-4.65.05-4.24 1.03-8.44 1-12.69-.03-3.7-.82-7.34-1.04-11.03-.44-7.1 1.2-14.32-.24-21.28-.24-1.11-.55-2.22-.53-3.36 0-.57.1-1.14.31-1.67.22-.52.57-1 1.03-1.34.39-.28.85-.45 1.32-.52.48-.08.96-.06 1.43 0 .95.14 1.86.49 2.78.74 2.64.73 5.43.72 8.12 1.27 1.68.34 3.31.9 4.98 1.33 2.8.71 5.72 1.01 8.6.7 3.08-.33 6.1-1.37 9.2-1.3 1.28.03 2.54.25 3.77.6 1.23.33 2.46.81 3.39 1.68a7.32 7.32 0 011.54 2.26c.57 1.22.96 2.53.96 3.87-.01.7-.12 1.39-.2 2.08-.06.7-.08 1.4.1 2.08.18.68.55 1.29.98 1.84.43.55.92 1.06 1.36 1.6 1.24 1.52 2.13 3.29 3.1 5 .97 1.7 2.05 3.38 3.58 4.61 2.08 1.68 4.78 2.34 7.1 3.66.67.4 1.33.85 1.8 1.46a3.77 3.77 0 01.57 3.56" clip-path="url(#ad)" fill="#f5c021" filter="url(#ae)"/>
    <path d="M27.3 290.65c3.29-.89 6.08 1.6 8.45 3.47 1.54 1.31 3.75.98 5.64 1.04 3.12-.1 6.22.53 9.35.14 6.14-.52 12.16-2.03 18.34-2.29 2.95-.19 6.26-.36 8.8 1.37 1.04.71 2.55 3.74 3.57 2.6-.42-3.18-2.78-6.26-5.94-7.1-2.47-.4-4.99.29-7.49.07-7.42-.18-14.79-1.56-22.23-1.16-5.18.04-10.35-.2-15.52-.4-2.03-.41-2.74 1.4-3.84 2.08" fill="url(#af)" filter="url(#ag)" transform="translate(160 -58.36)"/>
  </g>
  <path transform="matrix(-.09596 -.95701 -.77476 .11853 398.9 493.25)" d="M361.75 209.34c0-1.53-7.56-10.06-9.79-8.49-2.22 1.57-.5 3.79-.3 5.5.2 1.72-.94 6.61.24 7.26s3.37-2.52 5.3-4.28c1.56-1.41 4.55 1.54 4.55.01z" fill="#7c7c7c" filter="url(#ah)" opacity=".75"/>
  <path transform="matrix(-.06992 .95701 -.56451 -.11853 236.57 -180.38)" d="M351.96 200.86c-1.45.39-1.23 4-.3 5.5.8 1.27 3.08 2.27 3.76 1 1.12-2.05-1.47-7.03-3.46-6.5z" fill="#7c7c7c" filter="url(#ai)" opacity=".25"/>
  <g transform="translate(160 -58.36)" fill="url(#aj)">
    <path d="M71.48 295.64a5.33 5.33 0 00-2.72-2.4 9.24 9.24 0 00-3.64-.62c-2.47.02-4.93.66-7.4.45-2.08-.18-4.06-.96-6.09-1.46a12.9 12.9 0 00-6.4-.14 9.42 9.42 0 00-5.42 4.04 12.7 12.7 0 00-1.76 5.78c-.17 2.03 0 4.07.21 6.1.15 1.46.32 2.92.67 4.35.36 1.43.9 2.82 1.77 4.02a10.84 10.84 0 005.07 3.67 14.09 14.09 0 0010.13-.18 27.95 27.95 0 0013.37-12.3 26.2 26.2 0 002.38-6.16c.2-.85.37-1.72.38-2.6a5.5 5.5 0 00-.55-2.55" filter="url(#ak)" opacity=".35"/>
    <path transform="matrix(1 0 0 .72293 0 80.76)" d="M71.48 295.64a5.33 5.33 0 00-2.72-2.4 9.24 9.24 0 00-3.64-.62c-2.47.02-4.93.66-7.4.45-2.08-.18-4.06-.96-6.09-1.46a12.9 12.9 0 00-6.4-.14 9.42 9.42 0 00-5.42 4.04 12.7 12.7 0 00-1.76 5.78c-.17 2.03 0 4.07.21 6.1.15 1.46.32 2.92.67 4.35.36 1.43.9 2.82 1.77 4.02a10.84 10.84 0 005.07 3.67 14.09 14.09 0 0010.13-.18 27.95 27.95 0 0013.37-12.3 26.2 26.2 0 002.38-6.16c.2-.85.37-1.72.38-2.6a5.5 5.5 0 00-.55-2.55" filter="url(#al)" opacity=".35"/>
  </g>
  <g>
    <path d="M236.19 226.97a7.32 7.32 0 00-2-2.87 10.6 10.6 0 00-2.98-1.85c-2.16-.92-4.52-1.27-6.83-1.7-2.18-.4-4.34-.9-6.52-1.28-2.28-.38-4.62-.63-6.87-.12a11.72 11.72 0 00-5.27 2.82 15.07 15.07 0 00-3.49 4.89 21.12 21.12 0 00-1.65 10.4c.2 2.63.87 5.35 2.6 7.34a11.36 11.36 0 005.44 3.22c3.53 1.04 7.37.99 10.86-.16a28.58 28.58 0 0014.33-10.77 15.78 15.78 0 002.56-5.4 8.04 8.04 0 00-.18-4.52" fill="#020204"/>
    <path transform="translate(-150 -58.36)" d="M362.22 276.46a12.48 12.48 0 00-10.06 6.03 12.38 12.38 0 00-1.66 7.16c.07-1.74.53-3.45 1.38-4.97a10.22 10.22 0 016.93-5.06c1.8-.33 3.64-.13 5.44.09 1.73.22 3.48.44 5.19.81 2.64.57 5.25 1.45 7.47 3 .51.36 1 .77 1.4 1.25.41.48.73 1.04.85 1.66.18.9-.08 1.85-.53 2.65-.46.8-1.07 1.51-1.72 2.16-.53.53-1.1 1.04-1.66 1.53 2.56-.5 5.15-1.2 7.28-2.69a7.25 7.25 0 002.25-2.34c.54-.96.76-2.12.5-3.19a4.66 4.66 0 00-1.06-1.93 9.45 9.45 0 00-1.69-1.44 20.02 20.02 0 00-9.06-3.47c-2.08-.38-4.18-.7-6.28-.97-1.64-.2-3.32-.37-4.97-.28z" clip-path="url(#am)" fill="url(#an)" filter="url(#ao)"/>
    <path transform="translate(-150 -58.36)" d="M362.22 276.46a12.48 12.48 0 00-10.06 6.03 12.38 12.38 0 00-1.66 7.16c.07-1.74.53-3.45 1.38-4.97a10.22 10.22 0 016.93-5.06c1.8-.33 3.64-.13 5.44.09 1.73.22 3.48.44 5.19.81 2.64.57 5.25 1.45 7.47 3 .51.36 1 .77 1.4 1.25.41.48.73 1.04.85 1.66.18.9-.08 1.85-.53 2.65-.46.8-1.07 1.51-1.72 2.16-.53.53-1.1 1.04-1.66 1.53 2.56-.5 5.15-1.2 7.28-2.69a7.25 7.25 0 002.25-2.34c.54-.96.76-2.12.5-3.19a4.66 4.66 0 00-1.06-1.93 9.45 9.45 0 00-1.69-1.44 20.02 20.02 0 00-9.06-3.47c-2.08-.38-4.18-.7-6.28-.97-1.64-.2-3.32-.37-4.97-.28z" clip-path="url(#ap)" fill="url(#aq)" filter="url(#ar)"/>
  </g>
  <g>
    <path d="M98.5 126.06c-2.79 3.47-5.56 6.95-8.34 10.43-2.85 3.59-5.7 7.18-8.58 10.75-3.54 4.38-7.15 8.8-9.45 13.93-1.98 4.42-2.91 9.21-4.27 13.85a104.81 104.81 0 01-5.97 15.34 307.8 307.8 0 01-6.94 13.53c-1.74 3.26-3.5 6.59-4.1 10.23a21 21 0 00.53 8.66 39.96 39.96 0 003.24 8.1c5.66 11.08 14.17 20.63 24.24 27.93a85.17 85.17 0 0014.6 8.53c2.78 1.27 5.71 2.4 8.77 2.46 1.53.02 3.08-.23 4.48-.84a7.94 7.94 0 003.48-2.9c1.02-1.57 1.37-3.53 1.16-5.4s-.93-3.65-1.91-5.26c-2.39-3.92-6.16-6.76-9.8-9.57a327.5 327.5 0 01-22.68-19.24c-2.05-1.91-4.1-3.88-5.53-6.29a23.54 23.54 0 01-2.66-7.69 42.66 42.66 0 011.46-22.13c.98-2.76 2.27-5.4 3.52-8.04 2.16-4.59 4.2-9.27 7.05-13.47 3.54-5.23 8.27-9.66 11.15-15.28 2.44-4.74 3.42-10.07 4.36-15.31.74-4.1 1.47-8.21 2.19-12.32" fill="#020204"/>
    <path transform="translate(-150 -58.36)" d="M232.33 224.27a33 33 0 00-5.95 7.32c-2.67 4.46-4.24 9.47-6.18 14.29-1.45 3.59-3.13 7.19-3.33 11.05-.1 1.99.2 3.97.26 5.95.06 2-.12 4.06-1.1 5.79a7 7 0 01-3.72 3.14c2.11.71 4 2.08 5.33 3.87 1.12 1.5 1.83 3.25 2.8 4.85.78 1.3 1.75 2.5 2.94 3.44s2.61 1.62 4.12 1.82a7.26 7.26 0 005.76-1.85 135.28 135.28 0 015.15-53.8c.34-1.1.69-2.2.77-3.34a4.8 4.8 0 00-.82-3.25 3.54 3.54 0 00-4.9-.7c-.5.37-.89.86-1.13 1.42" clip-path="url(#as)" fill="#7c7c7c" filter="url(#at)" opacity=".95"/>
  </g>
  <g transform="translate(-80 -58.36)" clip-path="url(#au)">
    <path d="M137.58 281.02c1.6-.66 3.4-.78 5.1-.47 1.7.31 3.31 1.05 4.74 2.02 2.87 1.95 5 4.78 7.03 7.58 4.67 6.44 9.17 13 13.24 19.83 3.3 5.54 6.35 11.26 10.17 16.45 2.49 3.4 5.3 6.54 7.8 9.93 2.52 3.38 4.74 7.05 5.85 11.11a22.3 22.3 0 01-1.63 15.96 21.07 21.07 0 01-7.77 8.34 20.04 20.04 0 01-11.02 2.87c-6.11-.23-11.7-3.29-17.38-5.55-11.58-4.62-24.16-6.06-36.1-9.66-3.67-1.1-7.27-2.4-10.97-3.42-1.64-.45-3.3-.85-4.86-1.55-1.55-.7-3-1.75-3.86-3.22a7.29 7.29 0 01-.93-3.79c.02-1.31.33-2.61.78-3.85.9-2.47 2.34-4.71 3.32-7.15 1.59-4 1.88-8.4 1.66-12.68-.21-4.3-.9-8.55-1.2-12.83-.13-1.92-.18-3.86.18-5.74a9.47 9.47 0 012.56-5.06c1.27-1.22 2.96-1.95 4.7-2.31s3.51-.38 5.28-.34c1.77.04 3.54.13 5.3-.01 1.77-.14 3.54-.54 5.07-1.42a11.99 11.99 0 003.65-3.43c.99-1.36 1.79-2.85 2.6-4.32a27.6 27.6 0 012.75-4.22 10.44 10.44 0 013.94-3.07" fill="url(#av)"/>
    <path d="M140.11 283.78a7.82 7.82 0 014.62-.3c1.53.34 2.95 1.09 4.2 2.04 2.47 1.92 4.2 4.62 5.85 7.27a471.25 471.25 0 0111.51 19.57c2.78 5 5.43 10.1 8.84 14.68 2.26 3.04 4.85 5.83 7.16 8.83 2.3 3.01 4.37 6.29 5.39 9.94 1.32 4.7.78 9.9-1.5 14.23a18.98 18.98 0 01-7.18 7.51 18.5 18.5 0 01-10.09 2.5c-5.6-.27-10.71-3.06-15.98-4.96-10.1-3.67-21.05-4.16-31.42-7.02-3.71-1-7.33-2.35-11.07-3.3-1.65-.41-3.33-.75-4.9-1.41a7.95 7.95 0 01-3.9-3.17 6.9 6.9 0 01-.84-3.65c.04-1.27.36-2.51.8-3.7.9-2.36 2.33-4.5 3.24-6.87 1.38-3.57 1.55-7.5 1.3-11.33s-.93-7.6-1.16-11.43c-.1-1.7-.12-3.44.22-5.12a8.78 8.78 0 012.3-4.5 8.93 8.93 0 014.98-2.31c1.83-.28 3.7-.16 5.55 0 1.85.17 3.7.38 5.56.27 1.86-.11 3.74-.57 5.27-1.61 1.4-.95 2.45-2.32 3.25-3.8.8-1.47 1.36-3.05 1.97-4.62.61-1.56 1.27-3.12 2.22-4.5a8.7 8.7 0 013.8-3.24" fill="#d99a03" filter="url(#aw)"/>
    <path transform="matrix(1 0 0 .98205 0 3.96)" d="M138.75 281.24a7.1 7.1 0 014.62-.54 9.8 9.8 0 014.2 2.1c2.43 2 3.97 4.87 5.41 7.68 3.3 6.46 6.38 13.05 10.34 19.13 2.87 4.41 6.18 8.52 9.08 12.9 3.94 5.96 7.14 12.5 8.46 19.51.89 4.72.86 9.81-1.37 14.06a15.51 15.51 0 01-6.67 6.53 16.99 16.99 0 01-9.19 1.73c-4.95-.44-9.45-2.92-14.11-4.65-8.28-3.07-17.22-3.8-25.74-6.12-3.59-.98-7.1-2.24-10.75-3.01-1.6-.34-3.24-.6-4.78-1.18a7.04 7.04 0 01-3.77-3 6.14 6.14 0 01-.65-3.37c.08-1.15.42-2.27.86-3.34.9-2.13 2.2-4.09 2.9-6.3 1-3.24.6-6.75-.17-10.06-.76-3.31-1.86-6.56-2.2-9.94a14 14 0 01.2-4.52 8 8 0 012.1-3.95 8.72 8.72 0 015.29-2.23c1.94-.19 3.9.07 5.82.35 1.93.29 3.87.6 5.82.5a9.42 9.42 0 005.45-1.82 9.51 9.51 0 003-4.84c.54-1.85.72-3.78.94-5.7s.5-3.84 1.23-5.62a8.17 8.17 0 013.68-4.3" fill="#f5bd0c" filter="url(#ax)"/>
    <path d="M156.41 295.97c2.6 4.71 4.2 10.12 6.78 14.88 2.38 4.37 5.09 8.87 7.5 12.9 1.08 1.8 3.58 4.56 6.12 8.84 2.3 3.88 4.62 9.3 5.92 11.11-.75-2.12-2.28-7.84-4.11-11.92-1.71-3.8-3.7-5.98-4.93-8.03-2.41-4.03-5.02-7.66-7.5-11.5-3.42-5.3-6.03-11.23-9.78-16.28z" fill="url(#ay)" filter="url(#az)"/>
  </g>
</svg>
