<svg xmlns="http://www.w3.org/2000/svg" viewBox="0 0 630 730">
  <path fill="#191919" d="M234 63c-7 13-11 28-11 47-2 81 3 68 0 105-1 17-3 23-12 44-9 22-19 35-33 54-18 24-41 57-54 84-8 15-14 38-17 53l-1 36c-9 8-14 22-23 32-6 6-18 9-31 11-12 2-23 7-28 13l-1 3c-9 18 2 49-3 72-3 10-7 19-7 28 0 4 1 9 4 14 3 6 11 10 21 14l37 9 5 1 20 5 9 2c9 1 13 2 38 12l19 7c14 4 30 7 45 5 7-2 14-5 20-9a77 77 0 0020-25 44 44 0 004-9c6-3 20-8 55-8 52-1 87 18 87 18l1 7a37 37 0 0011 17l11 8a63 63 0 0028 7l15-1c9-1 15-4 21-8 6-3 10-7 15-12l10-8a552 552 0 0013-10l16-12a308 308 0 0133-22l16-11c10-7 23-15 28-25l2-10c-1-12-15-23-27-33a54 54 0 01-22-31c-2-13-2-23-8-31s-11-10-20-11l-3-1c5-20 7-33 6-50-6-61-45-105-66-135-13-19-29-39-36-53-7-13-12-32-15-42-4-11-5-36-6-77 2-63-18-92-41-110a101 101 0 00-145 36z"/>
  <path fill="#fcc624" d="M77 529c-12 6-40 6-47 18-8 13-3 28-3 44 0 12 0 25-5 39-4 11-5 15 0 25 6 11 31 15 66 24 34 8 23 2 61 17 24 9 57 20 79 3 8-6 21-20 22-34 0-8 0-16-2-21-7-17-19-24-31-42l-63-92c-13-19-24-24-33-22-27 4-18 29-44 41zm347-28c-12 9-10 34-10 48-2 20-2 43-2 52-2 15-13 49-12 65 2 16 3 25 13 34 10 10 27 16 49 13s30-16 44-27c14-10 28-23 47-35s48-31 53-36c4-6 7-10 4-17s-14-18-26-28c-31-25-17-49-30-61-4-5-7-7-12-8-24-5-31 5-46 3-15-1-9 2-41-2-11-1-24-6-31-1z"/>
  <path fill="#f5f5f5" d="M223 307c-11 24-11 16-18 41-10 9-22 34-29 56-10 31-17 63-8 101l10 10 17 14c23 18 40 27 43 39 5 15-5 26-17 32 9 9 37 27 88 25 46-2 74-20 98-49l2-31c0-11 0-23 2-32l2-6c3-8 11-13 18-13h13c6-48 1-81-23-132-2-3-11-18-17-23-4-20-4-19-13-38-13-29-17-62-21-81-3 1-7 3-14 9l-22 17-15 9c-8 3-15 5-20 5-20 1-29-4-38-13l-11-13-8-8c0 3-8 57-19 81zm146-91v-1 1zm-59-52c-1-6-1-16 3-28 6-19 26-32 44-23 17 9 21 32 17 46-3 8-9 17-14 23l-13-5a26 26 0 003-40c-8-6-20-3-25 8-5 7-5 16-2 23l-13-4zm-64-46c16-6 26 8 30 28v17l-1 1-6 3v-4c2-11-3-23-11-26s-15 4-17 15c-1 10 4 21 11 25a151 151 0 00-6 4c-6-5-10-14-12-23-4-17 0-36 12-40z"/>
  <path fill="#e09d00" d="M412 578c1 12 3 24 2 36-1 25-1 58 8 68 15 20 36 19 63 10 14-5 23-11 41-22l3-2-23 18c-14 11-22 24-44 27s-39-3-49-13c-10-9-11-18-13-34l3-24 9-41v-23zM20 638c1 5 4 15 13 20 12 7 51 13 91 21 40 7 54 21 83 13 56-13 26-66 30-65h1l10 17c2 5 2 13 2 21-1 14-14 28-22 34-22 17-55 6-79-3-38-15-27-9-61-17-35-9-60-13-66-24-4-7-4-11-2-17zm211 67zm199-206c-3 68 27 82 59 52 8-7 15-21 22-31l3-5c-3 5-6 10-11 15-14 16-38 26-54 19-14-6-19-33-18-50h-1z"/>
  <path fill="#fcc624" d="M369 216v-1 1zm-129 3l1 1 11 12 12 13c6 6 13 9 22 10 18 3 31-2 46-12l22-18c10-7 12-6 15-10 3-3 4-13 3-18 0-3-2-5-5-8l-25-10h-2v-1h-3v-1h-3v-1h-2v-1h-3v-1h-2l-1-1h-2v-1h-1c-12-5-21-8-33-7-4 0-8 0-14 2v1h-2v1h-2l-1 1h-1v1h-2v1h-2v1h-2v1h-1v1h-2v1h-2v1h-1v1h-2v1h-1v1h-2v1h-1v1c-6 4-13 10-16 15-2 4-6 11-2 15l15 8c13 8 28 12 41 11 11 0 22-4 31-8l29-18 6-5c2-1 7 0 7 1 0 2-7 4-9 6l-31 20c-9 4-23 8-32 9-9 0-16-1-24-3l-19-9-8-5z"/>
  <path fill="#e09d00" d="M366 216c-1 0-7 3-15 9-8 5-17 13-25 17-19 8-31 8-39 7-7-2-9-7-12-13v-1l-7-2-20-9-8-5 1 1 11 12 7 7 10 10c5 3 10 5 17 6 18 3 31-2 46-12l22-18c7-5 10-6 13-7l-1-2zm-117 4c1-4 3-16 17-33a822 822 0 0118-22l-5 2h-3v1h-2v1h-2v1h-2v1h-2v1h-2v1h-1l-1 1h-1v1h-2v1h-1l-1 1h-1v1h-2v1h-1v1h-2v1h-1v1c-6 4-13 10-16 15-2 4-6 11-2 15l15 8z"/>
  <path fill="#191919" d="M296 173c0-1 7-2 10 0s3 4 2 5-10-4-12-5z"/>
  <path fill="#d9dadb" d="M305 608a135 135 0 00103-52l-1 20c-24 29-52 47-98 49-51 2-79-16-88-25 6-3 10-7 14-11 0 0 28 21 70 19zm104-53zm-92-427s13-8 32-3c15 3 23 17 26 22 0-12-5-27-18-34-14-7-30 0-39 13l-1 2zm-84 10c3-4 10-10 20-10 12 0 19 9 22 14-4-18-14-29-29-24-7 2-11 10-13 20zm6 107c3 1 7 3 11 10 10 13 21 21 38 22 19 1 38-12 47-20 6-5 17-14 26-19 4-3 9-4 12-4l-3-14c-3 1-7 3-14 9l-22 17-15 9c-8 3-15 5-20 5-20 1-29-4-38-13l-11-13-8-8-3 19z"/>
  <path fill="#6e6f70" d="M171 358c-25 27-33 64-29 95 2 19 12 35 24 49l7 8-12-9c-41-35-32-105 9-144 1-1 3-1 1 1z"/>
  <path fill="#191919" d="M283 173c-1-2-5-1-8 0-2 1-3 3-2 4 0 1 1 2 2 1l4-2 4-3z"/>
  <path fill="#6e6f70" d="M438 351c25 26 34 54 33 83-1 14-6 30-9 41-6 21 5 5 7-2 5-11 8-30 7-44-1-34-16-60-37-78h-1z"/>
  <path fill="#191919" d="M524 498l1-5c2-16-30-20-54-19l-25 3c-9 3-14 9-15 17-2 15 3 48 18 55 16 7 40-3 54-19 10-11 16-23 21-32z"/>
  <path fill="#6e6f70" d="M438 490c-4 5 21 1 38 4 9 2 17 8 23 8 18 0 20-10 6-17-17-10-59-6-67 5zM346 52c3 8-3 13 4 17 5 3 10-1 19 0 16 3 27 12 23-2-1-6-7-13-14-19-12-10-28-18-37-13-5 3 2 7 5 17zm66 185c0-2-2-5-5-7-4-5-10-8-14-5-6 3 1 21 6 23 8 3 14-5 13-11zm-149-79c-1 0 0-3-3-6-3-4-6-4-5-7 0-2 5 0 8 5 2 4 1 8 0 8zm87 0c-1 0 0-3-3-8-4-4-8-4-7-8 1-3 7 1 10 6 3 6 1 11 0 10z"/>
</svg>