<?xml version="1.0" encoding="UTF-8" standalone="no"?> <!-- Created with Vectornator for iOS (http://vectornator.io/) --><!DOCTYPE svg PUBLIC "-//W3C//DTD SVG 1.1//EN" "http://www.w3.org/Graphics/SVG/1.1/DTD/svg11.dtd">
<svg style="fill-rule:evenodd;clip-rule:evenodd;stroke-linecap:round;stroke-linejoin:round;" xmlns:vectornator="http://vectornator.io" xmlns:xlink="http://www.w3.org/1999/xlink" xmlns="http://www.w3.org/2000/svg" xml:space="preserve" version="1.1" viewBox="0 0 1024 1024">
<metadata>
<vectornator:setting key="DisplayWhiteBackground" value="0"/>
<vectornator:setting key="RulersVisible" value="1"/>
<vectornator:setting key="SnapToEdges" value="0"/>
<vectornator:setting key="Units" value="Pixels"/>
<vectornator:setting key="DynamicGuides" value="0"/>
<vectornator:setting key="SnapToPoints" value="0"/>
<vectornator:setting key="SnapToGrid" value="0"/>
<vectornator:setting key="SnapToGuides" value="1"/>
<vectornator:setting key="ShowGrid" value="1"/>
<vectornator:setting key="GridSpacing" value="36"/>
</metadata>
<defs/>
<g id="Layer 1" vectornator:layerName="Layer 1">
<path stroke="#ffffff" stroke-width="0.5" d="M351.43+308.92L528.569+370.197L528.569+567.064L351.43+505.787L351.43+308.92Z" fill="#7dd3f7" stroke-linecap="round" opacity="1" stroke-linejoin="round"/>
<path stroke="#ffffff" stroke-width="0.5" d="M254.213+167.246L254.213+580.21L625.826+708.748L625.826+295.785L254.213+167.246ZM322.851+267.241L557.129+348.325L557.129+608.694L322.851+527.669L322.851+267.241Z" fill="#2091d0" stroke-linecap="round" opacity="1" stroke-linejoin="round"/>
<path stroke="#ffffff" stroke-width="0.5" d="M414.886+193.457L654.071+274.242L654.071+540.116L708.347+558.906L708.347+232.772L414.886+131.282L414.886+193.457" fill="#34c6f3" stroke-linecap="round" opacity="1" stroke-linejoin="round"/>
<path stroke="#ffffff" stroke-width="0.5" d="M581.041+161.81C640.837+182.006+735.969+213.872+735.969+213.872L735.969+397.404L790.245+416.194L790.245+172.402L581.041+99.6352L581.041+161.81" fill="#7dd3f7" stroke-linecap="round" opacity="1" stroke-linejoin="round"/>
<g opacity="0">
<path d="M242.478+771.803L279.463+771.803L279.463+878.86C279.463+890.834+280.881+899.578+283.717+905.092C288.128+914.861+297.739+919.745+312.549+919.745C327.28+919.745+336.851+914.861+341.263+905.092C344.099+899.578+345.517+890.834+345.517+878.86L345.517+771.803L382.502+771.803L382.502+878.86C382.502+897.372+379.627+911.788+373.876+922.108C363.163+941.014+342.72+950.467+312.549+950.467C282.378+950.467+261.896+941.014+251.104+922.108C245.353+911.788+242.478+897.372+242.478+878.86L242.478+771.803Z" opacity="1" fill="#006fbd"/>
<path d="M482.703+892.212C483.806+900.169+485.972+906.116+489.202+910.055C495.11+917.224+505.233+920.808+519.57+920.808C528.157+920.808+535.129+919.863+540.485+917.972C550.647+914.348+555.728+907.613+555.728+897.766C555.728+892.015+553.208+887.565+548.166+884.414C543.124+881.341+535.207+878.624+524.415+876.26L505.981+872.125C487.863+868.028+475.338+863.577+468.405+858.772C456.668+850.737+450.799+838.172+450.799+821.078C450.799+805.48+456.471+792.521+467.814+782.202C479.158+771.882+495.819+766.722+517.798+766.722C536.153+766.722+551.809+771.587+564.768+781.315C577.727+791.044+584.521+805.165+585.151+823.677L550.175+823.677C549.545+813.2+544.976+805.756+536.468+801.344C530.796+798.43+523.745+796.972+515.316+796.972C505.942+796.972+498.458+798.863+492.865+802.644C487.272+806.425+484.476+811.703+484.476+818.478C484.476+824.701+487.233+829.349+492.747+832.421C496.292+834.47+503.854+836.872+515.435+839.629L545.448+846.837C558.604+849.988+568.53+854.203+575.226+859.481C585.624+867.674+590.823+879.529+590.823+895.048C590.823+910.961+584.738+924.176+572.567+934.692C560.396+945.209+543.203+950.467+520.988+950.467C498.301+950.467+480.458+945.288+467.46+934.929C454.462+924.57+447.963+910.331+447.963+892.212L482.703+892.212Z" opacity="1" fill="#006fbd"/>
<path d="M692.206+802.053L692.206+915.727L725.764+915.727C742.938+915.727+754.912+907.259+761.686+890.322C765.389+881.026+767.24+869.958+767.24+857.118C767.24+839.393+764.463+825.785+758.909+816.292C753.356+806.799+742.307+802.053+725.764+802.053L692.206+802.053ZM758.85+775.584C771.061+779.602+780.947+786.968+788.51+797.681C794.575+806.347+798.711+815.721+800.917+825.804C803.122+835.888+804.225+845.498+804.225+854.636C804.225+877.796+799.578+897.412+790.282+913.482C777.678+935.145+758.22+945.977+731.909+945.977L656.875+945.977L656.875+771.803L731.909+771.803C742.701+771.961+751.682+773.221+758.85+775.584Z" opacity="1" fill="#006fbd"/>
</g>
<g opacity="1">
<path stroke="#ffffff" stroke-width="0.5" d="M400.904+858.329C400.904+869.167+399.084+879.03+395.443+887.92C391.803+896.81+386.596+904.43+379.822+910.78C373.049+917.13+364.879+922.083+355.311+925.639C345.744+929.195+335.118+930.973+323.434+930.973C311.581+930.973+300.913+929.195+291.43+925.639C281.948+922.083+273.904+917.13+267.3+910.78C260.696+904.43+255.616+896.81+252.06+887.92C248.504+879.03+246.726+869.167+246.726+858.329L246.726+746.315L289.906+746.315L289.906+854.773C289.906+859.684+290.541+864.341+291.811+868.743C293.081+873.146+295.029+877.083+297.653+880.554C300.278+884.026+303.749+886.777+308.067+888.809C312.385+890.841+317.592+891.857+323.688+891.857C329.784+891.857+334.991+890.841+339.309+888.809C343.627+886.777+347.141+884.026+349.85+880.554C352.56+877.083+354.507+873.146+355.692+868.743C356.878+864.341+357.47+859.684+357.47+854.773L357.47+746.315L400.904+746.315L400.904+858.329Z" fill="#d1d2d4" stroke-linecap="round" opacity="1" stroke-linejoin="round"/>
<path stroke="#ffffff" stroke-width="0.5" d="M540.952+793.051C537.227+788.31+532.359+784.542+526.347+781.748C520.336+778.954+514.536+777.557+508.948+777.557C506.07+777.557+503.149+777.811+500.185+778.319C497.222+778.827+494.555+779.801+492.184+781.24C489.814+782.68+487.824+784.542+486.215+786.828C484.607+789.114+483.802+792.035+483.802+795.591C483.802+798.639+484.437+801.179+485.707+803.211C486.977+805.243+488.84+807.021+491.295+808.545C493.751+810.069+496.672+811.466+500.058+812.736C503.445+814.006+507.255+815.319+511.488+816.673C517.584+818.705+523.934+820.949+530.538+823.404C537.142+825.86+543.154+829.119+548.572+833.183C553.991+837.247+558.478+842.285+562.034+848.296C565.59+854.308+567.368+861.801+567.368+870.775C567.368+881.105+565.463+890.037+561.653+897.572C557.843+905.108+552.721+911.331+546.286+916.241C539.852+921.152+532.486+924.793+524.188+927.163C515.891+929.534+507.34+930.719+498.534+930.719C485.665+930.719+473.219+928.476+461.196+923.988C449.174+919.501+439.183+913.109+431.224+904.811L459.672+875.855C464.075+881.274+469.875+885.804+477.071+889.444C484.268+893.085+491.422+894.905+498.534+894.905C501.752+894.905+504.884+894.567+507.932+893.889C510.98+893.212+513.647+892.111+515.933+890.587C518.219+889.063+520.04+887.031+521.394+884.491C522.749+881.951+523.426+878.903+523.426+875.347C523.426+871.961+522.58+869.082+520.886+866.711C519.193+864.341+516.78+862.182+513.647+860.234C510.515+858.287+506.62+856.509+501.963+854.9C497.307+853.292+492.015+851.556+486.088+849.693C480.331+847.831+474.701+845.629+469.197+843.089C463.694+840.549+458.783+837.29+454.465+833.31C450.147+829.331+446.676+824.505+444.051+818.832C441.427+813.16+440.114+806.259+440.114+798.131C440.114+788.141+442.146+779.589+446.21+772.477C450.274+765.365+455.608+759.523+462.212+754.951C468.816+750.379+476.267+747.035+484.564+744.918C492.862+742.802+501.244+741.743+509.71+741.743C519.87+741.743+530.242+743.606+540.825+747.331C551.409+751.057+560.68+756.56+568.638+763.841L540.952+793.051Z" fill="#d1d2d4" stroke-linecap="round" opacity="1" stroke-linejoin="round"/>
<path stroke="#ffffff" stroke-width="0.5" d="M773.964+835.723C773.964+851.471+771.043+865.06+765.201+876.49C759.359+887.92+751.655+897.318+742.087+904.684C732.52+912.05+721.725+917.469+709.702+920.94C697.68+924.412+685.488+926.147+673.126+926.147L606.07+926.147L606.07+746.315L671.094+746.315C683.794+746.315+696.325+747.797+708.686+750.76C721.048+753.724+732.054+758.634+741.706+765.492C751.358+772.35+759.148+781.537+765.074+793.051C771.001+804.566+773.964+818.79+773.964+835.723ZM728.752+835.723C728.752+825.563+727.101+817.139+723.799+810.45C720.497+803.762+716.095+798.428+710.591+794.448C705.088+790.469+698.823+787.633+691.795+785.939C684.768+784.246+677.529+783.399+670.078+783.399L648.488+783.399L648.488+888.555L669.062+888.555C676.852+888.555+684.345+887.666+691.541+885.888C698.738+884.11+705.088+881.189+710.591+877.125C716.095+873.061+720.497+867.643+723.799+860.869C727.101+854.096+728.752+845.714+728.752+835.723Z" fill="#d1d2d4" stroke-linecap="round" opacity="1" stroke-linejoin="round"/>
</g>
</g>
</svg>
