<?xml version="1.0" encoding="UTF-8" standalone="no"?><!-- Generator: Gravit.io --><svg xmlns="http://www.w3.org/2000/svg" xmlns:xlink="http://www.w3.org/1999/xlink" style="isolation:isolate" viewBox="0 0 512 512" width="512pt" height="512pt"><defs><clipPath id="_clipPath_AMbrNAYUgE6mJZcZ14nPoEbgO4A3aXEE"><rect width="512" height="512"/></clipPath></defs><g clip-path="url(#_clipPath_AMbrNAYUgE6mJZcZ14nPoEbgO4A3aXEE)"><g><path d=" M 206.5 69.5 L 206.5 317.5 L 458.5 352.5 L 459.5 167.5 L 384.5 92.5 L 206.5 69.5 Z " fill="rgb(0,114,189)" vector-effect="non-scaling-stroke" stroke-width="4" stroke="rgb(255,255,255)" stroke-linejoin="miter" stroke-linecap="square" stroke-miterlimit="3"/><path d=" M 299.41 157.244 C 297.705 138.238 309.962 121.585 326.764 120.078 C 343.566 118.57 358.591 132.777 360.296 151.782 C 362.001 170.788 349.744 187.442 332.942 188.949 C 316.14 190.456 301.115 176.249 299.41 157.244 Z " fill="rgb(255,255,255)"/><path d=" M 357.613 276.686 C 355.908 257.68 368.165 241.026 384.967 239.519 C 401.769 238.012 416.794 252.219 418.499 271.224 C 420.204 290.23 407.947 306.883 391.145 308.39 C 374.343 309.897 359.318 295.691 357.613 276.686 Z " fill="rgb(255,255,255)"/><rect x="355.954" y="177.487" width="9" height="77.905" transform="matrix(0.883,-0.469,0.469,0.883,-59.404,194.252)" fill="rgb(255,255,255)"/></g><g><g opacity="0.5"><path d=" M 129.5 114 L 129.5 362 L 381.5 397 L 382.5 212 L 307.5 137 L 129.5 114 Z " fill="rgb(2,154,255)" vector-effect="non-scaling-stroke" stroke-width="4" stroke="rgb(255,255,255)" stroke-linejoin="miter" stroke-linecap="square" stroke-miterlimit="3"/></g><path d=" M 222.41 201.744 C 220.705 182.738 232.962 166.085 249.764 164.578 C 266.566 163.07 281.591 177.277 283.296 196.282 C 285.001 215.288 272.744 231.942 255.942 233.449 C 239.14 234.956 224.115 220.749 222.41 201.744 Z " fill="rgb(255,255,255)"/><path d=" M 164.456 303.186 C 162.751 284.18 175.008 267.526 191.81 266.019 C 208.612 264.512 223.637 278.719 225.342 297.724 C 227.046 316.73 214.79 333.383 197.988 334.89 C 181.186 336.397 166.16 322.191 164.456 303.186 Z " fill="rgb(255,255,255)"/><rect x="218.752" y="212.097" width="9" height="77.905" transform="matrix(0.868,0.496,-0.496,0.868,154.049,-77.703)" fill="rgb(255,255,255)"/></g><g><g opacity="0.35"><path d=" M 52.5 159.5 L 52.5 407.5 L 304.5 442.5 L 305.5 257.5 L 230.5 182.5 L 52.5 159.5 Z " fill="rgb(0,114,189)" vector-effect="non-scaling-stroke" stroke-width="4" stroke="rgb(255,255,255)" stroke-linejoin="miter" stroke-linecap="square" stroke-miterlimit="3"/></g><path d=" M 145.41 247.244 C 143.705 228.238 155.962 211.585 172.764 210.078 C 189.566 208.57 204.591 222.777 206.296 241.782 C 208.001 260.788 195.744 277.442 178.942 278.949 C 162.14 280.456 147.115 266.249 145.41 247.244 Z " fill="rgb(255,255,255)"/><path d=" M 203.613 366.686 C 201.908 347.68 214.165 331.026 230.967 329.519 C 247.769 328.012 262.794 342.219 264.499 361.224 C 266.204 380.23 253.947 396.883 237.145 398.39 C 220.343 399.897 205.318 385.691 203.613 366.686 Z " fill="rgb(255,255,255)"/><path d=" M 87.456 348.686 C 85.751 329.68 98.008 313.026 114.81 311.519 C 131.612 310.012 146.637 324.219 148.342 343.224 C 150.046 362.23 137.79 378.883 120.988 380.39 C 104.186 381.897 89.16 367.691 87.456 348.686 Z " fill="rgb(255,255,255)"/><rect x="141.752" y="257.597" width="9" height="77.905" transform="matrix(0.868,0.496,-0.496,0.868,166.478,-33.484)" fill="rgb(255,255,255)"/><rect x="201.954" y="267.487" width="9" height="77.905" transform="matrix(0.883,-0.469,0.469,0.883,-119.572,132.557)" fill="rgb(255,255,255)"/></g></g></svg>