<?xml version="1.0" encoding="UTF-8" standalone="no"?><!-- Generator: Gravit.io --><svg xmlns="http://www.w3.org/2000/svg" xmlns:xlink="http://www.w3.org/1999/xlink" style="isolation:isolate" viewBox="0 0 512 512" width="512pt" height="512pt"><defs><clipPath id="_clipPath_glv2kgiok7idG93H3Xx1hJWR4msuzxQ7"><rect width="512" height="512"/></clipPath></defs><g clip-path="url(#_clipPath_glv2kgiok7idG93H3Xx1hJWR4msuzxQ7)"><g><path d=" M 206.5 8 L 206.5 256 L 458.5 291 L 459.5 106 L 384.5 31 L 206.5 8 Z " fill="rgb(0,114,189)" vector-effect="non-scaling-stroke" stroke-width="4" stroke="rgb(255,255,255)" stroke-linejoin="miter" stroke-linecap="square" stroke-miterlimit="3"/><path d=" M 299.41 95.744 C 297.705 76.738 309.962 60.085 326.764 58.578 C 343.566 57.07 358.591 71.277 360.296 90.282 C 362.001 109.288 349.744 125.942 332.942 127.449 C 316.14 128.956 301.115 114.749 299.41 95.744 Z " fill="rgb(255,255,255)"/><path d=" M 357.613 215.186 C 355.908 196.18 368.165 179.526 384.967 178.019 C 401.769 176.512 416.794 190.719 418.499 209.724 C 420.204 228.73 407.947 245.383 391.145 246.89 C 374.343 248.397 359.318 234.191 357.613 215.186 Z " fill="rgb(255,255,255)"/><rect x="355.954" y="115.987" width="9" height="77.905" transform="matrix(0.883,-0.469,0.469,0.883,-30.571,187.075)" fill="rgb(255,255,255)"/></g><g><g opacity="0.5"><path d=" M 129.5 52.5 L 129.5 300.5 L 381.5 335.5 L 382.5 150.5 L 307.5 75.5 L 129.5 52.5 Z " fill="rgb(2,154,255)" vector-effect="non-scaling-stroke" stroke-width="4" stroke="rgb(255,255,255)" stroke-linejoin="miter" stroke-linecap="square" stroke-miterlimit="3"/></g><path d=" M 222.41 140.244 C 220.705 121.238 232.962 104.585 249.764 103.078 C 266.566 101.57 281.591 115.777 283.296 134.782 C 285.001 153.788 272.744 170.442 255.942 171.949 C 239.14 173.456 224.115 159.249 222.41 140.244 Z " fill="rgb(255,255,255)"/><path d=" M 164.456 241.686 C 162.751 222.68 175.008 206.026 191.81 204.519 C 208.612 203.012 223.637 217.219 225.342 236.224 C 227.046 255.23 214.79 271.883 197.988 273.39 C 181.186 274.897 166.16 260.691 164.456 241.686 Z " fill="rgb(255,255,255)"/><rect x="218.752" y="150.597" width="9" height="77.905" transform="matrix(0.868,0.496,-0.496,0.868,123.524,-85.813)" fill="rgb(255,255,255)"/></g><g><g opacity="0.35"><path d=" M 52.5 98 L 52.5 346 L 304.5 381 L 305.5 196 L 230.5 121 L 52.5 98 Z " fill="rgb(0,114,189)" vector-effect="non-scaling-stroke" stroke-width="4" stroke="rgb(255,255,255)" stroke-linejoin="miter" stroke-linecap="square" stroke-miterlimit="3"/></g><path d=" M 145.41 185.744 C 143.705 166.738 155.962 150.085 172.764 148.578 C 189.566 147.07 204.591 161.277 206.296 180.282 C 208.001 199.288 195.744 215.942 178.942 217.449 C 162.14 218.956 147.115 204.749 145.41 185.744 Z " fill="rgb(255,255,255)"/><path d=" M 203.613 305.186 C 201.908 286.18 214.165 269.526 230.967 268.019 C 247.769 266.512 262.794 280.719 264.499 299.724 C 266.204 318.73 253.947 335.383 237.145 336.89 C 220.343 338.397 205.318 324.191 203.613 305.186 Z " fill="rgb(255,255,255)"/><path d=" M 87.456 287.186 C 85.751 268.18 98.008 251.526 114.81 250.019 C 131.612 248.512 146.637 262.719 148.342 281.724 C 150.046 300.73 137.79 317.383 120.988 318.89 C 104.186 320.397 89.16 306.191 87.456 287.186 Z " fill="rgb(255,255,255)"/><rect x="141.752" y="196.097" width="9" height="77.905" transform="matrix(0.868,0.496,-0.496,0.868,135.953,-41.594)" fill="rgb(255,255,255)"/><rect x="201.954" y="205.987" width="9" height="77.905" transform="matrix(0.883,-0.469,0.469,0.883,-90.739,125.379)" fill="rgb(255,255,255)"/></g><text transform="matrix(1,0,0,1,101.719,494.312)" style="font-family:'Open Sans';font-weight:700;font-size:140px;font-style:normal;font-variant-ligatures:none;letter-spacing:10;fill:#0072bd;stroke:none;">USD</text></g></svg>