<?xml version="1.0" encoding="UTF-8"?>
<!DOCTYPE svg  PUBLIC '-//W3C//DTD SVG 1.1//EN'  'http://www.w3.org/Graphics/SVG/1.1/DTD/svg11.dtd'>
<svg clip-rule="evenodd" fill-rule="evenodd" stroke-linecap="round" stroke-linejoin="round" version="1.1" viewBox="0 0 1024 1024" xml:space="preserve" xmlns="http://www.w3.org/2000/svg" xmlns:vectornator="http://vectornator.io">
<g vectornator:layerName="Layer 1">
<path d="m308.46 269.28 221.71 76.695v246.4l-221.71-76.696v-246.4z" fill="#7dd3f7" stroke="#fff" stroke-linecap="round" stroke-linejoin="round" stroke-width=".5"/>
<path d="m186.78 91.956v516.87l465.12 160.88v-516.87l-465.12-160.88zm85.908 125.15 293.23 101.49v325.88l-293.23-101.41v-325.96z" fill="#2091d0" stroke="#fff" stroke-linecap="round" stroke-linejoin="round" stroke-width=".5"/>
<path d="m387.88 124.76 299.37 101.11v332.77l67.933 23.518v-408.19l-367.3-127.03v77.819" fill="#34c6f3" stroke="#fff" stroke-linecap="round" stroke-linejoin="round" stroke-width=".5"/>
<path d="m595.84 85.152c74.841 25.278 193.91 65.161 193.91 65.161v229.71l67.933 23.518v-305.13l-261.84-91.076v77.819" fill="#7dd3f7" stroke="#fff" stroke-linecap="round" stroke-linejoin="round" stroke-width=".5"/>
<g fill="#006fbd" opacity="0">
<path d="m242.48 771.8h36.985v107.06c0 11.974 1.418 20.718 4.254 26.232 4.411 9.769 14.022 14.653 28.832 14.653 14.731 0 24.302-4.884 28.714-14.653 2.836-5.514 4.254-14.258 4.254-26.232v-107.06h36.985v107.06c0 18.512-2.875 32.928-8.626 43.248-10.713 18.906-31.156 28.359-61.327 28.359s-50.653-9.453-61.445-28.359c-5.751-10.32-8.626-24.736-8.626-43.248v-107.06z" opacity="1"/>
<path d="m482.7 892.21c1.103 7.957 3.269 13.904 6.499 17.843 5.908 7.169 16.031 10.753 30.368 10.753 8.587 0 15.559-0.945 20.915-2.836 10.162-3.624 15.243-10.359 15.243-20.206 0-5.751-2.52-10.201-7.562-13.352-5.042-3.073-12.959-5.79-23.751-8.154l-18.434-4.135c-18.118-4.097-30.643-8.548-37.576-13.353-11.737-8.035-17.606-20.6-17.606-37.694 0-15.598 5.672-28.557 17.015-38.876 11.344-10.32 28.005-15.48 49.984-15.48 18.355 0 34.011 4.865 46.97 14.593 12.959 9.729 19.753 23.85 20.383 42.362h-34.976c-0.63-10.477-5.199-17.921-13.707-22.333-5.672-2.914-12.723-4.372-21.152-4.372-9.374 0-16.858 1.891-22.451 5.672s-8.389 9.059-8.389 15.834c0 6.223 2.757 10.871 8.271 13.943 3.545 2.049 11.107 4.451 22.688 7.208l30.013 7.208c13.156 3.151 23.082 7.366 29.778 12.644 10.398 8.193 15.597 20.048 15.597 35.567 0 15.913-6.085 29.128-18.256 39.644-12.171 10.517-29.364 15.775-51.579 15.775-22.687 0-40.53-5.179-53.528-15.538s-19.497-24.598-19.497-42.717h34.74z" opacity="1"/>
<path d="m692.21 802.05v113.67h33.558c17.174 0 29.148-8.468 35.922-25.405 3.703-9.296 5.554-20.364 5.554-33.204 0-17.725-2.777-31.333-8.331-40.826-5.553-9.493-16.602-14.239-33.145-14.239h-33.558zm66.644-26.469c12.211 4.018 22.097 11.384 29.66 22.097 6.065 8.666 10.201 18.04 12.407 28.123 2.205 10.084 3.308 19.694 3.308 28.832 0 23.16-4.647 42.776-13.943 58.846-12.604 21.663-32.062 32.495-58.373 32.495h-75.034v-174.17h75.034c10.792 0.158 19.773 1.418 26.941 3.781z" opacity="1"/>
</g>
<g fill="#d1d2d4" stroke="#fff" stroke-linecap="round" stroke-linejoin="round" stroke-width=".5">
<path d="m398.63 932.38c0 11.094-1.863 21.19-5.59 30.29-3.726 9.1-9.056 16.9-15.99 23.4-6.933 6.5-15.296 11.57-25.09 15.211-9.793 3.64-20.67 5.46-32.63 5.46-12.133 0-23.053-1.82-32.76-5.46-9.706-3.641-17.94-8.711-24.7-15.211s-11.96-14.3-15.6-23.4-5.46-19.196-5.46-30.29v-114.66h44.2v111.02c0 5.027 0.65 9.794 1.95 14.3 1.3 4.507 3.294 8.537 5.98 12.09 2.687 3.554 6.24 6.37 10.66 8.45s9.75 3.12 15.99 3.12 11.57-1.04 15.99-3.12 8.017-4.896 10.79-8.45c2.774-3.553 4.767-7.583 5.98-12.09 1.214-4.506 1.82-9.273 1.82-14.3v-111.02h44.46v114.66z"/>
<path d="m541.75 865.56c-3.813-4.853-8.796-8.71-14.95-11.57-6.153-2.86-12.09-4.29-17.81-4.29-2.946 0-5.936 0.26-8.97 0.78-3.033 0.52-5.763 1.517-8.19 2.99-2.426 1.474-4.463 3.38-6.11 5.72-1.646 2.34-2.47 5.33-2.47 8.97 0 3.12 0.65 5.72 1.95 7.8s3.207 3.9 5.72 5.46c2.514 1.56 5.504 2.99 8.97 4.29 3.467 1.3 7.367 2.644 11.7 4.03 6.24 2.08 12.74 4.377 19.5 6.89 6.76 2.514 12.914 5.85 18.46 10.01 5.547 4.16 10.14 9.317 13.78 15.47 3.64 6.154 5.46 13.824 5.46 23.01 0 10.574-1.95 19.717-5.85 27.43-3.9 7.714-9.143 14.084-15.73 19.11-6.586 5.027-14.126 8.751-22.62 11.181-8.493 2.43-17.246 3.64-26.26 3.64-13.173 0-25.913-2.3-38.22-6.891-12.306-4.593-22.533-11.136-30.68-19.63l29.12-29.64c4.507 5.547 10.444 10.184 17.81 13.91 7.367 3.727 14.69 5.59 21.97 5.59 3.294 0 6.5-0.346 9.62-1.04 3.12-0.693 5.85-1.82 8.19-3.38s4.204-3.64 5.59-6.24c1.387-2.6 2.08-5.72 2.08-9.36 0-3.466-0.866-6.413-2.6-8.84-1.733-2.426-4.203-4.636-7.41-6.63-3.206-1.993-7.193-3.813-11.96-5.46-4.766-1.646-10.183-3.423-16.25-5.33-5.893-1.906-11.656-4.16-17.29-6.76-5.633-2.6-10.66-5.936-15.08-10.01-4.42-4.073-7.973-9.013-10.66-14.82-2.686-5.806-4.03-12.87-4.03-21.19 0-10.226 2.08-18.98 6.24-26.26s9.62-13.26 16.38-17.94 14.387-8.103 22.88-10.27c8.494-2.166 17.074-3.25 25.74-3.25 10.4 0 21.017 1.907 31.85 5.72 10.834 3.814 20.324 9.447 28.47 16.9l-28.34 29.9z"/>
<path d="m780.03 909.24c0 16.12-2.99 30.03-8.97 41.73s-13.866 21.32-23.66 28.86c-9.793 7.54-20.843 13.087-33.15 16.64-12.306 3.551-24.786 5.331-37.44 5.331h-68.64v-184.08h66.56c13 0 25.827 1.517 38.48 4.55 12.654 3.034 23.92 8.06 33.8 15.08s17.854 16.424 23.92 28.21c6.067 11.787 9.1 26.347 9.1 43.68zm-46.28 0c0-10.4-1.69-19.023-5.07-25.87-3.38-6.846-7.886-12.306-13.52-16.38-5.633-4.073-12.046-6.976-19.24-8.71-7.193-1.733-14.603-2.6-22.23-2.6h-22.1v107.64h21.06c7.974 0 15.644-0.91 23.01-2.73 7.367-1.82 13.867-4.81 19.5-8.97 5.634-4.16 10.14-9.706 13.52-16.64 3.38-6.933 5.07-15.513 5.07-25.74z"/>
</g>
</g>
</svg>
