<?xml version="1.0" encoding="UTF-8" standalone="no"?> <!-- Created with Vectornator for iOS (http://vectornator.io/) --><!DOCTYPE svg PUBLIC "-//W3C//DTD SVG 1.1//EN" "http://www.w3.org/Graphics/SVG/1.1/DTD/svg11.dtd">
<svg style="fill-rule:evenodd;clip-rule:evenodd;stroke-linecap:round;stroke-linejoin:round;" xmlns:vectornator="http://vectornator.io" xmlns:xlink="http://www.w3.org/1999/xlink" xmlns="http://www.w3.org/2000/svg" xml:space="preserve" version="1.1" viewBox="0 0 1024 1024">
<metadata>
<vectornator:setting key="DisplayWhiteBackground" value="0"/>
<vectornator:setting key="RulersVisible" value="1"/>
<vectornator:setting key="SnapToEdges" value="0"/>
<vectornator:setting key="Units" value="Pixels"/>
<vectornator:setting key="DynamicGuides" value="0"/>
<vectornator:setting key="SnapToPoints" value="0"/>
<vectornator:setting key="CMYKEnabledKey" value="0"/>
<vectornator:setting key="SnapToGrid" value="0"/>
<vectornator:setting key="SnapToGuides" value="1"/>
<vectornator:setting key="ShowGrid" value="1"/>
<vectornator:setting key="GridSpacing" value="36"/>
</metadata>
<defs/>
<g id="Layer 1" vectornator:layerName="Layer 1">
<path stroke="#ffffff" stroke-width="0.5" d="M290.476+285.951L529.416+368.607L529.416+634.157L290.476+551.501L290.476+285.951Z" fill="#7dd3f7" stroke-linecap="round" opacity="1" stroke-linejoin="round"/>
<path stroke="#ffffff" stroke-width="0.5" d="M159.343+94.8508L159.343+651.888L660.604+825.271L660.604+268.234L159.343+94.8508ZM251.926+229.731L567.939+339.105L567.939+690.31L251.926+581.018L251.926+229.731Z" fill="#2091d0" stroke-linecap="round" opacity="1" stroke-linejoin="round"/>
<path stroke="#ffffff" stroke-width="0.5" d="M376.071+130.205L698.703+239.175L698.703+597.807L771.914+623.153L771.914+183.237L376.071+46.3391L376.071+130.205" fill="#34c6f3" stroke-linecap="round" opacity="1" stroke-linejoin="round"/>
<path stroke="#ffffff" stroke-width="0.5" d="M600.194+87.5178C680.851+114.76+809.173+157.743+809.173+157.743L809.173+405.306L882.385+430.652L882.385+101.805L600.194+3.65139L600.194+87.5178" fill="#7dd3f7" stroke-linecap="round" opacity="1" stroke-linejoin="round"/>
<g opacity="0">
<path d="M242.478+771.803L279.463+771.803L279.463+878.86C279.463+890.834+280.881+899.578+283.717+905.092C288.128+914.861+297.739+919.745+312.549+919.745C327.28+919.745+336.851+914.861+341.263+905.092C344.099+899.578+345.517+890.834+345.517+878.86L345.517+771.803L382.502+771.803L382.502+878.86C382.502+897.372+379.627+911.788+373.876+922.108C363.163+941.014+342.72+950.467+312.549+950.467C282.378+950.467+261.896+941.014+251.104+922.108C245.353+911.788+242.478+897.372+242.478+878.86L242.478+771.803Z" opacity="1" fill="#006fbd"/>
<path d="M482.703+892.212C483.806+900.169+485.972+906.116+489.202+910.055C495.11+917.224+505.233+920.808+519.57+920.808C528.157+920.808+535.129+919.863+540.485+917.972C550.647+914.348+555.728+907.613+555.728+897.766C555.728+892.015+553.208+887.565+548.166+884.414C543.124+881.341+535.207+878.624+524.415+876.26L505.981+872.125C487.863+868.028+475.338+863.577+468.405+858.772C456.668+850.737+450.799+838.172+450.799+821.078C450.799+805.48+456.471+792.521+467.814+782.202C479.158+771.882+495.819+766.722+517.798+766.722C536.153+766.722+551.809+771.587+564.768+781.315C577.727+791.044+584.521+805.165+585.151+823.677L550.175+823.677C549.545+813.2+544.976+805.756+536.468+801.344C530.796+798.43+523.745+796.972+515.316+796.972C505.942+796.972+498.458+798.863+492.865+802.644C487.272+806.425+484.476+811.703+484.476+818.478C484.476+824.701+487.233+829.349+492.747+832.421C496.292+834.47+503.854+836.872+515.435+839.629L545.448+846.837C558.604+849.988+568.53+854.203+575.226+859.481C585.624+867.674+590.823+879.529+590.823+895.048C590.823+910.961+584.738+924.176+572.567+934.692C560.396+945.209+543.203+950.467+520.988+950.467C498.301+950.467+480.458+945.288+467.46+934.929C454.462+924.57+447.963+910.331+447.963+892.212L482.703+892.212Z" opacity="1" fill="#006fbd"/>
<path d="M692.206+802.053L692.206+915.727L725.764+915.727C742.938+915.727+754.912+907.259+761.686+890.322C765.389+881.026+767.24+869.958+767.24+857.118C767.24+839.393+764.463+825.785+758.909+816.292C753.356+806.799+742.307+802.053+725.764+802.053L692.206+802.053ZM758.85+775.584C771.061+779.602+780.947+786.968+788.51+797.681C794.575+806.347+798.711+815.721+800.917+825.804C803.122+835.888+804.225+845.498+804.225+854.636C804.225+877.796+799.578+897.412+790.282+913.482C777.678+935.145+758.22+945.977+731.909+945.977L656.875+945.977L656.875+771.803L731.909+771.803C742.701+771.961+751.682+773.221+758.85+775.584Z" opacity="1" fill="#006fbd"/>
</g>
<g opacity="1">
<path stroke="#ffffff" stroke-width="0.5" d="M418.808+956.317C418.808+965.437+417.276+973.737+414.212+981.218C411.148+988.7+406.767+995.112+401.067+1000.46C395.367+1005.8+388.491+1009.97+380.44+1012.96C372.389+1015.95+363.447+1017.45+353.614+1017.45C343.639+1017.45+334.662+1015.95+326.682+1012.96C318.702+1009.97+311.933+1005.8+306.376+1000.46C300.818+995.112+296.543+988.7+293.551+981.218C290.558+973.737+289.062+965.437+289.062+956.317L289.062+862.053L325.399+862.053L325.399+953.324C325.399+957.457+325.934+961.375+327.003+965.08C328.071+968.785+329.71+972.098+331.919+975.02C334.128+977.941+337.049+980.256+340.682+981.966C344.316+983.676+348.698+984.531+353.828+984.531C358.958+984.531+363.34+983.676+366.974+981.966C370.607+980.256+373.564+977.941+375.844+975.02C378.124+972.098+379.763+968.785+380.76+965.08C381.758+961.375+382.257+957.457+382.257+953.324L382.257+862.053L418.808+862.053L418.808+956.317Z" fill="#d1d2d4" stroke-linecap="round" opacity="1" stroke-linejoin="round"/>
<path stroke="#ffffff" stroke-width="0.5" d="M536.468+901.383C533.333+897.393+529.237+894.222+524.178+891.871C519.119+889.52+514.239+888.344+509.536+888.344C507.114+888.344+504.655+888.558+502.162+888.986C499.668+889.413+497.424+890.232+495.429+891.444C493.434+892.655+491.759+894.222+490.406+896.146C489.052+898.07+488.375+900.528+488.375+903.521C488.375+906.086+488.909+908.223+489.978+909.933C491.047+911.643+492.614+913.139+494.68+914.422C496.747+915.704+499.205+916.88+502.055+917.949C504.905+919.017+508.111+920.122+511.674+921.262C516.804+922.972+522.147+924.86+527.705+926.926C533.262+928.992+538.321+931.735+542.881+935.155C547.441+938.575+551.217+942.815+554.21+947.873C557.202+952.932+558.698+959.238+558.698+966.79C558.698+975.483+557.095+983+553.889+989.341C550.683+995.682+546.372+1000.92+540.957+1005.05C535.542+1009.18+529.343+1012.25+522.361+1014.24C515.379+1016.24+508.182+1017.24+500.772+1017.24C489.942+1017.24+479.469+1015.35+469.351+1011.57C459.234+1007.79+450.826+1002.42+444.129+995.433L468.069+971.065C471.774+975.625+476.654+979.437+482.711+982.501C488.767+985.565+494.787+987.096+500.772+987.096C503.48+987.096+506.116+986.811+508.681+986.241C511.246+985.671+513.49+984.745+515.414+983.463C517.338+982.18+518.87+980.47+520.01+978.333C521.15+976.195+521.72+973.63+521.72+970.638C521.72+967.788+521.007+965.365+519.582+963.37C518.157+961.375+516.127+959.558+513.49+957.92C510.854+956.281+507.577+954.785+503.658+953.431C499.739+952.077+495.286+950.617+490.299+949.049C485.454+947.482+480.716+945.629+476.084+943.492C471.453+941.354+467.321+938.611+463.687+935.262C460.053+931.914+457.132+927.852+454.923+923.079C452.714+918.305+451.61+912.498+451.61+905.658C451.61+897.251+453.32+890.054+456.74+884.069C460.16+878.084+464.649+873.168+470.206+869.321C475.764+865.473+482.034+862.659+489.016+860.878C495.999+859.096+503.052+858.206+510.177+858.206C518.727+858.206+527.455+859.773+536.362+862.908C545.268+866.043+553.07+870.674+559.767+876.802L536.468+901.383Z" fill="#d1d2d4" stroke-linecap="round" opacity="1" stroke-linejoin="round"/>
<path stroke="#ffffff" stroke-width="0.5" d="M732.361+937.293C732.361+950.545+729.903+961.981+724.987+971.6C720.071+981.218+713.587+989.127+705.536+995.326C697.485+1001.52+688.4+1006.08+678.283+1009.01C668.165+1011.93+657.905+1013.39+647.503+1013.39L591.073+1013.39L591.073+862.053L645.793+862.053C656.48+862.053+667.025+863.3+677.428+865.794C687.83+868.288+697.093+872.42+705.215+878.191C713.338+883.962+719.893+891.693+724.88+901.383C729.868+911.073+732.361+923.043+732.361+937.293ZM694.314+937.293C694.314+928.743+692.925+921.654+690.146+916.025C687.367+910.396+683.662+905.907+679.031+902.559C674.4+899.21+669.127+896.823+663.213+895.398C657.3+893.973+651.208+893.261+644.938+893.261L626.769+893.261L626.769+981.753L644.083+981.753C650.638+981.753+656.943+981.005+663+979.508C669.056+978.012+674.4+975.554+679.031+972.134C683.662+968.714+687.367+964.154+690.146+958.454C692.925+952.754+694.314+945.7+694.314+937.293Z" fill="#d1d2d4" stroke-linecap="round" opacity="1" stroke-linejoin="round"/>
</g>
</g>
</svg>
