<?xml version="1.0" encoding="UTF-8"?>
<!DOCTYPE svg  PUBLIC '-//W3C//DTD SVG 1.1//EN'  'http://www.w3.org/Graphics/SVG/1.1/DTD/svg11.dtd'>
<svg clip-rule="evenodd" fill-rule="evenodd" stroke-linecap="round" stroke-linejoin="round" version="1.1" viewBox="0 0 1024 1024" xml:space="preserve" xmlns="http://www.w3.org/2000/svg" xmlns:vectornator="http://vectornator.io">
<g vectornator:layerName="Layer 1">
<path d="m237.44 354.67 293.94 101.68v326.68l-293.94-101.68v-326.68z" fill="#7dd3f7" stroke="#fff" stroke-linecap="round" stroke-linejoin="round" stroke-width=".5"/>
<path d="m76.124 119.58v685.26l616.65 213.3v-685.26l-616.65-213.29zm113.9 165.93 388.76 134.55v432.05l-388.76-134.45v-432.15z" fill="#2091d0" stroke="#fff" stroke-linecap="round" stroke-linejoin="round" stroke-width=".5"/>
<path d="m342.74 163.08 396.9 134.05v441.18l90.064 31.18v-541.18l-486.96-168.41v103.17" fill="#34c6f3" stroke="#fff" stroke-linecap="round" stroke-linejoin="round" stroke-width=".5"/>
<path d="m618.45 110.56c99.225 33.513 257.08 86.39 257.08 86.39v304.55l90.064 31.18v-404.54l-347.15-120.75v103.17" fill="#7dd3f7" stroke="#fff" stroke-linecap="round" stroke-linejoin="round" stroke-width=".5"/>
<g fill="#006fbd" opacity="0">
<path d="m242.48 771.8h36.985v107.06c0 11.974 1.418 20.718 4.254 26.232 4.411 9.769 14.022 14.653 28.832 14.653 14.731 0 24.302-4.884 28.714-14.653 2.836-5.514 4.254-14.258 4.254-26.232v-107.06h36.985v107.06c0 18.512-2.875 32.928-8.626 43.248-10.713 18.906-31.156 28.359-61.327 28.359s-50.653-9.453-61.445-28.359c-5.751-10.32-8.626-24.736-8.626-43.248v-107.06z" opacity="1"/>
<path d="m482.7 892.21c1.103 7.957 3.269 13.904 6.499 17.843 5.908 7.169 16.031 10.753 30.368 10.753 8.587 0 15.559-0.945 20.915-2.836 10.162-3.624 15.243-10.359 15.243-20.206 0-5.751-2.52-10.201-7.562-13.352-5.042-3.073-12.959-5.79-23.751-8.154l-18.434-4.135c-18.118-4.097-30.643-8.548-37.576-13.353-11.737-8.035-17.606-20.6-17.606-37.694 0-15.598 5.672-28.557 17.015-38.876 11.344-10.32 28.005-15.48 49.984-15.48 18.355 0 34.011 4.865 46.97 14.593 12.959 9.729 19.753 23.85 20.383 42.362h-34.976c-0.63-10.477-5.199-17.921-13.707-22.333-5.672-2.914-12.723-4.372-21.152-4.372-9.374 0-16.858 1.891-22.451 5.672s-8.389 9.059-8.389 15.834c0 6.223 2.757 10.871 8.271 13.943 3.545 2.049 11.107 4.451 22.688 7.208l30.013 7.208c13.156 3.151 23.082 7.366 29.778 12.644 10.398 8.193 15.597 20.048 15.597 35.567 0 15.913-6.085 29.128-18.256 39.644-12.171 10.517-29.364 15.775-51.579 15.775-22.687 0-40.53-5.179-53.528-15.538s-19.497-24.598-19.497-42.717h34.74z" opacity="1"/>
<path d="m692.21 802.05v113.67h33.558c17.174 0 29.148-8.468 35.922-25.405 3.703-9.296 5.554-20.364 5.554-33.204 0-17.725-2.777-31.333-8.331-40.826-5.553-9.493-16.602-14.239-33.145-14.239h-33.558zm66.644-26.469c12.211 4.018 22.097 11.384 29.66 22.097 6.065 8.666 10.201 18.04 12.407 28.123 2.205 10.084 3.308 19.694 3.308 28.832 0 23.16-4.647 42.776-13.943 58.846-12.604 21.663-32.062 32.495-58.373 32.495h-75.034v-174.17h75.034c10.792 0.158 19.773 1.418 26.941 3.781z" opacity="1"/>
</g>
</g>
</svg>
