<?xml version="1.0" encoding="UTF-8" standalone="no"?> <!-- Created with Vectornator for iOS (http://vectornator.io/) --><!DOCTYPE svg PUBLIC "-//W3C//DTD SVG 1.1//EN" "http://www.w3.org/Graphics/SVG/1.1/DTD/svg11.dtd">
<svg style="fill-rule:evenodd;clip-rule:evenodd;stroke-linecap:round;stroke-linejoin:round;" xmlns:vectornator="http://vectornator.io" xmlns:xlink="http://www.w3.org/1999/xlink" xmlns="http://www.w3.org/2000/svg" xml:space="preserve" version="1.1" viewBox="0 0 1024 1024">
<metadata>
<vectornator:setting key="DisplayWhiteBackground" value="0"/>
<vectornator:setting key="RulersVisible" value="1"/>
<vectornator:setting key="SnapToEdges" value="0"/>
<vectornator:setting key="Units" value="Pixels"/>
<vectornator:setting key="DynamicGuides" value="0"/>
<vectornator:setting key="SnapToPoints" value="0"/>
<vectornator:setting key="CMYKEnabledKey" value="0"/>
<vectornator:setting key="SnapToGrid" value="0"/>
<vectornator:setting key="SnapToGuides" value="1"/>
<vectornator:setting key="ShowGrid" value="1"/>
<vectornator:setting key="GridSpacing" value="36"/>
</metadata>
<defs/>
<g id="Layer 1" vectornator:layerName="Layer 1">
<path stroke="#ffffff" stroke-width="0.5" d="M308.455+269.277L530.165+345.972L530.165+592.374L308.455+515.678L308.455+269.277Z" fill="#7dd3f7" stroke-linecap="round" opacity="1" stroke-linejoin="round"/>
<path stroke="#ffffff" stroke-width="0.5" d="M186.776+91.956L186.776+608.827L651.893+769.707L651.893+252.837L186.776+91.956ZM272.684+217.11L565.91+318.597L565.91+644.478L272.684+543.066L272.684+217.11Z" fill="#2091d0" stroke-linecap="round" opacity="1" stroke-linejoin="round"/>
<path stroke="#ffffff" stroke-width="0.5" d="M387.877+124.761L687.244+225.873L687.244+558.645L755.177+582.163L755.177+173.969L387.877+46.9424L387.877+124.761" fill="#34c6f3" stroke-linecap="round" opacity="1" stroke-linejoin="round"/>
<path stroke="#ffffff" stroke-width="0.5" d="M595.839+85.1517C670.68+110.43+789.749+150.313+789.749+150.313L789.749+380.025L857.682+403.543L857.682+98.4086L595.839+7.33278L595.839+85.1517" fill="#7dd3f7" stroke-linecap="round" opacity="1" stroke-linejoin="round"/>
<g opacity="0">
<path d="M242.478+771.803L279.463+771.803L279.463+878.86C279.463+890.834+280.881+899.578+283.717+905.092C288.128+914.861+297.739+919.745+312.549+919.745C327.28+919.745+336.851+914.861+341.263+905.092C344.099+899.578+345.517+890.834+345.517+878.86L345.517+771.803L382.502+771.803L382.502+878.86C382.502+897.372+379.627+911.788+373.876+922.108C363.163+941.014+342.72+950.467+312.549+950.467C282.378+950.467+261.896+941.014+251.104+922.108C245.353+911.788+242.478+897.372+242.478+878.86L242.478+771.803Z" opacity="1" fill="#006fbd"/>
<path d="M482.703+892.212C483.806+900.169+485.972+906.116+489.202+910.055C495.11+917.224+505.233+920.808+519.57+920.808C528.157+920.808+535.129+919.863+540.485+917.972C550.647+914.348+555.728+907.613+555.728+897.766C555.728+892.015+553.208+887.565+548.166+884.414C543.124+881.341+535.207+878.624+524.415+876.26L505.981+872.125C487.863+868.028+475.338+863.577+468.405+858.772C456.668+850.737+450.799+838.172+450.799+821.078C450.799+805.48+456.471+792.521+467.814+782.202C479.158+771.882+495.819+766.722+517.798+766.722C536.153+766.722+551.809+771.587+564.768+781.315C577.727+791.044+584.521+805.165+585.151+823.677L550.175+823.677C549.545+813.2+544.976+805.756+536.468+801.344C530.796+798.43+523.745+796.972+515.316+796.972C505.942+796.972+498.458+798.863+492.865+802.644C487.272+806.425+484.476+811.703+484.476+818.478C484.476+824.701+487.233+829.349+492.747+832.421C496.292+834.47+503.854+836.872+515.435+839.629L545.448+846.837C558.604+849.988+568.53+854.203+575.226+859.481C585.624+867.674+590.823+879.529+590.823+895.048C590.823+910.961+584.738+924.176+572.567+934.692C560.396+945.209+543.203+950.467+520.988+950.467C498.301+950.467+480.458+945.288+467.46+934.929C454.462+924.57+447.963+910.331+447.963+892.212L482.703+892.212Z" opacity="1" fill="#006fbd"/>
<path d="M692.206+802.053L692.206+915.727L725.764+915.727C742.938+915.727+754.912+907.259+761.686+890.322C765.389+881.026+767.24+869.958+767.24+857.118C767.24+839.393+764.463+825.785+758.909+816.292C753.356+806.799+742.307+802.053+725.764+802.053L692.206+802.053ZM758.85+775.584C771.061+779.602+780.947+786.968+788.51+797.681C794.575+806.347+798.711+815.721+800.917+825.804C803.122+835.888+804.225+845.498+804.225+854.636C804.225+877.796+799.578+897.412+790.282+913.482C777.678+935.145+758.22+945.977+731.909+945.977L656.875+945.977L656.875+771.803L731.909+771.803C742.701+771.961+751.682+773.221+758.85+775.584Z" opacity="1" fill="#006fbd"/>
</g>
<g opacity="1">
<path stroke="#ffffff" stroke-width="0.5" d="M398.633+932.379C398.633+943.473+396.77+953.569+393.043+962.669C389.317+971.769+383.987+979.569+377.053+986.069C370.12+992.569+361.757+997.639+351.963+1001.28C342.17+1004.92+331.293+1006.74+319.333+1006.74C307.2+1006.74+296.28+1004.92+286.573+1001.28C276.867+997.639+268.633+992.569+261.873+986.069C255.113+979.569+249.913+971.769+246.273+962.669C242.633+953.569+240.813+943.473+240.813+932.379L240.813+817.719L285.013+817.719L285.013+928.739C285.013+933.766+285.663+938.533+286.963+943.039C288.263+947.546+290.257+951.576+292.943+955.129C295.63+958.683+299.183+961.499+303.603+963.579C308.023+965.659+313.353+966.699+319.593+966.699C325.833+966.699+331.163+965.659+335.583+963.579C340.003+961.499+343.6+958.683+346.373+955.129C349.147+951.576+351.14+947.546+352.353+943.039C353.567+938.533+354.173+933.766+354.173+928.739L354.173+817.719L398.633+817.719L398.633+932.379Z" fill="#d1d2d4" stroke-linecap="round" opacity="1" stroke-linejoin="round"/>
<path stroke="#ffffff" stroke-width="0.5" d="M541.753+865.559C537.94+860.706+532.957+856.849+526.803+853.989C520.65+851.129+514.713+849.699+508.993+849.699C506.047+849.699+503.057+849.959+500.023+850.479C496.99+850.999+494.26+851.996+491.833+853.469C489.407+854.943+487.37+856.849+485.723+859.189C484.077+861.529+483.253+864.519+483.253+868.159C483.253+871.279+483.903+873.879+485.203+875.959C486.503+878.039+488.41+879.859+490.923+881.419C493.437+882.979+496.427+884.409+499.893+885.709C503.36+887.009+507.26+888.353+511.593+889.739C517.833+891.819+524.333+894.116+531.093+896.629C537.853+899.143+544.007+902.479+549.553+906.639C555.1+910.799+559.693+915.956+563.333+922.109C566.973+928.263+568.793+935.933+568.793+945.119C568.793+955.693+566.843+964.836+562.943+972.549C559.043+980.263+553.8+986.633+547.213+991.659C540.627+996.686+533.087+1000.41+524.593+1002.84C516.1+1005.27+507.347+1006.48+498.333+1006.48C485.16+1006.48+472.42+1004.18+460.113+999.589C447.807+994.996+437.58+988.453+429.433+979.959L458.553+950.319C463.06+955.866+468.997+960.503+476.363+964.229C483.73+967.956+491.053+969.819+498.333+969.819C501.627+969.819+504.833+969.473+507.953+968.779C511.073+968.086+513.803+966.959+516.143+965.399C518.483+963.839+520.347+961.759+521.733+959.159C523.12+956.559+523.813+953.439+523.813+949.799C523.813+946.333+522.947+943.386+521.213+940.959C519.48+938.533+517.01+936.323+513.803+934.329C510.597+932.336+506.61+930.516+501.843+928.869C497.077+927.223+491.66+925.446+485.593+923.539C479.7+921.633+473.937+919.379+468.303+916.779C462.67+914.179+457.643+910.843+453.223+906.769C448.803+902.696+445.25+897.756+442.563+891.949C439.877+886.143+438.533+879.079+438.533+870.759C438.533+860.533+440.613+851.779+444.773+844.499C448.933+837.219+454.393+831.239+461.153+826.559C467.913+821.879+475.54+818.456+484.033+816.289C492.527+814.123+501.107+813.039+509.773+813.039C520.173+813.039+530.79+814.946+541.623+818.759C552.457+822.573+561.947+828.206+570.093+835.659L541.753+865.559Z" fill="#d1d2d4" stroke-linecap="round" opacity="1" stroke-linejoin="round"/>
<path stroke="#ffffff" stroke-width="0.5" d="M780.033+909.239C780.033+925.359+777.043+939.269+771.063+950.969C765.083+962.669+757.197+972.289+747.403+979.829C737.61+987.369+726.56+992.916+714.253+996.469C701.947+1000.02+689.467+1001.8+676.813+1001.8L608.173+1001.8L608.173+817.719L674.733+817.719C687.733+817.719+700.56+819.236+713.213+822.269C725.867+825.303+737.133+830.329+747.013+837.349C756.893+844.369+764.867+853.773+770.933+865.559C777+877.346+780.033+891.906+780.033+909.239ZM733.753+909.239C733.753+898.839+732.063+890.216+728.683+883.369C725.303+876.523+720.797+871.063+715.163+866.989C709.53+862.916+703.117+860.013+695.923+858.279C688.73+856.546+681.32+855.679+673.693+855.679L651.593+855.679L651.593+963.319L672.653+963.319C680.627+963.319+688.297+962.409+695.663+960.589C703.03+958.769+709.53+955.779+715.163+951.619C720.797+947.459+725.303+941.913+728.683+934.979C732.063+928.046+733.753+919.466+733.753+909.239Z" fill="#d1d2d4" stroke-linecap="round" opacity="1" stroke-linejoin="round"/>
</g>
</g>
</svg>
