<?xml version="1.0" encoding="UTF-8" standalone="no"?><!-- Generator: Gravit.io --><svg xmlns="http://www.w3.org/2000/svg" xmlns:xlink="http://www.w3.org/1999/xlink" style="isolation:isolate" viewBox="0 0 512 512" width="512pt" height="512pt"><defs><clipPath id="_clipPath_3qhHFhnkn6gXqa4dG8DXWTuhNcerDz2E"><rect width="512" height="512"/></clipPath></defs><g clip-path="url(#_clipPath_3qhHFhnkn6gXqa4dG8DXWTuhNcerDz2E)"><g><path d=" M 213 70 L 213 318 L 465 353 L 466 168 L 391 93 L 213 70 Z " fill="rgb(0,114,189)" vector-effect="non-scaling-stroke" stroke-width="4" stroke="rgb(255,255,255)" stroke-linejoin="miter" stroke-linecap="square" stroke-miterlimit="3"/><path d=" M 305.91 157.744 C 304.205 138.738 316.462 122.085 333.264 120.578 C 350.066 119.07 365.091 133.277 366.796 152.282 C 368.501 171.288 356.244 187.942 339.442 189.449 C 322.64 190.956 307.615 176.749 305.91 157.744 Z " fill="rgb(255,255,255)"/><path d=" M 364.113 277.186 C 362.408 258.18 374.665 241.526 391.467 240.019 C 408.269 238.512 423.294 252.719 424.999 271.724 C 426.704 290.73 414.447 307.383 397.645 308.89 C 380.843 310.397 365.818 296.191 364.113 277.186 Z " fill="rgb(255,255,255)"/><rect x="362.454" y="177.987" width="9" height="77.905" transform="matrix(0.883,-0.469,0.469,0.883,-58.88,197.358)" fill="rgb(255,255,255)"/></g><g><g opacity="0.5"><path d=" M 123 113.5 L 123 361.5 L 375 396.5 L 376 211.5 L 301 136.5 L 123 113.5 Z " fill="rgb(2,154,255)" vector-effect="non-scaling-stroke" stroke-width="4" stroke="rgb(255,255,255)" stroke-linejoin="miter" stroke-linecap="square" stroke-miterlimit="3"/></g><path d=" M 215.91 201.244 C 214.205 182.238 226.462 165.585 243.264 164.078 C 260.066 162.57 275.091 176.777 276.796 195.782 C 278.501 214.788 266.244 231.442 249.442 232.949 C 232.64 234.456 217.615 220.249 215.91 201.244 Z " fill="rgb(255,255,255)"/><path d=" M 157.956 302.686 C 156.251 283.68 168.508 267.026 185.31 265.519 C 202.112 264.012 217.137 278.219 218.842 297.224 C 220.546 316.23 208.29 332.883 191.488 334.39 C 174.686 335.897 159.66 321.691 157.956 302.686 Z " fill="rgb(255,255,255)"/><rect x="212.252" y="211.597" width="9" height="77.905" transform="matrix(0.868,0.496,-0.496,0.868,152.944,-74.543)" fill="rgb(255,255,255)"/></g><g><g opacity="0.35"><path d=" M 46 159 L 46 407 L 298 442 L 299 257 L 224 182 L 46 159 Z " fill="rgb(0,114,189)" vector-effect="non-scaling-stroke" stroke-width="4" stroke="rgb(255,255,255)" stroke-linejoin="miter" stroke-linecap="square" stroke-miterlimit="3"/></g><path d=" M 138.91 246.744 C 137.205 227.738 149.462 211.085 166.264 209.578 C 183.066 208.07 198.091 222.277 199.796 241.282 C 201.501 260.288 189.244 276.942 172.442 278.449 C 155.64 279.956 140.615 265.749 138.91 246.744 Z " fill="rgb(255,255,255)"/><path d=" M 197.113 366.186 C 195.408 347.18 207.665 330.526 224.467 329.019 C 241.269 327.512 256.294 341.719 257.999 360.724 C 259.704 379.73 247.447 396.383 230.645 397.89 C 213.843 399.397 198.818 385.191 197.113 366.186 Z " fill="rgb(255,255,255)"/><path d=" M 80.956 348.186 C 79.251 329.18 91.508 312.526 108.31 311.019 C 125.112 309.512 140.137 323.719 141.842 342.724 C 143.546 361.73 131.29 378.383 114.488 379.89 C 97.686 381.397 82.66 367.191 80.956 348.186 Z " fill="rgb(255,255,255)"/><rect x="135.252" y="257.097" width="9" height="77.905" transform="matrix(0.868,0.496,-0.496,0.868,165.373,-30.324)" fill="rgb(255,255,255)"/><rect x="195.454" y="266.987" width="9" height="77.905" transform="matrix(0.883,-0.469,0.469,0.883,-120.096,129.451)" fill="rgb(255,255,255)"/></g></g></svg>